%TF.GenerationSoftware,KiCad,Pcbnew,9.0.7*%
%TF.CreationDate,2026-03-20T14:04:17+01:00*%
%TF.ProjectId,rc_plane_v1.0,72635f70-6c61-46e6-955f-76312e302e6b,rev?*%
%TF.SameCoordinates,Original*%
%TF.FileFunction,Legend,Top*%
%TF.FilePolarity,Positive*%
%FSLAX46Y46*%
G04 Gerber Fmt 4.6, Leading zero omitted, Abs format (unit mm)*
G04 Created by KiCad (PCBNEW 9.0.7) date 2026-03-20 14:04:17*
%MOMM*%
%LPD*%
G01*
G04 APERTURE LIST*
%ADD10C,0.150000*%
%ADD11C,0.127000*%
%ADD12C,0.120000*%
G04 APERTURE END LIST*
D10*
X188205826Y-56880414D02*
X188670112Y-56880414D01*
X188670112Y-56880414D02*
X188420112Y-57166128D01*
X188420112Y-57166128D02*
X188527255Y-57166128D01*
X188527255Y-57166128D02*
X188598684Y-57201842D01*
X188598684Y-57201842D02*
X188634398Y-57237557D01*
X188634398Y-57237557D02*
X188670112Y-57308985D01*
X188670112Y-57308985D02*
X188670112Y-57487557D01*
X188670112Y-57487557D02*
X188634398Y-57558985D01*
X188634398Y-57558985D02*
X188598684Y-57594700D01*
X188598684Y-57594700D02*
X188527255Y-57630414D01*
X188527255Y-57630414D02*
X188312969Y-57630414D01*
X188312969Y-57630414D02*
X188241541Y-57594700D01*
X188241541Y-57594700D02*
X188205826Y-57558985D01*
X188884398Y-56880414D02*
X189134398Y-57630414D01*
X189134398Y-57630414D02*
X189384398Y-56880414D01*
X189562969Y-56880414D02*
X190027255Y-56880414D01*
X190027255Y-56880414D02*
X189777255Y-57166128D01*
X189777255Y-57166128D02*
X189884398Y-57166128D01*
X189884398Y-57166128D02*
X189955827Y-57201842D01*
X189955827Y-57201842D02*
X189991541Y-57237557D01*
X189991541Y-57237557D02*
X190027255Y-57308985D01*
X190027255Y-57308985D02*
X190027255Y-57487557D01*
X190027255Y-57487557D02*
X189991541Y-57558985D01*
X189991541Y-57558985D02*
X189955827Y-57594700D01*
X189955827Y-57594700D02*
X189884398Y-57630414D01*
X189884398Y-57630414D02*
X189670112Y-57630414D01*
X189670112Y-57630414D02*
X189598684Y-57594700D01*
X189598684Y-57594700D02*
X189562969Y-57558985D01*
X194590414Y-74054173D02*
X194590414Y-73589887D01*
X194590414Y-73589887D02*
X194876128Y-73839887D01*
X194876128Y-73839887D02*
X194876128Y-73732744D01*
X194876128Y-73732744D02*
X194911842Y-73661316D01*
X194911842Y-73661316D02*
X194947557Y-73625601D01*
X194947557Y-73625601D02*
X195018985Y-73589887D01*
X195018985Y-73589887D02*
X195197557Y-73589887D01*
X195197557Y-73589887D02*
X195268985Y-73625601D01*
X195268985Y-73625601D02*
X195304700Y-73661316D01*
X195304700Y-73661316D02*
X195340414Y-73732744D01*
X195340414Y-73732744D02*
X195340414Y-73947030D01*
X195340414Y-73947030D02*
X195304700Y-74018458D01*
X195304700Y-74018458D02*
X195268985Y-74054173D01*
X194590414Y-73375601D02*
X195340414Y-73125601D01*
X195340414Y-73125601D02*
X194590414Y-72875601D01*
X194590414Y-72697030D02*
X194590414Y-72232744D01*
X194590414Y-72232744D02*
X194876128Y-72482744D01*
X194876128Y-72482744D02*
X194876128Y-72375601D01*
X194876128Y-72375601D02*
X194911842Y-72304173D01*
X194911842Y-72304173D02*
X194947557Y-72268458D01*
X194947557Y-72268458D02*
X195018985Y-72232744D01*
X195018985Y-72232744D02*
X195197557Y-72232744D01*
X195197557Y-72232744D02*
X195268985Y-72268458D01*
X195268985Y-72268458D02*
X195304700Y-72304173D01*
X195304700Y-72304173D02*
X195340414Y-72375601D01*
X195340414Y-72375601D02*
X195340414Y-72589887D01*
X195340414Y-72589887D02*
X195304700Y-72661315D01*
X195304700Y-72661315D02*
X195268985Y-72697030D01*
X195126128Y-71947029D02*
X195126128Y-71589887D01*
X195340414Y-72018458D02*
X194590414Y-71768458D01*
X194590414Y-71768458D02*
X195340414Y-71518458D01*
X198500414Y-78949887D02*
X199250414Y-78699887D01*
X199250414Y-78699887D02*
X198500414Y-78449887D01*
X198857557Y-77949887D02*
X198893271Y-77842744D01*
X198893271Y-77842744D02*
X198928985Y-77807030D01*
X198928985Y-77807030D02*
X199000414Y-77771316D01*
X199000414Y-77771316D02*
X199107557Y-77771316D01*
X199107557Y-77771316D02*
X199178985Y-77807030D01*
X199178985Y-77807030D02*
X199214700Y-77842744D01*
X199214700Y-77842744D02*
X199250414Y-77914173D01*
X199250414Y-77914173D02*
X199250414Y-78199887D01*
X199250414Y-78199887D02*
X198500414Y-78199887D01*
X198500414Y-78199887D02*
X198500414Y-77949887D01*
X198500414Y-77949887D02*
X198536128Y-77878459D01*
X198536128Y-77878459D02*
X198571842Y-77842744D01*
X198571842Y-77842744D02*
X198643271Y-77807030D01*
X198643271Y-77807030D02*
X198714700Y-77807030D01*
X198714700Y-77807030D02*
X198786128Y-77842744D01*
X198786128Y-77842744D02*
X198821842Y-77878459D01*
X198821842Y-77878459D02*
X198857557Y-77949887D01*
X198857557Y-77949887D02*
X198857557Y-78199887D01*
X198500414Y-77449887D02*
X199107557Y-77449887D01*
X199107557Y-77449887D02*
X199178985Y-77414173D01*
X199178985Y-77414173D02*
X199214700Y-77378459D01*
X199214700Y-77378459D02*
X199250414Y-77307030D01*
X199250414Y-77307030D02*
X199250414Y-77164173D01*
X199250414Y-77164173D02*
X199214700Y-77092744D01*
X199214700Y-77092744D02*
X199178985Y-77057030D01*
X199178985Y-77057030D02*
X199107557Y-77021316D01*
X199107557Y-77021316D02*
X198500414Y-77021316D01*
X199214700Y-76699887D02*
X199250414Y-76592745D01*
X199250414Y-76592745D02*
X199250414Y-76414173D01*
X199250414Y-76414173D02*
X199214700Y-76342745D01*
X199214700Y-76342745D02*
X199178985Y-76307030D01*
X199178985Y-76307030D02*
X199107557Y-76271316D01*
X199107557Y-76271316D02*
X199036128Y-76271316D01*
X199036128Y-76271316D02*
X198964700Y-76307030D01*
X198964700Y-76307030D02*
X198928985Y-76342745D01*
X198928985Y-76342745D02*
X198893271Y-76414173D01*
X198893271Y-76414173D02*
X198857557Y-76557030D01*
X198857557Y-76557030D02*
X198821842Y-76628459D01*
X198821842Y-76628459D02*
X198786128Y-76664173D01*
X198786128Y-76664173D02*
X198714700Y-76699887D01*
X198714700Y-76699887D02*
X198643271Y-76699887D01*
X198643271Y-76699887D02*
X198571842Y-76664173D01*
X198571842Y-76664173D02*
X198536128Y-76628459D01*
X198536128Y-76628459D02*
X198500414Y-76557030D01*
X198500414Y-76557030D02*
X198500414Y-76378459D01*
X198500414Y-76378459D02*
X198536128Y-76271316D01*
X205497557Y-57552744D02*
X205533271Y-57445601D01*
X205533271Y-57445601D02*
X205568985Y-57409887D01*
X205568985Y-57409887D02*
X205640414Y-57374173D01*
X205640414Y-57374173D02*
X205747557Y-57374173D01*
X205747557Y-57374173D02*
X205818985Y-57409887D01*
X205818985Y-57409887D02*
X205854700Y-57445601D01*
X205854700Y-57445601D02*
X205890414Y-57517030D01*
X205890414Y-57517030D02*
X205890414Y-57802744D01*
X205890414Y-57802744D02*
X205140414Y-57802744D01*
X205140414Y-57802744D02*
X205140414Y-57552744D01*
X205140414Y-57552744D02*
X205176128Y-57481316D01*
X205176128Y-57481316D02*
X205211842Y-57445601D01*
X205211842Y-57445601D02*
X205283271Y-57409887D01*
X205283271Y-57409887D02*
X205354700Y-57409887D01*
X205354700Y-57409887D02*
X205426128Y-57445601D01*
X205426128Y-57445601D02*
X205461842Y-57481316D01*
X205461842Y-57481316D02*
X205497557Y-57552744D01*
X205497557Y-57552744D02*
X205497557Y-57802744D01*
X205676128Y-57088458D02*
X205676128Y-56731316D01*
X205890414Y-57159887D02*
X205140414Y-56909887D01*
X205140414Y-56909887D02*
X205890414Y-56659887D01*
X205140414Y-56517030D02*
X205140414Y-56088459D01*
X205890414Y-56302744D02*
X205140414Y-56302744D01*
X203906128Y-57639887D02*
X203870414Y-57711316D01*
X203870414Y-57711316D02*
X203870414Y-57818458D01*
X203870414Y-57818458D02*
X203906128Y-57925601D01*
X203906128Y-57925601D02*
X203977557Y-57997030D01*
X203977557Y-57997030D02*
X204048985Y-58032744D01*
X204048985Y-58032744D02*
X204191842Y-58068458D01*
X204191842Y-58068458D02*
X204298985Y-58068458D01*
X204298985Y-58068458D02*
X204441842Y-58032744D01*
X204441842Y-58032744D02*
X204513271Y-57997030D01*
X204513271Y-57997030D02*
X204584700Y-57925601D01*
X204584700Y-57925601D02*
X204620414Y-57818458D01*
X204620414Y-57818458D02*
X204620414Y-57747030D01*
X204620414Y-57747030D02*
X204584700Y-57639887D01*
X204584700Y-57639887D02*
X204548985Y-57604173D01*
X204548985Y-57604173D02*
X204298985Y-57604173D01*
X204298985Y-57604173D02*
X204298985Y-57747030D01*
X204620414Y-57282744D02*
X203870414Y-57282744D01*
X203870414Y-57282744D02*
X204620414Y-56854173D01*
X204620414Y-56854173D02*
X203870414Y-56854173D01*
X204620414Y-56497030D02*
X203870414Y-56497030D01*
X203870414Y-56497030D02*
X203870414Y-56318459D01*
X203870414Y-56318459D02*
X203906128Y-56211316D01*
X203906128Y-56211316D02*
X203977557Y-56139887D01*
X203977557Y-56139887D02*
X204048985Y-56104173D01*
X204048985Y-56104173D02*
X204191842Y-56068459D01*
X204191842Y-56068459D02*
X204298985Y-56068459D01*
X204298985Y-56068459D02*
X204441842Y-56104173D01*
X204441842Y-56104173D02*
X204513271Y-56139887D01*
X204513271Y-56139887D02*
X204584700Y-56211316D01*
X204584700Y-56211316D02*
X204620414Y-56318459D01*
X204620414Y-56318459D02*
X204620414Y-56497030D01*
X175356128Y-57459887D02*
X175320414Y-57531316D01*
X175320414Y-57531316D02*
X175320414Y-57638458D01*
X175320414Y-57638458D02*
X175356128Y-57745601D01*
X175356128Y-57745601D02*
X175427557Y-57817030D01*
X175427557Y-57817030D02*
X175498985Y-57852744D01*
X175498985Y-57852744D02*
X175641842Y-57888458D01*
X175641842Y-57888458D02*
X175748985Y-57888458D01*
X175748985Y-57888458D02*
X175891842Y-57852744D01*
X175891842Y-57852744D02*
X175963271Y-57817030D01*
X175963271Y-57817030D02*
X176034700Y-57745601D01*
X176034700Y-57745601D02*
X176070414Y-57638458D01*
X176070414Y-57638458D02*
X176070414Y-57567030D01*
X176070414Y-57567030D02*
X176034700Y-57459887D01*
X176034700Y-57459887D02*
X175998985Y-57424173D01*
X175998985Y-57424173D02*
X175748985Y-57424173D01*
X175748985Y-57424173D02*
X175748985Y-57567030D01*
X176070414Y-57102744D02*
X175320414Y-57102744D01*
X175320414Y-57102744D02*
X176070414Y-56674173D01*
X176070414Y-56674173D02*
X175320414Y-56674173D01*
X176070414Y-56317030D02*
X175320414Y-56317030D01*
X175320414Y-56317030D02*
X175320414Y-56138459D01*
X175320414Y-56138459D02*
X175356128Y-56031316D01*
X175356128Y-56031316D02*
X175427557Y-55959887D01*
X175427557Y-55959887D02*
X175498985Y-55924173D01*
X175498985Y-55924173D02*
X175641842Y-55888459D01*
X175641842Y-55888459D02*
X175748985Y-55888459D01*
X175748985Y-55888459D02*
X175891842Y-55924173D01*
X175891842Y-55924173D02*
X175963271Y-55959887D01*
X175963271Y-55959887D02*
X176034700Y-56031316D01*
X176034700Y-56031316D02*
X176070414Y-56138459D01*
X176070414Y-56138459D02*
X176070414Y-56317030D01*
X170380112Y-68166128D02*
X170308684Y-68130414D01*
X170308684Y-68130414D02*
X170201541Y-68130414D01*
X170201541Y-68130414D02*
X170094398Y-68166128D01*
X170094398Y-68166128D02*
X170022969Y-68237557D01*
X170022969Y-68237557D02*
X169987255Y-68308985D01*
X169987255Y-68308985D02*
X169951541Y-68451842D01*
X169951541Y-68451842D02*
X169951541Y-68558985D01*
X169951541Y-68558985D02*
X169987255Y-68701842D01*
X169987255Y-68701842D02*
X170022969Y-68773271D01*
X170022969Y-68773271D02*
X170094398Y-68844700D01*
X170094398Y-68844700D02*
X170201541Y-68880414D01*
X170201541Y-68880414D02*
X170272969Y-68880414D01*
X170272969Y-68880414D02*
X170380112Y-68844700D01*
X170380112Y-68844700D02*
X170415826Y-68808985D01*
X170415826Y-68808985D02*
X170415826Y-68558985D01*
X170415826Y-68558985D02*
X170272969Y-68558985D01*
X170737255Y-68880414D02*
X170737255Y-68130414D01*
X170737255Y-68130414D02*
X171165826Y-68880414D01*
X171165826Y-68880414D02*
X171165826Y-68130414D01*
X171522969Y-68880414D02*
X171522969Y-68130414D01*
X171522969Y-68130414D02*
X171701540Y-68130414D01*
X171701540Y-68130414D02*
X171808683Y-68166128D01*
X171808683Y-68166128D02*
X171880112Y-68237557D01*
X171880112Y-68237557D02*
X171915826Y-68308985D01*
X171915826Y-68308985D02*
X171951540Y-68451842D01*
X171951540Y-68451842D02*
X171951540Y-68558985D01*
X171951540Y-68558985D02*
X171915826Y-68701842D01*
X171915826Y-68701842D02*
X171880112Y-68773271D01*
X171880112Y-68773271D02*
X171808683Y-68844700D01*
X171808683Y-68844700D02*
X171701540Y-68880414D01*
X171701540Y-68880414D02*
X171522969Y-68880414D01*
X181186128Y-57329887D02*
X181150414Y-57401316D01*
X181150414Y-57401316D02*
X181150414Y-57508458D01*
X181150414Y-57508458D02*
X181186128Y-57615601D01*
X181186128Y-57615601D02*
X181257557Y-57687030D01*
X181257557Y-57687030D02*
X181328985Y-57722744D01*
X181328985Y-57722744D02*
X181471842Y-57758458D01*
X181471842Y-57758458D02*
X181578985Y-57758458D01*
X181578985Y-57758458D02*
X181721842Y-57722744D01*
X181721842Y-57722744D02*
X181793271Y-57687030D01*
X181793271Y-57687030D02*
X181864700Y-57615601D01*
X181864700Y-57615601D02*
X181900414Y-57508458D01*
X181900414Y-57508458D02*
X181900414Y-57437030D01*
X181900414Y-57437030D02*
X181864700Y-57329887D01*
X181864700Y-57329887D02*
X181828985Y-57294173D01*
X181828985Y-57294173D02*
X181578985Y-57294173D01*
X181578985Y-57294173D02*
X181578985Y-57437030D01*
X181900414Y-56972744D02*
X181150414Y-56972744D01*
X181150414Y-56972744D02*
X181900414Y-56544173D01*
X181900414Y-56544173D02*
X181150414Y-56544173D01*
X181900414Y-56187030D02*
X181150414Y-56187030D01*
X181150414Y-56187030D02*
X181150414Y-56008459D01*
X181150414Y-56008459D02*
X181186128Y-55901316D01*
X181186128Y-55901316D02*
X181257557Y-55829887D01*
X181257557Y-55829887D02*
X181328985Y-55794173D01*
X181328985Y-55794173D02*
X181471842Y-55758459D01*
X181471842Y-55758459D02*
X181578985Y-55758459D01*
X181578985Y-55758459D02*
X181721842Y-55794173D01*
X181721842Y-55794173D02*
X181793271Y-55829887D01*
X181793271Y-55829887D02*
X181864700Y-55901316D01*
X181864700Y-55901316D02*
X181900414Y-56008459D01*
X181900414Y-56008459D02*
X181900414Y-56187030D01*
X183208985Y-57294173D02*
X183244700Y-57329887D01*
X183244700Y-57329887D02*
X183280414Y-57437030D01*
X183280414Y-57437030D02*
X183280414Y-57508458D01*
X183280414Y-57508458D02*
X183244700Y-57615601D01*
X183244700Y-57615601D02*
X183173271Y-57687030D01*
X183173271Y-57687030D02*
X183101842Y-57722744D01*
X183101842Y-57722744D02*
X182958985Y-57758458D01*
X182958985Y-57758458D02*
X182851842Y-57758458D01*
X182851842Y-57758458D02*
X182708985Y-57722744D01*
X182708985Y-57722744D02*
X182637557Y-57687030D01*
X182637557Y-57687030D02*
X182566128Y-57615601D01*
X182566128Y-57615601D02*
X182530414Y-57508458D01*
X182530414Y-57508458D02*
X182530414Y-57437030D01*
X182530414Y-57437030D02*
X182566128Y-57329887D01*
X182566128Y-57329887D02*
X182601842Y-57294173D01*
X183280414Y-56615601D02*
X183280414Y-56972744D01*
X183280414Y-56972744D02*
X182530414Y-56972744D01*
X183280414Y-56365601D02*
X182530414Y-56365601D01*
X183280414Y-55937030D02*
X182851842Y-56258458D01*
X182530414Y-55937030D02*
X182958985Y-56365601D01*
X184530414Y-57722744D02*
X183780414Y-57722744D01*
X183780414Y-57722744D02*
X183780414Y-57544173D01*
X183780414Y-57544173D02*
X183816128Y-57437030D01*
X183816128Y-57437030D02*
X183887557Y-57365601D01*
X183887557Y-57365601D02*
X183958985Y-57329887D01*
X183958985Y-57329887D02*
X184101842Y-57294173D01*
X184101842Y-57294173D02*
X184208985Y-57294173D01*
X184208985Y-57294173D02*
X184351842Y-57329887D01*
X184351842Y-57329887D02*
X184423271Y-57365601D01*
X184423271Y-57365601D02*
X184494700Y-57437030D01*
X184494700Y-57437030D02*
X184530414Y-57544173D01*
X184530414Y-57544173D02*
X184530414Y-57722744D01*
X184530414Y-56972744D02*
X183780414Y-56972744D01*
X183780414Y-56472744D02*
X183780414Y-56329887D01*
X183780414Y-56329887D02*
X183816128Y-56258458D01*
X183816128Y-56258458D02*
X183887557Y-56187030D01*
X183887557Y-56187030D02*
X184030414Y-56151315D01*
X184030414Y-56151315D02*
X184280414Y-56151315D01*
X184280414Y-56151315D02*
X184423271Y-56187030D01*
X184423271Y-56187030D02*
X184494700Y-56258458D01*
X184494700Y-56258458D02*
X184530414Y-56329887D01*
X184530414Y-56329887D02*
X184530414Y-56472744D01*
X184530414Y-56472744D02*
X184494700Y-56544173D01*
X184494700Y-56544173D02*
X184423271Y-56615601D01*
X184423271Y-56615601D02*
X184280414Y-56651315D01*
X184280414Y-56651315D02*
X184030414Y-56651315D01*
X184030414Y-56651315D02*
X183887557Y-56615601D01*
X183887557Y-56615601D02*
X183816128Y-56544173D01*
X183816128Y-56544173D02*
X183780414Y-56472744D01*
X169955826Y-69320414D02*
X170420112Y-69320414D01*
X170420112Y-69320414D02*
X170170112Y-69606128D01*
X170170112Y-69606128D02*
X170277255Y-69606128D01*
X170277255Y-69606128D02*
X170348684Y-69641842D01*
X170348684Y-69641842D02*
X170384398Y-69677557D01*
X170384398Y-69677557D02*
X170420112Y-69748985D01*
X170420112Y-69748985D02*
X170420112Y-69927557D01*
X170420112Y-69927557D02*
X170384398Y-69998985D01*
X170384398Y-69998985D02*
X170348684Y-70034700D01*
X170348684Y-70034700D02*
X170277255Y-70070414D01*
X170277255Y-70070414D02*
X170062969Y-70070414D01*
X170062969Y-70070414D02*
X169991541Y-70034700D01*
X169991541Y-70034700D02*
X169955826Y-69998985D01*
X170634398Y-69320414D02*
X170884398Y-70070414D01*
X170884398Y-70070414D02*
X171134398Y-69320414D01*
X171312969Y-69320414D02*
X171777255Y-69320414D01*
X171777255Y-69320414D02*
X171527255Y-69606128D01*
X171527255Y-69606128D02*
X171634398Y-69606128D01*
X171634398Y-69606128D02*
X171705827Y-69641842D01*
X171705827Y-69641842D02*
X171741541Y-69677557D01*
X171741541Y-69677557D02*
X171777255Y-69748985D01*
X171777255Y-69748985D02*
X171777255Y-69927557D01*
X171777255Y-69927557D02*
X171741541Y-69998985D01*
X171741541Y-69998985D02*
X171705827Y-70034700D01*
X171705827Y-70034700D02*
X171634398Y-70070414D01*
X171634398Y-70070414D02*
X171420112Y-70070414D01*
X171420112Y-70070414D02*
X171348684Y-70034700D01*
X171348684Y-70034700D02*
X171312969Y-69998985D01*
X185110414Y-57794173D02*
X185110414Y-57329887D01*
X185110414Y-57329887D02*
X185396128Y-57579887D01*
X185396128Y-57579887D02*
X185396128Y-57472744D01*
X185396128Y-57472744D02*
X185431842Y-57401316D01*
X185431842Y-57401316D02*
X185467557Y-57365601D01*
X185467557Y-57365601D02*
X185538985Y-57329887D01*
X185538985Y-57329887D02*
X185717557Y-57329887D01*
X185717557Y-57329887D02*
X185788985Y-57365601D01*
X185788985Y-57365601D02*
X185824700Y-57401316D01*
X185824700Y-57401316D02*
X185860414Y-57472744D01*
X185860414Y-57472744D02*
X185860414Y-57687030D01*
X185860414Y-57687030D02*
X185824700Y-57758458D01*
X185824700Y-57758458D02*
X185788985Y-57794173D01*
X185110414Y-57115601D02*
X185860414Y-56865601D01*
X185860414Y-56865601D02*
X185110414Y-56615601D01*
X185110414Y-56437030D02*
X185110414Y-55972744D01*
X185110414Y-55972744D02*
X185396128Y-56222744D01*
X185396128Y-56222744D02*
X185396128Y-56115601D01*
X185396128Y-56115601D02*
X185431842Y-56044173D01*
X185431842Y-56044173D02*
X185467557Y-56008458D01*
X185467557Y-56008458D02*
X185538985Y-55972744D01*
X185538985Y-55972744D02*
X185717557Y-55972744D01*
X185717557Y-55972744D02*
X185788985Y-56008458D01*
X185788985Y-56008458D02*
X185824700Y-56044173D01*
X185824700Y-56044173D02*
X185860414Y-56115601D01*
X185860414Y-56115601D02*
X185860414Y-56329887D01*
X185860414Y-56329887D02*
X185824700Y-56401315D01*
X185824700Y-56401315D02*
X185788985Y-56437030D01*
X174160414Y-57704173D02*
X174160414Y-57239887D01*
X174160414Y-57239887D02*
X174446128Y-57489887D01*
X174446128Y-57489887D02*
X174446128Y-57382744D01*
X174446128Y-57382744D02*
X174481842Y-57311316D01*
X174481842Y-57311316D02*
X174517557Y-57275601D01*
X174517557Y-57275601D02*
X174588985Y-57239887D01*
X174588985Y-57239887D02*
X174767557Y-57239887D01*
X174767557Y-57239887D02*
X174838985Y-57275601D01*
X174838985Y-57275601D02*
X174874700Y-57311316D01*
X174874700Y-57311316D02*
X174910414Y-57382744D01*
X174910414Y-57382744D02*
X174910414Y-57597030D01*
X174910414Y-57597030D02*
X174874700Y-57668458D01*
X174874700Y-57668458D02*
X174838985Y-57704173D01*
X174160414Y-57025601D02*
X174910414Y-56775601D01*
X174910414Y-56775601D02*
X174160414Y-56525601D01*
X174160414Y-56347030D02*
X174160414Y-55882744D01*
X174160414Y-55882744D02*
X174446128Y-56132744D01*
X174446128Y-56132744D02*
X174446128Y-56025601D01*
X174446128Y-56025601D02*
X174481842Y-55954173D01*
X174481842Y-55954173D02*
X174517557Y-55918458D01*
X174517557Y-55918458D02*
X174588985Y-55882744D01*
X174588985Y-55882744D02*
X174767557Y-55882744D01*
X174767557Y-55882744D02*
X174838985Y-55918458D01*
X174838985Y-55918458D02*
X174874700Y-55954173D01*
X174874700Y-55954173D02*
X174910414Y-56025601D01*
X174910414Y-56025601D02*
X174910414Y-56239887D01*
X174910414Y-56239887D02*
X174874700Y-56311315D01*
X174874700Y-56311315D02*
X174838985Y-56347030D01*
X195580414Y-51784173D02*
X195580414Y-51319887D01*
X195580414Y-51319887D02*
X195866128Y-51569887D01*
X195866128Y-51569887D02*
X195866128Y-51462744D01*
X195866128Y-51462744D02*
X195901842Y-51391316D01*
X195901842Y-51391316D02*
X195937557Y-51355601D01*
X195937557Y-51355601D02*
X196008985Y-51319887D01*
X196008985Y-51319887D02*
X196187557Y-51319887D01*
X196187557Y-51319887D02*
X196258985Y-51355601D01*
X196258985Y-51355601D02*
X196294700Y-51391316D01*
X196294700Y-51391316D02*
X196330414Y-51462744D01*
X196330414Y-51462744D02*
X196330414Y-51677030D01*
X196330414Y-51677030D02*
X196294700Y-51748458D01*
X196294700Y-51748458D02*
X196258985Y-51784173D01*
X195580414Y-51105601D02*
X196330414Y-50855601D01*
X196330414Y-50855601D02*
X195580414Y-50605601D01*
X195580414Y-50427030D02*
X195580414Y-49962744D01*
X195580414Y-49962744D02*
X195866128Y-50212744D01*
X195866128Y-50212744D02*
X195866128Y-50105601D01*
X195866128Y-50105601D02*
X195901842Y-50034173D01*
X195901842Y-50034173D02*
X195937557Y-49998458D01*
X195937557Y-49998458D02*
X196008985Y-49962744D01*
X196008985Y-49962744D02*
X196187557Y-49962744D01*
X196187557Y-49962744D02*
X196258985Y-49998458D01*
X196258985Y-49998458D02*
X196294700Y-50034173D01*
X196294700Y-50034173D02*
X196330414Y-50105601D01*
X196330414Y-50105601D02*
X196330414Y-50319887D01*
X196330414Y-50319887D02*
X196294700Y-50391315D01*
X196294700Y-50391315D02*
X196258985Y-50427030D01*
X192115826Y-50150414D02*
X192580112Y-50150414D01*
X192580112Y-50150414D02*
X192330112Y-50436128D01*
X192330112Y-50436128D02*
X192437255Y-50436128D01*
X192437255Y-50436128D02*
X192508684Y-50471842D01*
X192508684Y-50471842D02*
X192544398Y-50507557D01*
X192544398Y-50507557D02*
X192580112Y-50578985D01*
X192580112Y-50578985D02*
X192580112Y-50757557D01*
X192580112Y-50757557D02*
X192544398Y-50828985D01*
X192544398Y-50828985D02*
X192508684Y-50864700D01*
X192508684Y-50864700D02*
X192437255Y-50900414D01*
X192437255Y-50900414D02*
X192222969Y-50900414D01*
X192222969Y-50900414D02*
X192151541Y-50864700D01*
X192151541Y-50864700D02*
X192115826Y-50828985D01*
X192794398Y-50150414D02*
X193044398Y-50900414D01*
X193044398Y-50900414D02*
X193294398Y-50150414D01*
X193472969Y-50150414D02*
X193937255Y-50150414D01*
X193937255Y-50150414D02*
X193687255Y-50436128D01*
X193687255Y-50436128D02*
X193794398Y-50436128D01*
X193794398Y-50436128D02*
X193865827Y-50471842D01*
X193865827Y-50471842D02*
X193901541Y-50507557D01*
X193901541Y-50507557D02*
X193937255Y-50578985D01*
X193937255Y-50578985D02*
X193937255Y-50757557D01*
X193937255Y-50757557D02*
X193901541Y-50828985D01*
X193901541Y-50828985D02*
X193865827Y-50864700D01*
X193865827Y-50864700D02*
X193794398Y-50900414D01*
X193794398Y-50900414D02*
X193580112Y-50900414D01*
X193580112Y-50900414D02*
X193508684Y-50864700D01*
X193508684Y-50864700D02*
X193472969Y-50828985D01*
D11*
%TO.C,IC1*%
X171802000Y-79656000D02*
G75*
G02*
X169770000Y-79656000I-1016000J0D01*
G01*
X169770000Y-79656000D02*
G75*
G02*
X171802000Y-79656000I1016000J0D01*
G01*
X170151000Y-78259000D02*
G75*
G02*
X169389000Y-78259000I-381000J0D01*
G01*
X169389000Y-78259000D02*
G75*
G02*
X170151000Y-78259000I381000J0D01*
G01*
X170024000Y-78259000D02*
G75*
G02*
X169516000Y-78259000I-254000J0D01*
G01*
X169516000Y-78259000D02*
G75*
G02*
X170024000Y-78259000I254000J0D01*
G01*
X188660000Y-90720000D02*
X168660000Y-90720000D01*
X188660000Y-76720000D02*
X188660000Y-90720000D01*
X187550000Y-88800000D02*
X169770000Y-88800000D01*
X187550000Y-78640000D02*
X187550000Y-88800000D01*
X173580000Y-81180000D02*
X173580000Y-78640000D01*
X173580000Y-78640000D02*
X187550000Y-78640000D01*
X169770000Y-88800000D02*
X169770000Y-81180000D01*
X169770000Y-81180000D02*
X173580000Y-81180000D01*
X168660000Y-90720000D02*
X168660000Y-76720000D01*
X168660000Y-76720000D02*
X188660000Y-76720000D01*
D12*
%TO.C,R13*%
X190402742Y-79647500D02*
X190877258Y-79647500D01*
X190402742Y-78602500D02*
X190877258Y-78602500D01*
%TO.C,C15*%
X190489420Y-81205000D02*
X190770580Y-81205000D01*
X190489420Y-80185000D02*
X190770580Y-80185000D01*
%TO.C,R3*%
X196012500Y-82467258D02*
X196012500Y-81992742D01*
X194967500Y-82467258D02*
X194967500Y-81992742D01*
%TO.C,R1*%
X197582500Y-82467258D02*
X197582500Y-81992742D01*
X196537500Y-82467258D02*
X196537500Y-81992742D01*
%TO.C,C2*%
X200795000Y-63966919D02*
X200795000Y-64248081D01*
X199775000Y-63966919D02*
X199775000Y-64248081D01*
%TO.C,D2*%
X195220000Y-54399999D02*
X195220001Y-53240000D01*
X196030000Y-54400000D02*
X195220000Y-54399999D01*
X196840000Y-54399999D02*
X200585000Y-54399999D01*
X196840000Y-54399999D02*
X196840000Y-53906708D01*
X200585000Y-54399999D02*
X200585000Y-53557923D01*
X200585000Y-52922077D02*
X200585000Y-52080001D01*
X196840000Y-52573292D02*
X196840000Y-52080001D01*
X196840000Y-52080001D02*
X200585000Y-52080001D01*
%TO.C,TP1*%
X189850000Y-58580000D02*
G75*
G02*
X188450000Y-58580000I-700000J0D01*
G01*
X188450000Y-58580000D02*
G75*
G02*
X189850000Y-58580000I700000J0D01*
G01*
%TO.C,R8*%
X203107500Y-70442742D02*
X203107500Y-70917258D01*
X204152500Y-70442742D02*
X204152500Y-70917258D01*
%TO.C,J4*%
X169595001Y-53239999D02*
X169595001Y-54689999D01*
X169595001Y-54689999D02*
X171395001Y-54690000D01*
X176265001Y-54690000D02*
X176265001Y-55679999D01*
X176795001Y-50419999D02*
X170865001Y-50419999D01*
X178065001Y-53239999D02*
X178065001Y-54689999D01*
X178065001Y-54689999D02*
X176265001Y-54690000D01*
%TO.C,C21*%
X173669419Y-72500000D02*
X173950581Y-72500000D01*
X173669419Y-73520000D02*
X173950581Y-73520000D01*
%TO.C,C1*%
X199765000Y-67288081D02*
X199765000Y-67006919D01*
X200785000Y-67288081D02*
X200785000Y-67006919D01*
%TO.C,D1*%
X190160000Y-51164000D02*
X190160000Y-51320000D01*
X190160000Y-53480000D02*
X190160000Y-53636000D01*
X190160000Y-51164484D02*
G75*
G02*
X193391437Y-51320000I1560000J-1235516D01*
G01*
X190679039Y-51320000D02*
G75*
G02*
X192760961Y-51320000I1040961J-1080000D01*
G01*
X192760961Y-53480000D02*
G75*
G02*
X190679039Y-53480000I-1040961J1080000D01*
G01*
X193391437Y-53480000D02*
G75*
G02*
X190160000Y-53635516I-1671437J1080000D01*
G01*
%TO.C,C16*%
X189510000Y-91405581D02*
X189510000Y-91124419D01*
X190530000Y-91405581D02*
X190530000Y-91124419D01*
%TO.C,R11*%
X196582500Y-60872742D02*
X196582500Y-61347258D01*
X197627500Y-60872742D02*
X197627500Y-61347258D01*
%TO.C,C23*%
X169810001Y-58124419D02*
X169810001Y-58405581D01*
X170830001Y-58124419D02*
X170830001Y-58405581D01*
%TO.C,C13*%
X184380000Y-61835581D02*
X184380000Y-61554419D01*
X185400000Y-61835581D02*
X185400000Y-61554419D01*
%TO.C,R17*%
X169827259Y-55397500D02*
X169352743Y-55397500D01*
X169827259Y-56442500D02*
X169352743Y-56442500D01*
%TO.C,C4*%
X191515000Y-62729419D02*
X191515000Y-63010581D01*
X192535000Y-62729419D02*
X192535000Y-63010581D01*
%TO.C,C12*%
X181010000Y-64944419D02*
X181010000Y-65225581D01*
X182030000Y-64944419D02*
X182030000Y-65225581D01*
%TO.C,U3*%
X193006249Y-60578750D02*
X193056249Y-60578750D01*
X193006249Y-62398750D02*
X193006249Y-60578750D01*
X193056249Y-62398750D02*
X193006249Y-62398750D01*
X194176249Y-60578750D02*
X194956249Y-60578750D01*
X196076249Y-60578750D02*
X196126249Y-60578750D01*
X196126249Y-60578750D02*
X196126249Y-62398750D01*
X196126249Y-62398750D02*
X196076249Y-62398750D01*
X193056249Y-62938750D02*
X192726249Y-63178750D01*
X192726249Y-62698750D01*
X193056249Y-62938750D01*
G36*
X193056249Y-62938750D02*
G01*
X192726249Y-63178750D01*
X192726249Y-62698750D01*
X193056249Y-62938750D01*
G37*
%TO.C,R20*%
X195597500Y-68237258D02*
X195597500Y-67762742D01*
X196642500Y-68237258D02*
X196642500Y-67762742D01*
%TO.C,C5*%
X191515000Y-59915581D02*
X191515000Y-59634419D01*
X192535000Y-59915581D02*
X192535000Y-59634419D01*
%TO.C,R19*%
X197197500Y-67757741D02*
X197197500Y-68232257D01*
X198242500Y-67757741D02*
X198242500Y-68232257D01*
%TO.C,C20*%
X173659419Y-74050000D02*
X173940581Y-74050000D01*
X173659419Y-75070000D02*
X173940581Y-75070000D01*
%TO.C,R10*%
X201237258Y-69007500D02*
X200762742Y-69007500D01*
X201237258Y-70052500D02*
X200762742Y-70052500D01*
%TO.C,U1*%
X183477500Y-63990000D02*
X183952500Y-63990000D01*
X183477500Y-64465000D02*
X183477500Y-63990000D01*
X183477500Y-71210000D02*
X183477500Y-70735000D01*
X183952500Y-71210000D02*
X183477500Y-71210000D01*
X190222500Y-63990000D02*
X190697500Y-63990000D01*
X190697500Y-63990000D02*
X190697500Y-64465000D01*
X190697500Y-70735000D02*
X190697500Y-71210000D01*
X190697500Y-71210000D02*
X190222500Y-71210000D01*
X182947500Y-64850000D02*
X182617500Y-65090000D01*
X182617500Y-64610000D01*
X182947500Y-64850000D01*
G36*
X182947500Y-64850000D02*
G01*
X182617500Y-65090000D01*
X182617500Y-64610000D01*
X182947500Y-64850000D01*
G37*
%TO.C,R9*%
X204697500Y-70442742D02*
X204697500Y-70917258D01*
X205742500Y-70442742D02*
X205742500Y-70917258D01*
%TO.C,C14*%
X173010000Y-61640581D02*
X173010000Y-61359419D01*
X174030000Y-61640581D02*
X174030000Y-61359419D01*
%TO.C,SW2*%
X175480000Y-60130000D02*
X181280000Y-60130000D01*
X175480000Y-60430000D02*
X175480000Y-60130000D01*
X175480000Y-63270000D02*
X175480000Y-60430000D01*
X181280000Y-60130000D02*
X181280000Y-62970000D01*
X181280000Y-62970000D02*
X181280000Y-63270000D01*
X181280000Y-63270000D02*
X175480000Y-63270000D01*
%TO.C,R7*%
X200857500Y-59107742D02*
X200857500Y-59582258D01*
X201902500Y-59107742D02*
X201902500Y-59582258D01*
%TO.C,FB1*%
X189392500Y-75397742D02*
X189392500Y-75872258D01*
X190437500Y-75397742D02*
X190437500Y-75872258D01*
%TO.C,C22*%
X168135582Y-56980000D02*
X167854420Y-56980000D01*
X168135582Y-58000000D02*
X167854420Y-58000000D01*
%TO.C,R4*%
X199687500Y-82482258D02*
X199687500Y-82007742D01*
X200732500Y-82482258D02*
X200732500Y-82007742D01*
%TO.C,C8*%
X192164420Y-75950000D02*
X192445580Y-75950000D01*
X192164420Y-76970000D02*
X192445580Y-76970000D01*
%TO.C,C11*%
X191050000Y-72399419D02*
X191050000Y-72680581D01*
X192070000Y-72399419D02*
X192070000Y-72680581D01*
%TO.C,C17*%
X191120000Y-91415581D02*
X191120000Y-91134419D01*
X192140000Y-91415581D02*
X192140000Y-91134419D01*
%TO.C,C6*%
X188919420Y-72840000D02*
X189200580Y-72840000D01*
X188919420Y-73860000D02*
X189200580Y-73860000D01*
%TO.C,C7*%
X192159420Y-74340000D02*
X192440580Y-74340000D01*
X192159420Y-75360000D02*
X192440580Y-75360000D01*
%TO.C,C3*%
X207279419Y-61180000D02*
X207560581Y-61180000D01*
X207279419Y-62200000D02*
X207560581Y-62200000D01*
%TO.C,C19*%
X179230000Y-68624419D02*
X179230000Y-68905581D01*
X180250000Y-68624419D02*
X180250000Y-68905581D01*
%TO.C,R14*%
X172012742Y-70927500D02*
X172487258Y-70927500D01*
X172012742Y-71972500D02*
X172487258Y-71972500D01*
%TO.C,C18*%
X179230000Y-65655581D02*
X179230000Y-65374419D01*
X180250000Y-65655581D02*
X180250000Y-65374419D01*
%TO.C,J3*%
X164400000Y-67335000D02*
X164400000Y-73265000D01*
X167220000Y-66065000D02*
X168670000Y-66065000D01*
X167220000Y-74535000D02*
X168670000Y-74535000D01*
X168670000Y-66065000D02*
X168670001Y-67865000D01*
X168670000Y-74535000D02*
X168670001Y-72735000D01*
X168670001Y-67865000D02*
X169660000Y-67865000D01*
%TO.C,R5*%
X202477500Y-59107742D02*
X202477500Y-59582258D01*
X203522500Y-59107742D02*
X203522500Y-59582258D01*
%TO.C,R15*%
X170967500Y-73582742D02*
X170967500Y-74057258D01*
X172012500Y-73582742D02*
X172012500Y-74057258D01*
%TO.C,TP2*%
X194110000Y-72980000D02*
G75*
G02*
X192710000Y-72980000I-700000J0D01*
G01*
X192710000Y-72980000D02*
G75*
G02*
X194110000Y-72980000I700000J0D01*
G01*
%TO.C,J5*%
X179265000Y-53260000D02*
X179265000Y-54710000D01*
X179265000Y-54710000D02*
X181065000Y-54710000D01*
X185935000Y-54710000D02*
X185935000Y-55700000D01*
X186465000Y-50440000D02*
X180535000Y-50440000D01*
X187735000Y-53260000D02*
X187735000Y-54710000D01*
X187735000Y-54710000D02*
X185935000Y-54710000D01*
%TO.C,R2*%
X198117500Y-82487258D02*
X198117500Y-82012742D01*
X199162500Y-82487258D02*
X199162500Y-82012742D01*
%TO.C,R16*%
X172887259Y-56497500D02*
X172412743Y-56497500D01*
X172887259Y-57542500D02*
X172412743Y-57542500D01*
%TO.C,Y1*%
X174980000Y-64355000D02*
X174980000Y-70225000D01*
X174980000Y-70225000D02*
X178700000Y-70225000D01*
X178700000Y-70225000D02*
X178700000Y-64355000D01*
%TO.C,R12*%
X187062742Y-61927500D02*
X187537258Y-61927500D01*
X187062742Y-62972500D02*
X187537258Y-62972500D01*
%TO.C,J1*%
X193290000Y-88270000D02*
X193290000Y-90190000D01*
X193290000Y-93905000D02*
X193290000Y-92200000D01*
X202450000Y-90190000D02*
X202450000Y-88270000D01*
X202450000Y-92200000D02*
X202450000Y-93905000D01*
X202450000Y-93905000D02*
X193290000Y-93905000D01*
%TO.C,TP3*%
X201140000Y-78040000D02*
G75*
G02*
X199740000Y-78040000I-700000J0D01*
G01*
X199740000Y-78040000D02*
G75*
G02*
X201140000Y-78040000I700000J0D01*
G01*
%TO.C,C10*%
X193549420Y-65000000D02*
X193830580Y-65000000D01*
X193549420Y-66020000D02*
X193830580Y-66020000D01*
%TO.C,R18*%
X190852742Y-55087500D02*
X191327258Y-55087500D01*
X190852742Y-56132500D02*
X191327258Y-56132500D01*
%TO.C,J2*%
X201895000Y-53450000D02*
X201895000Y-54900000D01*
X201895000Y-54900000D02*
X203695000Y-54900000D01*
X206065000Y-54900000D02*
X206065000Y-55890000D01*
X206595000Y-50630001D02*
X203165000Y-50630001D01*
X207865000Y-53450000D02*
X207865000Y-54900000D01*
X207865000Y-54900000D02*
X206065000Y-54900000D01*
%TO.C,R6*%
X199237500Y-59107742D02*
X199237500Y-59582258D01*
X200282500Y-59107742D02*
X200282500Y-59582258D01*
%TO.C,U2*%
X202280000Y-63012500D02*
X203005000Y-63012500D01*
X202280000Y-63737500D02*
X202280000Y-63012500D01*
X202280000Y-67232500D02*
X202280000Y-66507500D01*
X203005000Y-67232500D02*
X202280000Y-67232500D01*
X205775000Y-63012500D02*
X206500000Y-63012500D01*
X206500000Y-63012500D02*
X206500000Y-63737500D01*
X206500000Y-66507500D02*
X206500000Y-67232500D01*
X206500000Y-67232500D02*
X205775000Y-67232500D01*
X201780000Y-64122500D02*
X201450000Y-64362500D01*
X201450000Y-63882501D01*
X201780000Y-64122500D01*
G36*
X201780000Y-64122500D02*
G01*
X201450000Y-64362500D01*
X201450000Y-63882501D01*
X201780000Y-64122500D01*
G37*
%TO.C,C9*%
X182780000Y-61845581D02*
X182780000Y-61564419D01*
X183800000Y-61845581D02*
X183800000Y-61564419D01*
%TD*%
M02*
