%TF.GenerationSoftware,KiCad,Pcbnew,9.0.7*%
%TF.CreationDate,2026-03-20T14:04:16+01:00*%
%TF.ProjectId,rc_plane_v1.0,72635f70-6c61-46e6-955f-76312e302e6b,rev?*%
%TF.SameCoordinates,Original*%
%TF.FileFunction,Copper,L1,Top*%
%TF.FilePolarity,Positive*%
%FSLAX46Y46*%
G04 Gerber Fmt 4.6, Leading zero omitted, Abs format (unit mm)*
G04 Created by KiCad (PCBNEW 9.0.7) date 2026-03-20 14:04:16*
%MOMM*%
%LPD*%
G01*
G04 APERTURE LIST*
G04 Aperture macros list*
%AMRoundRect*
0 Rectangle with rounded corners*
0 $1 Rounding radius*
0 $2 $3 $4 $5 $6 $7 $8 $9 X,Y pos of 4 corners*
0 Add a 4 corners polygon primitive as box body*
4,1,4,$2,$3,$4,$5,$6,$7,$8,$9,$2,$3,0*
0 Add four circle primitives for the rounded corners*
1,1,$1+$1,$2,$3*
1,1,$1+$1,$4,$5*
1,1,$1+$1,$6,$7*
1,1,$1+$1,$8,$9*
0 Add four rect primitives between the rounded corners*
20,1,$1+$1,$2,$3,$4,$5,0*
20,1,$1+$1,$4,$5,$6,$7,0*
20,1,$1+$1,$6,$7,$8,$9,0*
20,1,$1+$1,$8,$9,$2,$3,0*%
G04 Aperture macros list end*
%TA.AperFunction,SMDPad,CuDef*%
%ADD10R,0.800000X2.000000*%
%TD*%
%TA.AperFunction,SMDPad,CuDef*%
%ADD11RoundRect,0.200000X-0.200000X-0.275000X0.200000X-0.275000X0.200000X0.275000X-0.200000X0.275000X0*%
%TD*%
%TA.AperFunction,SMDPad,CuDef*%
%ADD12RoundRect,0.225000X-0.225000X-0.250000X0.225000X-0.250000X0.225000X0.250000X-0.225000X0.250000X0*%
%TD*%
%TA.AperFunction,SMDPad,CuDef*%
%ADD13RoundRect,0.200000X0.275000X-0.200000X0.275000X0.200000X-0.275000X0.200000X-0.275000X-0.200000X0*%
%TD*%
%TA.AperFunction,SMDPad,CuDef*%
%ADD14RoundRect,0.225000X-0.250000X0.225000X-0.250000X-0.225000X0.250000X-0.225000X0.250000X0.225000X0*%
%TD*%
%TA.AperFunction,ComponentPad*%
%ADD15R,1.000000X1.000000*%
%TD*%
%TA.AperFunction,ComponentPad*%
%ADD16C,1.000000*%
%TD*%
%TA.AperFunction,SMDPad,CuDef*%
%ADD17C,1.000000*%
%TD*%
%TA.AperFunction,SMDPad,CuDef*%
%ADD18RoundRect,0.200000X-0.275000X0.200000X-0.275000X-0.200000X0.275000X-0.200000X0.275000X0.200000X0*%
%TD*%
%TA.AperFunction,SMDPad,CuDef*%
%ADD19RoundRect,0.150000X0.150000X0.700000X-0.150000X0.700000X-0.150000X-0.700000X0.150000X-0.700000X0*%
%TD*%
%TA.AperFunction,SMDPad,CuDef*%
%ADD20RoundRect,0.250000X0.250000X1.100000X-0.250000X1.100000X-0.250000X-1.100000X0.250000X-1.100000X0*%
%TD*%
%TA.AperFunction,SMDPad,CuDef*%
%ADD21RoundRect,0.225000X0.250000X-0.225000X0.250000X0.225000X-0.250000X0.225000X-0.250000X-0.225000X0*%
%TD*%
%TA.AperFunction,ComponentPad*%
%ADD22R,1.800000X1.800000*%
%TD*%
%TA.AperFunction,ComponentPad*%
%ADD23C,1.800000*%
%TD*%
%TA.AperFunction,SMDPad,CuDef*%
%ADD24RoundRect,0.200000X0.200000X0.275000X-0.200000X0.275000X-0.200000X-0.275000X0.200000X-0.275000X0*%
%TD*%
%TA.AperFunction,SMDPad,CuDef*%
%ADD25RoundRect,0.150000X0.150000X-0.512500X0.150000X0.512500X-0.150000X0.512500X-0.150000X-0.512500X0*%
%TD*%
%TA.AperFunction,SMDPad,CuDef*%
%ADD26RoundRect,0.062500X-0.375000X-0.062500X0.375000X-0.062500X0.375000X0.062500X-0.375000X0.062500X0*%
%TD*%
%TA.AperFunction,SMDPad,CuDef*%
%ADD27RoundRect,0.062500X-0.062500X-0.375000X0.062500X-0.375000X0.062500X0.375000X-0.062500X0.375000X0*%
%TD*%
%TA.AperFunction,HeatsinkPad*%
%ADD28R,5.600000X5.600000*%
%TD*%
%TA.AperFunction,SMDPad,CuDef*%
%ADD29RoundRect,0.200000X-0.200000X-0.800000X0.200000X-0.800000X0.200000X0.800000X-0.200000X0.800000X0*%
%TD*%
%TA.AperFunction,SMDPad,CuDef*%
%ADD30RoundRect,0.225000X0.225000X0.250000X-0.225000X0.250000X-0.225000X-0.250000X0.225000X-0.250000X0*%
%TD*%
%TA.AperFunction,SMDPad,CuDef*%
%ADD31RoundRect,0.150000X-0.700000X0.150000X-0.700000X-0.150000X0.700000X-0.150000X0.700000X0.150000X0*%
%TD*%
%TA.AperFunction,SMDPad,CuDef*%
%ADD32RoundRect,0.250000X-1.100000X0.250000X-1.100000X-0.250000X1.100000X-0.250000X1.100000X0.250000X0*%
%TD*%
%TA.AperFunction,SMDPad,CuDef*%
%ADD33RoundRect,0.250000X0.950000X-0.750000X0.950000X0.750000X-0.950000X0.750000X-0.950000X-0.750000X0*%
%TD*%
%TA.AperFunction,SMDPad,CuDef*%
%ADD34R,0.600000X1.240000*%
%TD*%
%TA.AperFunction,SMDPad,CuDef*%
%ADD35R,0.300000X1.240000*%
%TD*%
%TA.AperFunction,HeatsinkPad*%
%ADD36O,1.000000X2.100000*%
%TD*%
%TA.AperFunction,HeatsinkPad*%
%ADD37O,1.000000X1.800000*%
%TD*%
%TA.AperFunction,SMDPad,CuDef*%
%ADD38RoundRect,0.062500X-0.350000X-0.062500X0.350000X-0.062500X0.350000X0.062500X-0.350000X0.062500X0*%
%TD*%
%TA.AperFunction,SMDPad,CuDef*%
%ADD39RoundRect,0.062500X-0.062500X-0.350000X0.062500X-0.350000X0.062500X0.350000X-0.062500X0.350000X0*%
%TD*%
%TA.AperFunction,HeatsinkPad*%
%ADD40R,2.500000X2.500000*%
%TD*%
%TA.AperFunction,ViaPad*%
%ADD41C,0.600000*%
%TD*%
%TA.AperFunction,Conductor*%
%ADD42C,0.203200*%
%TD*%
%TA.AperFunction,Conductor*%
%ADD43C,0.254000*%
%TD*%
%TA.AperFunction,Conductor*%
%ADD44C,0.152400*%
%TD*%
%TA.AperFunction,Conductor*%
%ADD45C,0.200000*%
%TD*%
G04 APERTURE END LIST*
D10*
%TO.P,IC1,22,GND*%
%TO.N,GND*%
X169660000Y-76720000D03*
%TO.P,IC1,21,ANT*%
%TO.N,unconnected-(IC1-ANT-Pad21)*%
X170930000Y-76720000D03*
%TO.P,IC1,20,GND*%
%TO.N,GND*%
X172200000Y-76720000D03*
%TO.P,IC1,19,NSS*%
%TO.N,/NSS*%
X177770000Y-76720000D03*
%TO.P,IC1,18,SCK*%
%TO.N,/SCK*%
X179040000Y-76720000D03*
%TO.P,IC1,17,MOSI*%
%TO.N,/MOSI*%
X180310000Y-76720000D03*
%TO.P,IC1,16,MISO*%
%TO.N,/MISO*%
X181580000Y-76720000D03*
%TO.P,IC1,15,NRST*%
%TO.N,/NRST*%
X182850000Y-76720000D03*
%TO.P,IC1,14,BUSY*%
%TO.N,/BUSY*%
X184120000Y-76720000D03*
%TO.P,IC1,13,DIO1*%
%TO.N,/DIO1*%
X185390000Y-76720000D03*
%TO.P,IC1,12,GND*%
%TO.N,GND*%
X186660000Y-76720000D03*
%TO.P,IC1,11,GND*%
X186660000Y-90720000D03*
%TO.P,IC1,10,GND*%
X185390000Y-90720000D03*
%TO.P,IC1,9,VCC*%
%TO.N,+3.3V*%
X184120000Y-90720000D03*
%TO.P,IC1,8,DIO2*%
%TO.N,unconnected-(IC1-DIO2-Pad8)*%
X182850000Y-90720000D03*
%TO.P,IC1,7,TXEN*%
%TO.N,/TXEN*%
X181580000Y-90720000D03*
%TO.P,IC1,6,RXEN*%
%TO.N,/RXEN*%
X180310000Y-90720000D03*
%TO.P,IC1,5,GND*%
%TO.N,GND*%
X179040000Y-90720000D03*
%TO.P,IC1,4,GND*%
X177770000Y-90720000D03*
%TO.P,IC1,3,GND*%
X172200000Y-90720000D03*
%TO.P,IC1,2,GND*%
X170930000Y-90720000D03*
%TO.P,IC1,1,GND*%
X169660000Y-90720000D03*
%TD*%
D11*
%TO.P,R13,2*%
%TO.N,+3.3V*%
X191465000Y-79125000D03*
%TO.P,R13,1*%
%TO.N,/NRST*%
X189815000Y-79125000D03*
%TD*%
D12*
%TO.P,C15,2*%
%TO.N,GND*%
X191405000Y-80695000D03*
%TO.P,C15,1*%
%TO.N,/NRST*%
X189855000Y-80695000D03*
%TD*%
D13*
%TO.P,R3,2*%
%TO.N,GND*%
X195490000Y-81405000D03*
%TO.P,R3,1*%
%TO.N,Net-(J1-CC1)*%
X195490000Y-83055000D03*
%TD*%
%TO.P,R1,2*%
%TO.N,Net-(U1-PA11)*%
X197060000Y-81405000D03*
%TO.P,R1,1*%
%TO.N,Net-(J1-D--PadA7)*%
X197060000Y-83055000D03*
%TD*%
D14*
%TO.P,C2,2*%
%TO.N,GND*%
X200285000Y-64882500D03*
%TO.P,C2,1*%
%TO.N,Net-(U3-VIN)*%
X200285000Y-63332500D03*
%TD*%
D15*
%TO.P,D2,1,A*%
%TO.N,+3.3V*%
X196030000Y-53240000D03*
D16*
%TO.P,D2,2,RK*%
%TO.N,Net-(D2-RK)*%
X197300001Y-53240000D03*
%TO.P,D2,3,GK*%
%TO.N,Net-(D2-GK)*%
X198570000Y-53240000D03*
%TO.P,D2,4,BK*%
%TO.N,Net-(D2-BK)*%
X199840000Y-53240000D03*
%TD*%
D17*
%TO.P,TP1,1,1*%
%TO.N,+3.3V*%
X189150000Y-58580000D03*
%TD*%
D18*
%TO.P,R8,1*%
%TO.N,Net-(U2-PROG3)*%
X203630000Y-69855000D03*
%TO.P,R8,2*%
%TO.N,GND*%
X203630000Y-71505000D03*
%TD*%
D19*
%TO.P,J4,1,Pin_1*%
%TO.N,GND*%
X175705001Y-54829999D03*
%TO.P,J4,2,Pin_2*%
%TO.N,+3.3V*%
X174455001Y-54829999D03*
%TO.P,J4,3,Pin_3*%
%TO.N,Net-(J4-Pin_3)*%
X173205001Y-54829999D03*
%TO.P,J4,4,Pin_4*%
%TO.N,Net-(J4-Pin_4)*%
X171955001Y-54829999D03*
D20*
%TO.P,J4,MP*%
%TO.N,N/C*%
X177555001Y-51629999D03*
X170105001Y-51629999D03*
%TD*%
D12*
%TO.P,C21,1*%
%TO.N,/CH2*%
X173035000Y-73010000D03*
%TO.P,C21,2*%
%TO.N,GND*%
X174585000Y-73010000D03*
%TD*%
D21*
%TO.P,C1,1*%
%TO.N,VBUS*%
X200275000Y-67922500D03*
%TO.P,C1,2*%
%TO.N,GND*%
X200275000Y-66372500D03*
%TD*%
D22*
%TO.P,D1,1,K*%
%TO.N,Net-(D1-K)*%
X190450000Y-52400000D03*
D23*
%TO.P,D1,2,A*%
%TO.N,+3.3V*%
X192990000Y-52400000D03*
%TD*%
D21*
%TO.P,C16,1*%
%TO.N,+3.3V*%
X190020000Y-92040000D03*
%TO.P,C16,2*%
%TO.N,GND*%
X190020000Y-90490000D03*
%TD*%
D18*
%TO.P,R11,1*%
%TO.N,GND*%
X197105000Y-60285000D03*
%TO.P,R11,2*%
%TO.N,Net-(U3-EN)*%
X197105000Y-61935000D03*
%TD*%
D14*
%TO.P,C23,1*%
%TO.N,/CH0*%
X170320001Y-57490000D03*
%TO.P,C23,2*%
%TO.N,GND*%
X170320001Y-59040000D03*
%TD*%
D21*
%TO.P,C13,1*%
%TO.N,+3.3V*%
X184890000Y-62470000D03*
%TO.P,C13,2*%
%TO.N,GND*%
X184890000Y-60920000D03*
%TD*%
D24*
%TO.P,R17,1*%
%TO.N,Net-(J4-Pin_3)*%
X170415001Y-55920000D03*
%TO.P,R17,2*%
%TO.N,/CH1*%
X168765001Y-55920000D03*
%TD*%
D14*
%TO.P,C4,1*%
%TO.N,Net-(U3-VIN)*%
X192025000Y-62095000D03*
%TO.P,C4,2*%
%TO.N,GND*%
X192025000Y-63645000D03*
%TD*%
%TO.P,C12,1*%
%TO.N,+3.3V*%
X181520000Y-64310000D03*
%TO.P,C12,2*%
%TO.N,GND*%
X181520000Y-65860000D03*
%TD*%
D25*
%TO.P,U3,1,VIN*%
%TO.N,Net-(U3-VIN)*%
X193616250Y-62626250D03*
%TO.P,U3,2,GND*%
%TO.N,GND*%
X194566249Y-62626250D03*
%TO.P,U3,3,EN*%
%TO.N,Net-(U3-EN)*%
X195516248Y-62626250D03*
%TO.P,U3,4,NC*%
%TO.N,unconnected-(U3-NC-Pad4)*%
X195516248Y-60351250D03*
%TO.P,U3,5,VOUT*%
%TO.N,+3.3V*%
X193616250Y-60351250D03*
%TD*%
D13*
%TO.P,R20,1*%
%TO.N,GND*%
X196120000Y-68825000D03*
%TO.P,R20,2*%
%TO.N,/ADC_BAT*%
X196120000Y-67175000D03*
%TD*%
D21*
%TO.P,C5,1*%
%TO.N,+3.3V*%
X192025000Y-60550000D03*
%TO.P,C5,2*%
%TO.N,GND*%
X192025000Y-59000000D03*
%TD*%
D18*
%TO.P,R19,1*%
%TO.N,/ADC_BAT*%
X197720000Y-67169999D03*
%TO.P,R19,2*%
%TO.N,/BAT+*%
X197720000Y-68819999D03*
%TD*%
D12*
%TO.P,C20,1*%
%TO.N,/CH3*%
X173025000Y-74560000D03*
%TO.P,C20,2*%
%TO.N,GND*%
X174575000Y-74560000D03*
%TD*%
D24*
%TO.P,R10,1*%
%TO.N,Net-(U2-THERM)*%
X201825000Y-69530000D03*
%TO.P,R10,2*%
%TO.N,GND*%
X200175000Y-69530000D03*
%TD*%
D26*
%TO.P,U1,1,VBAT*%
%TO.N,+3.3V*%
X183650000Y-64850000D03*
%TO.P,U1,2,PC13*%
%TO.N,unconnected-(U1-PC13-Pad2)*%
X183650000Y-65350000D03*
%TO.P,U1,3,PC14*%
%TO.N,unconnected-(U1-PC14-Pad3)*%
X183650000Y-65850000D03*
%TO.P,U1,4,PC15*%
%TO.N,unconnected-(U1-PC15-Pad4)*%
X183650000Y-66350000D03*
%TO.P,U1,5,PF0*%
%TO.N,Net-(U1-PF0)*%
X183650000Y-66850000D03*
%TO.P,U1,6,PF1*%
%TO.N,Net-(U1-PF1)*%
X183650000Y-67350000D03*
%TO.P,U1,7,PG10*%
%TO.N,/NRST_MCU*%
X183650000Y-67850000D03*
%TO.P,U1,8,PA0*%
%TO.N,/CH0*%
X183650000Y-68350000D03*
%TO.P,U1,9,PA1*%
%TO.N,/CH1*%
X183650000Y-68850000D03*
%TO.P,U1,10,PA2*%
%TO.N,/CH2*%
X183650000Y-69350000D03*
%TO.P,U1,11,PA3*%
%TO.N,/CH3*%
X183650000Y-69850000D03*
%TO.P,U1,12,PA4*%
%TO.N,/NSS*%
X183650000Y-70350000D03*
D27*
%TO.P,U1,13,PA5*%
%TO.N,/SCK*%
X184337500Y-71037500D03*
%TO.P,U1,14,PA6*%
%TO.N,/MISO*%
X184837500Y-71037500D03*
%TO.P,U1,15,PA7*%
%TO.N,/MOSI*%
X185337500Y-71037500D03*
%TO.P,U1,16,PC4*%
%TO.N,/BUSY*%
X185837500Y-71037500D03*
%TO.P,U1,17,PB0*%
%TO.N,/TXEN*%
X186337500Y-71037500D03*
%TO.P,U1,18,PB1*%
%TO.N,/RXEN*%
X186837500Y-71037500D03*
%TO.P,U1,19,PB2*%
%TO.N,/DIO1*%
X187337500Y-71037500D03*
%TO.P,U1,20,VREF+*%
%TO.N,+3.3VA*%
X187837500Y-71037500D03*
%TO.P,U1,21,VDDA*%
X188337500Y-71037500D03*
%TO.P,U1,22,PB10*%
%TO.N,/NRST*%
X188837500Y-71037500D03*
%TO.P,U1,23,VDD*%
%TO.N,+3.3V*%
X189337500Y-71037500D03*
%TO.P,U1,24,PB11*%
%TO.N,/LED_STAT*%
X189837500Y-71037500D03*
D26*
%TO.P,U1,25,PB12*%
%TO.N,unconnected-(U1-PB12-Pad25)*%
X190525000Y-70350000D03*
%TO.P,U1,26,PB13*%
%TO.N,unconnected-(U1-PB13-Pad26)*%
X190525000Y-69850000D03*
%TO.P,U1,27,PB14*%
%TO.N,/ADC_BAT*%
X190525000Y-69350000D03*
%TO.P,U1,28,PB15*%
%TO.N,unconnected-(U1-PB15-Pad28)*%
X190525000Y-68850000D03*
%TO.P,U1,29,PC6*%
%TO.N,unconnected-(U1-PC6-Pad29)*%
X190525000Y-68350000D03*
%TO.P,U1,30,PA8*%
%TO.N,unconnected-(U1-PA8-Pad30)*%
X190525000Y-67850000D03*
%TO.P,U1,31,PA9*%
%TO.N,unconnected-(U1-PA9-Pad31)*%
X190525000Y-67350000D03*
%TO.P,U1,32,PA10*%
%TO.N,unconnected-(U1-PA10-Pad32)*%
X190525000Y-66850000D03*
%TO.P,U1,33,PA11*%
%TO.N,Net-(U1-PA11)*%
X190525000Y-66350000D03*
%TO.P,U1,34,PA12*%
%TO.N,Net-(U1-PA12)*%
X190525000Y-65850000D03*
%TO.P,U1,35,VDD*%
%TO.N,+3.3V*%
X190525000Y-65350000D03*
%TO.P,U1,36,PA13*%
%TO.N,/SWDIO*%
X190525000Y-64850000D03*
D27*
%TO.P,U1,37,PA14*%
%TO.N,/SWCLK*%
X189837500Y-64162500D03*
%TO.P,U1,38,PA15*%
%TO.N,unconnected-(U1-PA15-Pad38)*%
X189337500Y-64162500D03*
%TO.P,U1,39,PC10*%
%TO.N,unconnected-(U1-PC10-Pad39)*%
X188837500Y-64162500D03*
%TO.P,U1,40,PC11*%
%TO.N,unconnected-(U1-PC11-Pad40)*%
X188337500Y-64162500D03*
%TO.P,U1,41,PB3*%
%TO.N,unconnected-(U1-PB3-Pad41)*%
X187837500Y-64162500D03*
%TO.P,U1,42,PB4*%
%TO.N,unconnected-(U1-PB4-Pad42)*%
X187337500Y-64162500D03*
%TO.P,U1,43,PB5*%
%TO.N,unconnected-(U1-PB5-Pad43)*%
X186837500Y-64162500D03*
%TO.P,U1,44,PB6*%
%TO.N,unconnected-(U1-PB6-Pad44)*%
X186337500Y-64162500D03*
%TO.P,U1,45,PB7*%
%TO.N,unconnected-(U1-PB7-Pad45)*%
X185837500Y-64162500D03*
%TO.P,U1,46,PB8*%
%TO.N,/BOOT0*%
X185337500Y-64162500D03*
%TO.P,U1,47,PB9*%
%TO.N,unconnected-(U1-PB9-Pad47)*%
X184837500Y-64162500D03*
%TO.P,U1,48,VDD*%
%TO.N,+3.3V*%
X184337500Y-64162500D03*
D28*
%TO.P,U1,49,VSS*%
%TO.N,GND*%
X187087500Y-67600000D03*
%TD*%
D18*
%TO.P,R9,1*%
%TO.N,Net-(U2-PROG1)*%
X205220000Y-69855000D03*
%TO.P,R9,2*%
%TO.N,GND*%
X205220000Y-71505000D03*
%TD*%
D21*
%TO.P,C14,1*%
%TO.N,/NRST_MCU*%
X173520000Y-62275000D03*
%TO.P,C14,2*%
%TO.N,GND*%
X173520000Y-60725000D03*
%TD*%
D29*
%TO.P,SW2,1,1*%
%TO.N,/NRST_MCU*%
X175080001Y-61700000D03*
%TO.P,SW2,2,2*%
%TO.N,GND*%
X181679999Y-61700000D03*
%TD*%
D18*
%TO.P,R7,1*%
%TO.N,Net-(D2-BK)*%
X201380000Y-58520000D03*
%TO.P,R7,2*%
%TO.N,Net-(U2-STAT2)*%
X201380000Y-60170000D03*
%TD*%
%TO.P,FB1,1*%
%TO.N,+3.3VA*%
X189915000Y-74810000D03*
%TO.P,FB1,2*%
%TO.N,+3.3V*%
X189915000Y-76460000D03*
%TD*%
D30*
%TO.P,C22,1*%
%TO.N,/CH1*%
X168770001Y-57490000D03*
%TO.P,C22,2*%
%TO.N,GND*%
X167220001Y-57490000D03*
%TD*%
D13*
%TO.P,R4,1*%
%TO.N,Net-(J1-CC2)*%
X200210000Y-83070000D03*
%TO.P,R4,2*%
%TO.N,GND*%
X200210000Y-81420000D03*
%TD*%
D12*
%TO.P,C8,1*%
%TO.N,+3.3V*%
X191530000Y-76460000D03*
%TO.P,C8,2*%
%TO.N,GND*%
X193080000Y-76460000D03*
%TD*%
D14*
%TO.P,C11,1*%
%TO.N,+3.3V*%
X191560000Y-71765000D03*
%TO.P,C11,2*%
%TO.N,GND*%
X191560000Y-73315000D03*
%TD*%
D21*
%TO.P,C17,1*%
%TO.N,+3.3V*%
X191630000Y-92050000D03*
%TO.P,C17,2*%
%TO.N,GND*%
X191630000Y-90500000D03*
%TD*%
D12*
%TO.P,C6,1*%
%TO.N,+3.3VA*%
X188285000Y-73350000D03*
%TO.P,C6,2*%
%TO.N,GND*%
X189835000Y-73350000D03*
%TD*%
%TO.P,C7,1*%
%TO.N,+3.3VA*%
X191525000Y-74850000D03*
%TO.P,C7,2*%
%TO.N,GND*%
X193075000Y-74850000D03*
%TD*%
%TO.P,C3,1*%
%TO.N,/BAT+*%
X206645000Y-61690000D03*
%TO.P,C3,2*%
%TO.N,GND*%
X208195000Y-61690000D03*
%TD*%
D14*
%TO.P,C19,1*%
%TO.N,Net-(U1-PF1)*%
X179740000Y-67990000D03*
%TO.P,C19,2*%
%TO.N,GND*%
X179740000Y-69540000D03*
%TD*%
D11*
%TO.P,R14,1*%
%TO.N,Net-(J3-Pin_4)*%
X171425000Y-71450000D03*
%TO.P,R14,2*%
%TO.N,/CH2*%
X173075000Y-71450000D03*
%TD*%
D21*
%TO.P,C18,1*%
%TO.N,Net-(U1-PF0)*%
X179740000Y-66290000D03*
%TO.P,C18,2*%
%TO.N,GND*%
X179740000Y-64740000D03*
%TD*%
D31*
%TO.P,J3,1,Pin_1*%
%TO.N,GND*%
X168810000Y-68425000D03*
%TO.P,J3,2,Pin_2*%
%TO.N,+3.3V*%
X168810000Y-69675000D03*
%TO.P,J3,3,Pin_3*%
%TO.N,Net-(J3-Pin_3)*%
X168810000Y-70925000D03*
%TO.P,J3,4,Pin_4*%
%TO.N,Net-(J3-Pin_4)*%
X168810000Y-72175000D03*
D32*
%TO.P,J3,MP*%
%TO.N,N/C*%
X165610000Y-66575000D03*
X165610000Y-74025000D03*
%TD*%
D18*
%TO.P,R5,1*%
%TO.N,Net-(D2-RK)*%
X203000000Y-58520000D03*
%TO.P,R5,2*%
%TO.N,Net-(U2-~{PG})*%
X203000000Y-60170000D03*
%TD*%
%TO.P,R15,1*%
%TO.N,Net-(J3-Pin_3)*%
X171490000Y-72995000D03*
%TO.P,R15,2*%
%TO.N,/CH3*%
X171490000Y-74645000D03*
%TD*%
D17*
%TO.P,TP2,1,1*%
%TO.N,+3.3VA*%
X193410000Y-72980000D03*
%TD*%
D19*
%TO.P,J5,1,Pin_1*%
%TO.N,+3.3V*%
X185375000Y-54850000D03*
%TO.P,J5,2,Pin_2*%
%TO.N,/SWDIO*%
X184125000Y-54850000D03*
%TO.P,J5,3,Pin_3*%
%TO.N,/SWCLK*%
X182875000Y-54850000D03*
%TO.P,J5,4,Pin_4*%
%TO.N,GND*%
X181625000Y-54850000D03*
D20*
%TO.P,J5,MP*%
%TO.N,N/C*%
X187225000Y-51650000D03*
X179775000Y-51650000D03*
%TD*%
D13*
%TO.P,R2,1*%
%TO.N,Net-(J1-D+-PadA6)*%
X198640000Y-83075000D03*
%TO.P,R2,2*%
%TO.N,Net-(U1-PA12)*%
X198640000Y-81425000D03*
%TD*%
D24*
%TO.P,R16,1*%
%TO.N,Net-(J4-Pin_4)*%
X173475001Y-57020000D03*
%TO.P,R16,2*%
%TO.N,/CH0*%
X171825001Y-57020000D03*
%TD*%
D33*
%TO.P,Y1,1,1*%
%TO.N,Net-(U1-PF1)*%
X176840000Y-68965000D03*
%TO.P,Y1,2,2*%
%TO.N,Net-(U1-PF0)*%
X176840000Y-65265000D03*
%TD*%
D11*
%TO.P,R12,1*%
%TO.N,/BOOT0*%
X186475000Y-62450000D03*
%TO.P,R12,2*%
%TO.N,GND*%
X188125000Y-62450000D03*
%TD*%
D34*
%TO.P,J1,A1,GND*%
%TO.N,GND*%
X194670000Y-86395000D03*
%TO.P,J1,A4,VBUS*%
%TO.N,VBUS*%
X195470000Y-86395000D03*
D35*
%TO.P,J1,A5,CC1*%
%TO.N,Net-(J1-CC1)*%
X196620000Y-86395000D03*
%TO.P,J1,A6,D+*%
%TO.N,Net-(J1-D+-PadA6)*%
X197620000Y-86395000D03*
%TO.P,J1,A7,D-*%
%TO.N,Net-(J1-D--PadA7)*%
X198120000Y-86395000D03*
%TO.P,J1,A8,SBU1*%
%TO.N,unconnected-(J1-SBU1-PadA8)*%
X199120000Y-86395000D03*
D34*
%TO.P,J1,A9,VBUS*%
%TO.N,VBUS*%
X200270000Y-86395000D03*
%TO.P,J1,A12,GND*%
%TO.N,GND*%
X201070000Y-86395000D03*
%TO.P,J1,B1,GND*%
X201070000Y-86395000D03*
%TO.P,J1,B4,VBUS*%
%TO.N,VBUS*%
X200270000Y-86395000D03*
D35*
%TO.P,J1,B5,CC2*%
%TO.N,Net-(J1-CC2)*%
X199620000Y-86395000D03*
%TO.P,J1,B6,D+*%
%TO.N,Net-(J1-D+-PadA6)*%
X198620000Y-86395000D03*
%TO.P,J1,B7,D-*%
%TO.N,Net-(J1-D--PadA7)*%
X197120000Y-86395000D03*
%TO.P,J1,B8,SBU2*%
%TO.N,unconnected-(J1-SBU2-PadB8)*%
X196120000Y-86395000D03*
D34*
%TO.P,J1,B9,VBUS*%
%TO.N,VBUS*%
X195470000Y-86395000D03*
%TO.P,J1,B12,GND*%
%TO.N,GND*%
X194670000Y-86395000D03*
D36*
%TO.P,J1,S1,SHIELD*%
X193550000Y-86995000D03*
D37*
X193550000Y-91195000D03*
D36*
X202190000Y-86995000D03*
D37*
X202190000Y-91195000D03*
%TD*%
D17*
%TO.P,TP3,1,1*%
%TO.N,VBUS*%
X200440000Y-78040000D03*
%TD*%
D12*
%TO.P,C10,1*%
%TO.N,+3.3V*%
X192915000Y-65510000D03*
%TO.P,C10,2*%
%TO.N,GND*%
X194465000Y-65510000D03*
%TD*%
D11*
%TO.P,R18,1*%
%TO.N,/LED_STAT*%
X190265000Y-55610000D03*
%TO.P,R18,2*%
%TO.N,Net-(D1-K)*%
X191915000Y-55610000D03*
%TD*%
D19*
%TO.P,J2,1,Pin_1*%
%TO.N,/BAT+*%
X205505000Y-55040000D03*
%TO.P,J2,2,Pin_2*%
%TO.N,GND*%
X204255000Y-55040000D03*
D20*
%TO.P,J2,MP*%
%TO.N,N/C*%
X207355000Y-51840000D03*
X202405000Y-51840000D03*
%TD*%
D18*
%TO.P,R6,1*%
%TO.N,Net-(D2-GK)*%
X199760000Y-58520000D03*
%TO.P,R6,2*%
%TO.N,Net-(U2-STAT1{slash}~{LBO})*%
X199760000Y-60170000D03*
%TD*%
D38*
%TO.P,U2,1,OUT*%
%TO.N,Net-(U3-VIN)*%
X202452500Y-64122500D03*
%TO.P,U2,2,VPCC*%
%TO.N,VBUS*%
X202452500Y-64622500D03*
%TO.P,U2,3,SEL*%
%TO.N,GND*%
X202452501Y-65122500D03*
%TO.P,U2,4,PROG2*%
%TO.N,VBUS*%
X202452500Y-65622500D03*
%TO.P,U2,5,THERM*%
%TO.N,Net-(U2-THERM)*%
X202452500Y-66122500D03*
D39*
%TO.P,U2,6,~{PG}*%
%TO.N,Net-(U2-~{PG})*%
X203390000Y-67060000D03*
%TO.P,U2,7,STAT2*%
%TO.N,Net-(U2-STAT2)*%
X203890000Y-67060000D03*
%TO.P,U2,8,STAT1/~{LBO}*%
%TO.N,Net-(U2-STAT1{slash}~{LBO})*%
X204390000Y-67059999D03*
%TO.P,U2,9,~{TE}*%
%TO.N,GND*%
X204890000Y-67060000D03*
%TO.P,U2,10,V_{SS}*%
X205390000Y-67060000D03*
D38*
%TO.P,U2,11,V_{SS}*%
X206327500Y-66122500D03*
%TO.P,U2,12,PROG3*%
%TO.N,Net-(U2-PROG3)*%
X206327500Y-65622500D03*
%TO.P,U2,13,PROG1*%
%TO.N,Net-(U2-PROG1)*%
X206327499Y-65122500D03*
%TO.P,U2,14,V_{BAT}*%
%TO.N,/BAT+*%
X206327500Y-64622500D03*
%TO.P,U2,15,V_{BAT}*%
X206327500Y-64122500D03*
D39*
%TO.P,U2,16,V_{BAT_SENSE}*%
X205390000Y-63185000D03*
%TO.P,U2,17,CE*%
%TO.N,VBUS*%
X204890000Y-63185000D03*
%TO.P,U2,18,IN*%
X204390000Y-63185001D03*
%TO.P,U2,19,IN*%
X203890000Y-63185000D03*
%TO.P,U2,20,OUT*%
%TO.N,Net-(U3-VIN)*%
X203390000Y-63185000D03*
D40*
%TO.P,U2,21,V_{SS}*%
%TO.N,GND*%
X204390000Y-65122500D03*
%TD*%
D21*
%TO.P,C9,1*%
%TO.N,+3.3V*%
X183290000Y-62480000D03*
%TO.P,C9,2*%
%TO.N,GND*%
X183290000Y-60930000D03*
%TD*%
D41*
%TO.N,GND*%
X199370000Y-66550000D03*
X188360000Y-66340000D03*
X176010000Y-73710000D03*
X203645000Y-65877500D03*
X174510000Y-60200000D03*
X180780000Y-65240000D03*
X185940000Y-68740000D03*
X195560000Y-65590000D03*
X199000000Y-65170000D03*
X194445000Y-81405000D03*
X184930000Y-59815000D03*
X204390000Y-65122500D03*
X173260000Y-91290000D03*
X185910000Y-66430000D03*
X201850000Y-85340000D03*
X178870000Y-70200000D03*
X166185000Y-57490000D03*
X189390000Y-67590000D03*
X175060000Y-75470000D03*
X196605338Y-69684663D03*
X180790000Y-54380000D03*
X180600000Y-61700000D03*
X193090000Y-64030000D03*
X191650000Y-89355000D03*
X187660000Y-91290000D03*
X195225647Y-63773518D03*
X199220000Y-70110000D03*
X187100000Y-69890000D03*
X205135000Y-64387500D03*
X170300000Y-60080000D03*
X187070000Y-65310000D03*
X190010000Y-89295000D03*
X187700000Y-76220000D03*
X173210000Y-76220000D03*
X168740000Y-76150000D03*
X192440000Y-80690000D03*
X190895008Y-72527410D03*
X193920000Y-85340000D03*
X197105000Y-59345001D03*
X167420000Y-68530000D03*
X205260000Y-72470000D03*
X190140000Y-72330000D03*
X200200000Y-80540000D03*
X193010000Y-59010000D03*
X194160000Y-76410000D03*
X179010000Y-64060000D03*
X176770000Y-91320000D03*
X203630000Y-72470000D03*
X204300000Y-53560000D03*
X194130000Y-74840000D03*
X184810000Y-67610000D03*
X187097500Y-67590000D03*
X188410000Y-68910000D03*
X175705001Y-53355000D03*
X183280000Y-59845000D03*
X208247198Y-60907198D03*
X189100000Y-62440000D03*
X203655000Y-64387500D03*
X205145000Y-65877500D03*
%TO.N,/NRST*%
X189050000Y-72100000D03*
X182840000Y-75170000D03*
%TO.N,Net-(D1-K)*%
X190510000Y-53820000D03*
%TO.N,/RXEN*%
X180310000Y-81670000D03*
X185850000Y-74330000D03*
%TO.N,/MOSI*%
X180847815Y-74457815D03*
X182680000Y-73393414D03*
%TO.N,/TXEN*%
X184880000Y-74220000D03*
X180875735Y-80285735D03*
%TO.N,Net-(J1-D--PadA7)*%
X197018943Y-88339000D03*
X198348943Y-88529000D03*
%TO.N,Net-(U2-~{PG})*%
X205840000Y-68671400D03*
X203300000Y-61060000D03*
%TO.N,Net-(U2-STAT1{slash}~{LBO})*%
X206332655Y-67539855D03*
X200310000Y-62200000D03*
%TO.N,Net-(U2-STAT2)*%
X206481585Y-68277371D03*
X201560000Y-61671400D03*
%TO.N,/LED_STAT*%
X192080000Y-70040000D03*
X193590000Y-67020000D03*
%TO.N,/ADC_BAT*%
X195050000Y-67680000D03*
X192610000Y-69130000D03*
%TD*%
D42*
%TO.N,+3.3V*%
X183650000Y-64850000D02*
X184337500Y-64162500D01*
D43*
X190548700Y-60838700D02*
X190400000Y-60690000D01*
X190548700Y-63949534D02*
X190548700Y-60838700D01*
X191460000Y-64860834D02*
X190548700Y-63949534D01*
X191460000Y-65350000D02*
X191460000Y-64860834D01*
X192160000Y-65350000D02*
X191460000Y-65350000D01*
D44*
%TO.N,/LED_STAT*%
X193590000Y-67020000D02*
X193594600Y-67015400D01*
X193594600Y-67015400D02*
X193594600Y-65004600D01*
X193594600Y-65004600D02*
X193149600Y-64559600D01*
X193149600Y-64559600D02*
X191815464Y-64559600D01*
X191240000Y-56585000D02*
X190265000Y-55610000D01*
X191815464Y-64559600D02*
X191240000Y-63984136D01*
X191240000Y-63984136D02*
X191240000Y-56585000D01*
%TO.N,/SWDIO*%
X184125000Y-54850000D02*
X184125000Y-55699999D01*
X184125000Y-55699999D02*
X190180000Y-61754999D01*
X190192100Y-64517100D02*
X190525000Y-64850000D01*
X190180000Y-61754999D02*
X190180000Y-63652676D01*
X190180000Y-63652676D02*
X190192100Y-63664776D01*
X190192100Y-63664776D02*
X190192100Y-64517100D01*
D43*
%TO.N,+3.3V*%
X184890000Y-62470000D02*
X183920000Y-62470000D01*
X184337500Y-64162500D02*
X184337500Y-62887500D01*
X184337500Y-62887500D02*
X183920000Y-62470000D01*
D44*
%TO.N,VBUS*%
X202452500Y-64622500D02*
X202040001Y-64622500D01*
X202040001Y-64622500D02*
X201561000Y-65101501D01*
X201561000Y-65101501D02*
X201561000Y-66085702D01*
%TO.N,GND*%
X202452501Y-65122500D02*
X204390000Y-65122500D01*
%TO.N,VBUS*%
X204390000Y-63185001D02*
X204890000Y-63185000D01*
X204390000Y-63185001D02*
X203890000Y-63185000D01*
X204390000Y-62380000D02*
X204410000Y-62360000D01*
X204390000Y-63185001D02*
X204390000Y-62380000D01*
X204890000Y-62290000D02*
X204930000Y-62250000D01*
X204890000Y-63185000D02*
X204890000Y-62290000D01*
X203890000Y-62230000D02*
X203960000Y-62160000D01*
X203890000Y-63185000D02*
X203890000Y-62230000D01*
%TO.N,/BAT+*%
X197720000Y-68819999D02*
X197720000Y-69358968D01*
X206969599Y-64937276D02*
X206800223Y-64767900D01*
X197720000Y-69358968D02*
X199141032Y-70780000D01*
X199141032Y-70780000D02*
X206452466Y-70780000D01*
X206452466Y-70780000D02*
X207820000Y-69412466D01*
X206797900Y-64767900D02*
X206645000Y-64615000D01*
X207820000Y-69412466D02*
X207820000Y-65790000D01*
X206969599Y-64939599D02*
X206969599Y-64937276D01*
X206645000Y-64615000D02*
X206645000Y-63130000D01*
X207820000Y-65790000D02*
X206969599Y-64939599D01*
X206800223Y-64767900D02*
X206797900Y-64767900D01*
%TO.N,Net-(U2-PROG1)*%
X205220000Y-69855000D02*
X205569200Y-69505800D01*
X205569200Y-69505800D02*
X206436666Y-69505800D01*
X206436666Y-69505800D02*
X207325800Y-68616666D01*
X207325800Y-68616666D02*
X207325800Y-65763333D01*
X207325800Y-65763333D02*
X206879166Y-65316700D01*
X206879166Y-65316700D02*
X206866700Y-65316700D01*
X206866700Y-65316700D02*
X206672501Y-65122501D01*
X206672501Y-65122501D02*
X206327500Y-65122501D01*
%TO.N,Net-(U2-PROG3)*%
X203630000Y-69855000D02*
X204285000Y-69200000D01*
X204285000Y-69200000D02*
X206310000Y-69200000D01*
X207020000Y-68490000D02*
X207020000Y-65890000D01*
X206310000Y-69200000D02*
X207020000Y-68490000D01*
X207020000Y-65890000D02*
X206752500Y-65622500D01*
X206752500Y-65622500D02*
X206327500Y-65622500D01*
%TO.N,Net-(U2-STAT2)*%
X206481585Y-68277371D02*
X206280014Y-68075800D01*
X206280014Y-68075800D02*
X204493301Y-68075800D01*
X204493301Y-68075800D02*
X203890000Y-67472499D01*
X203890000Y-67472499D02*
X203890000Y-67060000D01*
%TO.N,Net-(U2-~{PG})*%
X205814200Y-68568600D02*
X204486101Y-68568600D01*
X205840000Y-68594400D02*
X205814200Y-68568600D01*
X205840000Y-68671400D02*
X205840000Y-68594400D01*
X204486101Y-68568600D02*
X203390000Y-67472499D01*
X203390000Y-67472499D02*
X203390000Y-67060000D01*
%TO.N,Net-(U2-STAT1{slash}~{LBO})*%
X206332655Y-67539855D02*
X206102510Y-67770000D01*
X206102510Y-67770000D02*
X204687502Y-67770000D01*
X204687502Y-67770000D02*
X204390000Y-67472498D01*
X204390000Y-67472498D02*
X204390000Y-67059999D01*
%TO.N,/SWCLK*%
X182875000Y-54850000D02*
X182875000Y-54990992D01*
X189837500Y-61953492D02*
X189837500Y-64162500D01*
X182875000Y-54990992D02*
X189837500Y-61953492D01*
%TO.N,Net-(D1-K)*%
X191915000Y-55610000D02*
X191915000Y-55225000D01*
X191915000Y-55225000D02*
X190510000Y-53820000D01*
%TO.N,Net-(J1-CC2)*%
X199640000Y-85270000D02*
X199640000Y-86375000D01*
D45*
%TO.N,GND*%
X201090000Y-86375000D02*
X201070000Y-86395000D01*
D44*
%TO.N,Net-(J1-CC2)*%
X200210000Y-83070000D02*
X200210000Y-84700000D01*
%TO.N,Net-(J1-D+-PadA6)*%
X198640000Y-86375000D02*
X198620000Y-86395000D01*
D45*
%TO.N,GND*%
X201850000Y-85340000D02*
X201810000Y-85340000D01*
D43*
%TO.N,VBUS*%
X200290000Y-85351000D02*
X201770400Y-83870600D01*
X200270000Y-86395000D02*
X200290000Y-86375000D01*
D44*
%TO.N,Net-(J1-CC2)*%
X200210000Y-84700000D02*
X199640000Y-85270000D01*
%TO.N,Net-(J1-CC1)*%
X196600000Y-84975000D02*
X196600000Y-86185000D01*
D45*
%TO.N,GND*%
X201090000Y-86060000D02*
X201090000Y-86375000D01*
D44*
%TO.N,Net-(J1-D--PadA7)*%
X198128943Y-87019000D02*
X198128943Y-86403943D01*
%TO.N,Net-(J1-CC1)*%
X196600000Y-86185000D02*
X196620000Y-86205000D01*
D45*
%TO.N,GND*%
X194690000Y-86375000D02*
X194670000Y-86395000D01*
X193920000Y-85340000D02*
X194690000Y-86110000D01*
D44*
%TO.N,Net-(J1-CC2)*%
X199640000Y-86375000D02*
X199620000Y-86395000D01*
%TO.N,Net-(J1-D--PadA7)*%
X197060000Y-83055000D02*
X197140000Y-83135000D01*
D45*
%TO.N,GND*%
X201810000Y-85340000D02*
X201090000Y-86060000D01*
D44*
%TO.N,Net-(J1-D--PadA7)*%
X197140000Y-86375000D02*
X197120000Y-86395000D01*
%TO.N,Net-(J1-CC1)*%
X195490000Y-83865000D02*
X196600000Y-84975000D01*
%TO.N,Net-(J1-D--PadA7)*%
X198128943Y-86403943D02*
X198120000Y-86395000D01*
%TO.N,Net-(J1-D+-PadA6)*%
X198640000Y-83075000D02*
X198640000Y-86375000D01*
D45*
%TO.N,GND*%
X194690000Y-86110000D02*
X194690000Y-86375000D01*
D43*
%TO.N,VBUS*%
X200290000Y-86375000D02*
X200290000Y-85351000D01*
D44*
%TO.N,Net-(J1-CC1)*%
X196620000Y-86205000D02*
X196620000Y-86395000D01*
X195490000Y-83055000D02*
X195490000Y-83865000D01*
D43*
%TO.N,VBUS*%
X201770400Y-83870600D02*
X201770400Y-79850000D01*
D44*
%TO.N,Net-(J1-D--PadA7)*%
X197118943Y-88239000D02*
X197118943Y-86396057D01*
X197018943Y-88339000D02*
X197118943Y-88239000D01*
X197118943Y-86396057D02*
X197120000Y-86395000D01*
X197140000Y-83135000D02*
X197140000Y-86375000D01*
%TO.N,/CH3*%
X173025000Y-74560000D02*
X173729600Y-73855400D01*
X173729600Y-73855400D02*
X174994536Y-73855400D01*
X174994536Y-73855400D02*
X175699136Y-74560000D01*
X175699136Y-74560000D02*
X178587676Y-74560000D01*
X178587676Y-74560000D02*
X183297676Y-69850000D01*
X183297676Y-69850000D02*
X183650000Y-69850000D01*
%TO.N,/CH2*%
X173075000Y-71450000D02*
X173362400Y-71737400D01*
X183297676Y-69350000D02*
X183650000Y-69350000D01*
X173362400Y-71737400D02*
X180910276Y-71737400D01*
X180910276Y-71737400D02*
X183297676Y-69350000D01*
%TO.N,Net-(J3-Pin_3)*%
X168810000Y-70925000D02*
X168669008Y-70925000D01*
X168669008Y-70925000D02*
X167730400Y-71863608D01*
X167730400Y-71863608D02*
X167730400Y-72486392D01*
X167730400Y-72486392D02*
X168239008Y-72995000D01*
X168239008Y-72995000D02*
X171490000Y-72995000D01*
%TO.N,Net-(J3-Pin_4)*%
X168810000Y-72175000D02*
X170700000Y-72175000D01*
X170700000Y-72175000D02*
X171425000Y-71450000D01*
%TO.N,GND*%
X167420000Y-68530000D02*
X168705000Y-68530000D01*
X168705000Y-68530000D02*
X168810000Y-68425000D01*
%TO.N,/CH2*%
X173035000Y-71490000D02*
X173075000Y-71450000D01*
X173035000Y-73010000D02*
X173035000Y-71490000D01*
%TO.N,/CH3*%
X172940000Y-74645000D02*
X171490000Y-74645000D01*
X173025000Y-74560000D02*
X172940000Y-74645000D01*
%TO.N,GND*%
X175310000Y-73010000D02*
X174585000Y-73010000D01*
X176010000Y-73710000D02*
X175310000Y-73010000D01*
X175060000Y-75470000D02*
X174575000Y-74985000D01*
X174575000Y-74985000D02*
X174575000Y-74560000D01*
D43*
%TO.N,VBUS*%
X201770400Y-74030329D02*
X196964600Y-69224529D01*
X196964600Y-68415469D02*
X197457569Y-67922500D01*
D45*
X200775000Y-67922500D02*
X200275000Y-67922500D01*
D43*
X201770400Y-79370400D02*
X200440000Y-78040000D01*
X201770400Y-79850000D02*
X201770400Y-74030329D01*
D45*
X202452500Y-65622500D02*
X202024202Y-65622500D01*
D43*
X197457569Y-67922500D02*
X200275000Y-67922500D01*
X195470000Y-88080000D02*
X197280000Y-89890000D01*
X195470000Y-86395000D02*
X195470000Y-88080000D01*
X197280000Y-89890000D02*
X198860000Y-89890000D01*
X201770400Y-79850000D02*
X201770400Y-79370400D01*
X196964600Y-69224529D02*
X196964600Y-68415469D01*
D45*
X202024202Y-65622500D02*
X201561000Y-66085702D01*
D43*
X198860000Y-89890000D02*
X200270000Y-88480000D01*
X200270000Y-88480000D02*
X200270000Y-86395000D01*
D45*
X201561000Y-66085702D02*
X201561000Y-67136500D01*
X201561000Y-67136500D02*
X200775000Y-67922500D01*
%TO.N,GND*%
X187087500Y-67600000D02*
X187100000Y-67600000D01*
X204390000Y-65122500D02*
X204390000Y-65132500D01*
X185390000Y-90720000D02*
X187090000Y-90720000D01*
X173985000Y-60725000D02*
X174510000Y-60200000D01*
X204390000Y-65132500D02*
X203645000Y-65877500D01*
X194465000Y-65510000D02*
X194565000Y-65610000D01*
D44*
X194120000Y-74850000D02*
X194130000Y-74840000D01*
D45*
X181679999Y-61700000D02*
X180600000Y-61700000D01*
X199370000Y-66550000D02*
X199547500Y-66372500D01*
D44*
X193075000Y-74850000D02*
X194120000Y-74850000D01*
D45*
X205389999Y-67060000D02*
X205390000Y-66122500D01*
X180899999Y-65240000D02*
X181520000Y-65860001D01*
X197105000Y-60285000D02*
X197105000Y-59345001D01*
X170300000Y-60080000D02*
X170300001Y-59060000D01*
X187080000Y-67600000D02*
X185940000Y-68740000D01*
D44*
X180900000Y-54380000D02*
X180790000Y-54380000D01*
D45*
X196120000Y-69199325D02*
X196120000Y-68825000D01*
X187087500Y-67600000D02*
X187097500Y-67590000D01*
X179690000Y-64740000D02*
X179740000Y-64740000D01*
X173520000Y-60725000D02*
X173985000Y-60725000D01*
X172690000Y-90720000D02*
X173260000Y-91290000D01*
X184930000Y-59885000D02*
X184890000Y-59925000D01*
X199547500Y-66372500D02*
X200275000Y-66372500D01*
X172200000Y-90720000D02*
X172690000Y-90720000D01*
D44*
X175705000Y-54830000D02*
X175705001Y-53355000D01*
D45*
X205390000Y-66122500D02*
X204390000Y-65122500D01*
D44*
X191560000Y-73192402D02*
X191560000Y-73315000D01*
D45*
X187100000Y-67612500D02*
X187100000Y-69890000D01*
D44*
X204290000Y-53570000D02*
X204300000Y-53560000D01*
D45*
X167220001Y-57490000D02*
X166185000Y-57490000D01*
X189090000Y-62450000D02*
X189100000Y-62440000D01*
X187087500Y-67600000D02*
X187070000Y-67582500D01*
D44*
X204255000Y-53695000D02*
X204290000Y-53660000D01*
D45*
X205260000Y-72470000D02*
X205260000Y-71635000D01*
X183280000Y-59845000D02*
X183280000Y-59985000D01*
X194565000Y-65610000D02*
X195540000Y-65610000D01*
D44*
X192890000Y-59010000D02*
X193010000Y-59010000D01*
D45*
X178870000Y-70200000D02*
X179530000Y-69540000D01*
X187200000Y-76720000D02*
X187700000Y-76220000D01*
X179010000Y-64060000D02*
X179690000Y-64740000D01*
D44*
X194445000Y-81405000D02*
X194375000Y-81405000D01*
X204290000Y-53660000D02*
X204290000Y-53570000D01*
X180900000Y-54380000D02*
X181155000Y-54380000D01*
X190895008Y-72527410D02*
X191560000Y-73192402D01*
D45*
X183280000Y-59985000D02*
X183290000Y-59995000D01*
X204390000Y-65122500D02*
X205145000Y-65877500D01*
D44*
X189835000Y-73350000D02*
X189835000Y-72635000D01*
X193090000Y-64030000D02*
X192705000Y-63645000D01*
D45*
X187070000Y-67582500D02*
X187070000Y-65310000D01*
D44*
X200210000Y-80550000D02*
X200200000Y-80540000D01*
D45*
X187080000Y-67600000D02*
X185910000Y-66430000D01*
D44*
X192034999Y-59010000D02*
X192024999Y-59000000D01*
D45*
X180780000Y-65240000D02*
X180899999Y-65240000D01*
D44*
X181155000Y-54380000D02*
X181625000Y-54850000D01*
D45*
X191630000Y-89374999D02*
X191650000Y-89355000D01*
X204890000Y-65622500D02*
X204390000Y-65122500D01*
X170300001Y-59060000D02*
X170320001Y-59040001D01*
X187097500Y-67590000D02*
X189390000Y-67590000D01*
X195225647Y-63773518D02*
X194566250Y-63114121D01*
X186660000Y-76720000D02*
X187200000Y-76720000D01*
X204390000Y-65122500D02*
X203655000Y-64387500D01*
X187087500Y-67600000D02*
X184820000Y-67600000D01*
X179530000Y-69540000D02*
X179740000Y-69540000D01*
X191630000Y-90499999D02*
X191630000Y-89374999D01*
X204400000Y-65122500D02*
X205135000Y-64387500D01*
X169310000Y-76720000D02*
X168740000Y-76150000D01*
X208247198Y-61637802D02*
X208195000Y-61690000D01*
X204390000Y-65122500D02*
X204400000Y-65122500D01*
X195540000Y-65610000D02*
X195560000Y-65590000D01*
D44*
X192705000Y-63645000D02*
X192024999Y-63645000D01*
D45*
X190020001Y-90490000D02*
X190020000Y-89305000D01*
X187100000Y-67600000D02*
X188410000Y-68910000D01*
X204890000Y-67060000D02*
X204890000Y-65622500D01*
D44*
X193080000Y-76460000D02*
X194110000Y-76460000D01*
D45*
X192435000Y-80695000D02*
X192440000Y-80690000D01*
D44*
X192890000Y-59010000D02*
X192034999Y-59010000D01*
D45*
X169660000Y-90720000D02*
X172200000Y-90720000D01*
X196605338Y-69684663D02*
X196120000Y-69199325D01*
X191405000Y-80695000D02*
X192435000Y-80695000D01*
X187087500Y-67600000D02*
X187100000Y-67612500D01*
D44*
X175720001Y-53340000D02*
X175705001Y-53355000D01*
X194110000Y-76460000D02*
X194160000Y-76410000D01*
D45*
X177370000Y-90720000D02*
X176770000Y-91320000D01*
X172200000Y-76720000D02*
X172710000Y-76720000D01*
X190020000Y-89305000D02*
X190010000Y-89295000D01*
D44*
X199595000Y-70110000D02*
X200175000Y-69530000D01*
D45*
X169660000Y-76720000D02*
X169310000Y-76720000D01*
D44*
X200210000Y-81420000D02*
X200210000Y-80550000D01*
X204255000Y-55040000D02*
X204255000Y-53695000D01*
X194445000Y-81405000D02*
X194420000Y-81380000D01*
D45*
X206327500Y-66122499D02*
X205390000Y-66122500D01*
D44*
X199220000Y-70110000D02*
X199595000Y-70110000D01*
D45*
X183290000Y-59995000D02*
X183290000Y-60930000D01*
X179040000Y-90720000D02*
X177370000Y-90720000D01*
X172710000Y-76720000D02*
X173210000Y-76220000D01*
D44*
X189835000Y-72635000D02*
X190140000Y-72330000D01*
X195490000Y-81405000D02*
X194445000Y-81405000D01*
D45*
X194566250Y-63114121D02*
X194566250Y-62626249D01*
X208247198Y-60907198D02*
X208247198Y-61637802D01*
X203630000Y-72470000D02*
X203630000Y-71545000D01*
X187090000Y-90720000D02*
X187660000Y-91290000D01*
X184890000Y-59925000D02*
X184890000Y-60919999D01*
X184820000Y-67600000D02*
X184810000Y-67610000D01*
X188125000Y-62450000D02*
X189090000Y-62450000D01*
X187087500Y-67600000D02*
X187080000Y-67600000D01*
X187100000Y-67600000D02*
X188360000Y-66340000D01*
X184930000Y-59815000D02*
X184930000Y-59885000D01*
D43*
%TO.N,Net-(U3-VIN)*%
X193085000Y-62095000D02*
X192025000Y-62095000D01*
X193616250Y-62626250D02*
X193085000Y-62095000D01*
X203390000Y-63185000D02*
X202452500Y-64122500D01*
%TO.N,/BAT+*%
X206645000Y-63805000D02*
X206327500Y-64122500D01*
X206645000Y-61690000D02*
X208015000Y-60320000D01*
X206645000Y-63130000D02*
X206645000Y-63805000D01*
X206162500Y-63957500D02*
X205390000Y-63185000D01*
X206327500Y-64622500D02*
X206327500Y-64122500D01*
X206645000Y-61690000D02*
X206645000Y-63130000D01*
X206327500Y-64122500D02*
X206162500Y-63957500D01*
X208015000Y-60320000D02*
X208015000Y-57550000D01*
X208015000Y-57550000D02*
X205505000Y-55040000D01*
D42*
%TO.N,+3.3V*%
X191645000Y-71765000D02*
X192510000Y-70900000D01*
D43*
X192915000Y-65510000D02*
X192320000Y-65510000D01*
X193616250Y-60351250D02*
X192223750Y-60351250D01*
D42*
X181520000Y-64310000D02*
X183110000Y-64310000D01*
X191560000Y-71765000D02*
X189627501Y-71765000D01*
D43*
X183300000Y-62470000D02*
X183290000Y-62480000D01*
X192223750Y-60351250D02*
X192025000Y-60550000D01*
D42*
X191560000Y-71765000D02*
X191645000Y-71765000D01*
X181390000Y-64310000D02*
X180520000Y-63440000D01*
X181520000Y-64310000D02*
X181390000Y-64310000D01*
X189337500Y-71474999D02*
X189337500Y-71037500D01*
D43*
X183920000Y-62470000D02*
X183300000Y-62470000D01*
D42*
X183110000Y-64310000D02*
X183650000Y-64850000D01*
X189627501Y-71765000D02*
X189337500Y-71474999D01*
D43*
X192320000Y-65510000D02*
X192160000Y-65350000D01*
X191460000Y-65350000D02*
X190525000Y-65350000D01*
X189915000Y-76460000D02*
X191530000Y-76460000D01*
X184382000Y-92182000D02*
X184120000Y-91920000D01*
X191630000Y-92050000D02*
X191498000Y-92182000D01*
X191498000Y-92182000D02*
X184382000Y-92182000D01*
X184120000Y-91920000D02*
X184120000Y-90720000D01*
%TO.N,+3.3VA*%
X192310000Y-74080000D02*
X193410000Y-72980000D01*
X188285000Y-73350000D02*
X188285000Y-71090000D01*
X191485000Y-74810000D02*
X191525000Y-74850000D01*
X189915000Y-74810000D02*
X189745000Y-74810000D01*
X192295000Y-74080000D02*
X192310000Y-74080000D01*
X188337500Y-71037500D02*
X187837500Y-71037500D01*
X191525000Y-74850000D02*
X192295000Y-74080000D01*
X189745000Y-74810000D02*
X188285000Y-73350000D01*
X189915000Y-74810000D02*
X191485000Y-74810000D01*
X188285000Y-71090000D02*
X188337500Y-71037500D01*
D44*
%TO.N,/NRST_MCU*%
X174505001Y-62275000D02*
X175080001Y-61700000D01*
X174430000Y-63185000D02*
X174430000Y-70090000D01*
X173520000Y-62275000D02*
X174430000Y-63185000D01*
X173520000Y-62275000D02*
X174505001Y-62275000D01*
X182688768Y-67850000D02*
X183650000Y-67850000D01*
X175160000Y-70820000D02*
X179718768Y-70820000D01*
X179718768Y-70820000D02*
X182688768Y-67850000D01*
X174430000Y-70090000D02*
X175160000Y-70820000D01*
%TO.N,/NRST*%
X182840000Y-75980000D02*
X182850000Y-75990000D01*
D45*
X189855000Y-80695000D02*
X189855000Y-79165000D01*
X182850000Y-77920000D02*
X182850000Y-76720000D01*
D44*
X188837500Y-71887500D02*
X188837500Y-71037500D01*
D45*
X184055000Y-79125000D02*
X182850000Y-77920000D01*
X189855000Y-79165000D02*
X189815000Y-79125000D01*
D44*
X182850000Y-75990000D02*
X182850000Y-76720000D01*
X189050000Y-72100000D02*
X188837500Y-71887500D01*
X182840000Y-75170000D02*
X182840000Y-75980000D01*
D45*
X189815000Y-79125000D02*
X184055000Y-79125000D01*
%TO.N,Net-(U1-PF0)*%
X180300000Y-66850000D02*
X183650000Y-66850000D01*
X176840000Y-65265000D02*
X178715000Y-65265000D01*
X178715000Y-65265000D02*
X179740000Y-66290000D01*
X179740000Y-66290000D02*
X180300000Y-66850000D01*
%TO.N,Net-(U1-PF1)*%
X176840000Y-68965000D02*
X178765000Y-68965000D01*
X178765000Y-68965000D02*
X179740000Y-67990000D01*
X179740000Y-67990000D02*
X180380000Y-67350000D01*
X180380000Y-67350000D02*
X183650000Y-67350000D01*
D44*
%TO.N,/CH1*%
X169449601Y-58169600D02*
X168770001Y-57490000D01*
X182630000Y-68850000D02*
X180048400Y-71431600D01*
X183650000Y-68850000D02*
X182630000Y-68850000D01*
X171519201Y-62211668D02*
X171519201Y-59115064D01*
X173818400Y-70343333D02*
X173818400Y-64510866D01*
X180048400Y-71431600D02*
X174906667Y-71431600D01*
X174906667Y-71431600D02*
X173818400Y-70343333D01*
X171519201Y-59115064D02*
X170573737Y-58169600D01*
X170573737Y-58169600D02*
X169449601Y-58169600D01*
X173818400Y-64510866D02*
X171519201Y-62211668D01*
X168770001Y-57490000D02*
X168770001Y-55925000D01*
%TO.N,/CH0*%
X179845434Y-71125800D02*
X182681234Y-68290000D01*
X175033334Y-71125800D02*
X179845434Y-71125800D01*
X171825001Y-57020000D02*
X171825001Y-62085001D01*
X174124200Y-70216666D02*
X175033334Y-71125800D01*
X183297676Y-68350000D02*
X183650000Y-68350000D01*
X171825001Y-62085001D02*
X174124200Y-64384200D01*
X171355001Y-57490000D02*
X171825001Y-57020000D01*
X182681234Y-68290000D02*
X183237676Y-68290000D01*
X170320001Y-57490000D02*
X171355001Y-57490000D01*
X174124200Y-64384200D02*
X174124200Y-70216666D01*
X183237676Y-68290000D02*
X183297676Y-68350000D01*
D45*
%TO.N,Net-(D1-K)*%
X190510000Y-52460000D02*
X190450000Y-52400000D01*
X190510000Y-53820000D02*
X190510000Y-52460000D01*
D44*
%TO.N,Net-(D2-RK)*%
X203000000Y-58520000D02*
X202370400Y-59149600D01*
X197300000Y-57148088D02*
X197300000Y-53240000D01*
X199301512Y-59149600D02*
X197300000Y-57148088D01*
X202370400Y-59149600D02*
X199301512Y-59149600D01*
%TO.N,/SCK*%
X179040000Y-75417100D02*
X183419600Y-71037500D01*
X183419600Y-71037500D02*
X184337500Y-71037500D01*
X179040000Y-76720000D02*
X179040000Y-75417100D01*
%TO.N,/RXEN*%
X186837500Y-73342500D02*
X186837500Y-71037500D01*
X180310000Y-81670000D02*
X180310000Y-90720000D01*
X185850000Y-74330000D02*
X186837500Y-73342500D01*
%TO.N,/NSS*%
X183540000Y-70350000D02*
X183650000Y-70350000D01*
X177770000Y-76720000D02*
X177770000Y-76120000D01*
X177770000Y-76120000D02*
X183540000Y-70350000D01*
%TO.N,/BUSY*%
X184120000Y-73364200D02*
X185837500Y-71646700D01*
X184120000Y-76720000D02*
X184120000Y-73364200D01*
X185837500Y-71646700D02*
X185837500Y-71037500D01*
%TO.N,/MOSI*%
X183613571Y-72177000D02*
X184740100Y-72177000D01*
X184740100Y-72177000D02*
X185337500Y-71579600D01*
X180310000Y-74995630D02*
X180310000Y-76720000D01*
X180847815Y-74457815D02*
X180310000Y-74995630D01*
X182680000Y-73393414D02*
X182680000Y-73110571D01*
X185337500Y-71579600D02*
X185337500Y-71037500D01*
X182680000Y-73110571D02*
X183613571Y-72177000D01*
%TO.N,/DIO1*%
X185390000Y-76120000D02*
X187337500Y-74172500D01*
X185390000Y-76720000D02*
X185390000Y-76120000D01*
X187337500Y-74172500D02*
X187337500Y-71037500D01*
%TO.N,/MISO*%
X181580000Y-76720000D02*
X181580000Y-73643471D01*
X181580000Y-73643471D02*
X183447471Y-71776000D01*
X184837500Y-71512500D02*
X184837500Y-71037500D01*
X184574000Y-71776000D02*
X184837500Y-71512500D01*
X183447471Y-71776000D02*
X184574000Y-71776000D01*
%TO.N,/TXEN*%
X180875735Y-80285735D02*
X180875735Y-81015735D01*
X180875735Y-81015735D02*
X181580000Y-81720000D01*
X184880000Y-74220000D02*
X186337500Y-72762500D01*
X181580000Y-81720000D02*
X181580000Y-90720000D01*
X186337500Y-72762500D02*
X186337500Y-71037500D01*
%TO.N,Net-(J1-D+-PadA6)*%
X197620000Y-86395000D02*
X197598943Y-86416057D01*
X198080000Y-89300000D02*
X198577886Y-89300000D01*
X197598943Y-88818943D02*
X198080000Y-89300000D01*
X198598943Y-86416057D02*
X198620000Y-86395000D01*
X197598943Y-86416057D02*
X197598943Y-88818943D01*
X198968943Y-88908943D02*
X198968943Y-88255000D01*
X198968943Y-88255000D02*
X198598943Y-87885000D01*
X198598943Y-87885000D02*
X198598943Y-86416057D01*
X198577886Y-89300000D02*
X198968943Y-88908943D01*
%TO.N,Net-(J1-D--PadA7)*%
X198348943Y-88529000D02*
X198348943Y-88179000D01*
X198128943Y-87959000D02*
X198128943Y-87019000D01*
X198128943Y-87019000D02*
X198118943Y-87009000D01*
X198348943Y-88179000D02*
X198128943Y-87959000D01*
%TO.N,Net-(J4-Pin_3)*%
X172975400Y-53750399D02*
X173205001Y-53980001D01*
X170415001Y-55920000D02*
X170415001Y-54979008D01*
X173205001Y-53980001D02*
X173205001Y-54829999D01*
X170415001Y-54979008D02*
X171643609Y-53750400D01*
X171643609Y-53750400D02*
X172975400Y-53750399D01*
%TO.N,Net-(J4-Pin_4)*%
X173475001Y-57020000D02*
X171955000Y-55500000D01*
X171955000Y-55500000D02*
X171955001Y-54830000D01*
%TO.N,/SWCLK*%
X182875000Y-54850000D02*
X182875000Y-55466032D01*
%TO.N,Net-(U1-PA11)*%
X190944642Y-66350000D02*
X197060000Y-72465358D01*
X197060000Y-72465358D02*
X197060000Y-81405000D01*
X190525000Y-66350000D02*
X190944642Y-66350000D01*
%TO.N,Net-(U1-PA12)*%
X197413400Y-80198400D02*
X198640000Y-81425000D01*
X197240000Y-72145574D02*
X197413400Y-72318974D01*
X190525000Y-65850000D02*
X190944642Y-65850000D01*
X197240000Y-72145358D02*
X197240000Y-72145574D01*
X197413400Y-72318974D02*
X197413400Y-80198400D01*
X190944642Y-65850000D02*
X197240000Y-72145358D01*
%TO.N,Net-(U2-~{PG})*%
X203300000Y-61060000D02*
X203070000Y-60830000D01*
X203070000Y-60830000D02*
X203070000Y-60240000D01*
X203070000Y-60240000D02*
X203000000Y-60170000D01*
%TO.N,Net-(U2-STAT1{slash}~{LBO})*%
X199760000Y-61650000D02*
X199760000Y-60170000D01*
X200310000Y-62200000D02*
X199760000Y-61650000D01*
%TO.N,Net-(U2-STAT2)*%
X201560000Y-61671400D02*
X201560000Y-61581400D01*
X201560000Y-61581400D02*
X201380000Y-61401400D01*
X201380000Y-61401400D02*
X201380000Y-60170000D01*
%TO.N,Net-(U2-THERM)*%
X202452500Y-68565000D02*
X202452500Y-66122500D01*
X201825000Y-69192500D02*
X202452500Y-68565000D01*
X201825000Y-69530000D02*
X201825000Y-69192500D01*
%TO.N,Net-(U3-EN)*%
X197105000Y-61935000D02*
X196207500Y-61935000D01*
X196207500Y-61935000D02*
X195516250Y-62626250D01*
D45*
%TO.N,/BOOT0*%
X185337500Y-64162500D02*
X185337500Y-63587500D01*
D44*
X185337500Y-63587500D02*
X186475000Y-62450000D01*
%TO.N,/LED_STAT*%
X190075000Y-70800000D02*
X189837500Y-71037500D01*
X191440000Y-70800000D02*
X190075000Y-70800000D01*
X192080000Y-70040000D02*
X192080000Y-70160000D01*
X192080000Y-70160000D02*
X191440000Y-70800000D01*
D45*
%TO.N,/ADC_BAT*%
X195555000Y-67175000D02*
X196120000Y-67175000D01*
X192610000Y-69130000D02*
X192390000Y-69350000D01*
X196125000Y-67170000D02*
X196120000Y-67175000D01*
X195050000Y-67680000D02*
X195555000Y-67175000D01*
X192390000Y-69350000D02*
X190525000Y-69350000D01*
X197720000Y-67169999D02*
X196125000Y-67170000D01*
D44*
%TO.N,Net-(D2-BK)*%
X199840000Y-56980000D02*
X201380000Y-58520000D01*
X199840000Y-53240000D02*
X199840000Y-56980000D01*
%TO.N,Net-(D2-GK)*%
X198570000Y-57330000D02*
X198570000Y-53240000D01*
X199760000Y-58520000D02*
X198570000Y-57330000D01*
D45*
%TO.N,GND*%
X199000000Y-65170000D02*
X199360000Y-65170000D01*
X199647500Y-64882500D02*
X200285000Y-64882500D01*
D43*
%TO.N,Net-(U3-VIN)*%
X193616250Y-62626250D02*
X193616250Y-63456250D01*
X200285000Y-63332500D02*
X201075000Y-64122500D01*
X193616250Y-63456250D02*
X194620000Y-64460000D01*
X194620000Y-64460000D02*
X198682500Y-64460000D01*
X198682500Y-64460000D02*
X199810000Y-63332500D01*
X199810000Y-63332500D02*
X200285000Y-63332500D01*
X201075000Y-64122500D02*
X202452500Y-64122500D01*
D45*
%TO.N,GND*%
X199360000Y-65170000D02*
X199647500Y-64882500D01*
%TD*%
%TA.AperFunction,Conductor*%
%TO.N,+3.3V*%
G36*
X197845792Y-49520185D02*
G01*
X197891547Y-49572989D01*
X197902740Y-49626323D01*
X197886726Y-50715741D01*
X197866285Y-52106252D01*
X197866285Y-52106259D01*
X197875132Y-52198056D01*
X197861969Y-52266675D01*
X197813798Y-52317284D01*
X197745912Y-52333816D01*
X197704252Y-52324512D01*
X197591840Y-52277950D01*
X197591830Y-52277947D01*
X197398544Y-52239500D01*
X197398542Y-52239500D01*
X197201460Y-52239500D01*
X197201458Y-52239500D01*
X197008172Y-52277947D01*
X197008169Y-52277948D01*
X197008167Y-52277948D01*
X197008166Y-52277949D01*
X196970419Y-52293584D01*
X196905338Y-52320541D01*
X196835869Y-52328009D01*
X196783577Y-52305246D01*
X196772093Y-52296649D01*
X196772086Y-52296645D01*
X196637379Y-52246403D01*
X196637372Y-52246401D01*
X196577844Y-52240000D01*
X196280000Y-52240000D01*
X196280000Y-53030382D01*
X196229554Y-52979936D01*
X196155445Y-52937149D01*
X196072787Y-52915000D01*
X195987213Y-52915000D01*
X195904555Y-52937149D01*
X195830446Y-52979936D01*
X195769936Y-53040446D01*
X195727149Y-53114555D01*
X195705000Y-53197213D01*
X195705000Y-53282787D01*
X195727149Y-53365445D01*
X195769936Y-53439554D01*
X195830446Y-53500064D01*
X195904555Y-53542851D01*
X195987213Y-53565000D01*
X196072787Y-53565000D01*
X196155445Y-53542851D01*
X196229554Y-53500064D01*
X196280000Y-53449618D01*
X196280000Y-54240000D01*
X196577828Y-54240000D01*
X196577831Y-54239999D01*
X196586039Y-54239117D01*
X196654799Y-54251519D01*
X196705939Y-54299127D01*
X196723300Y-54362406D01*
X196723300Y-57072164D01*
X196723300Y-57224012D01*
X196757491Y-57351616D01*
X196762602Y-57370688D01*
X196762602Y-57370689D01*
X196838522Y-57502186D01*
X196838527Y-57502192D01*
X197949686Y-58613351D01*
X197952320Y-58618176D01*
X197956901Y-58621216D01*
X197968884Y-58648510D01*
X197983171Y-58674674D01*
X197982778Y-58680157D01*
X197984989Y-58685191D01*
X197980313Y-58714631D01*
X197978187Y-58744366D01*
X197974663Y-58750205D01*
X197974030Y-58754196D01*
X197954514Y-58783603D01*
X197910402Y-58833024D01*
X197851075Y-58869931D01*
X197781213Y-58868904D01*
X197730212Y-58838134D01*
X197615292Y-58723214D01*
X197615288Y-58723211D01*
X197484185Y-58635610D01*
X197484172Y-58635603D01*
X197338501Y-58575265D01*
X197338489Y-58575262D01*
X197183845Y-58544501D01*
X197183842Y-58544501D01*
X197026158Y-58544501D01*
X197026155Y-58544501D01*
X196871510Y-58575262D01*
X196871498Y-58575265D01*
X196725827Y-58635603D01*
X196725814Y-58635610D01*
X196594711Y-58723211D01*
X196594707Y-58723214D01*
X196483213Y-58834708D01*
X196483210Y-58834712D01*
X196395609Y-58965815D01*
X196395602Y-58965828D01*
X196335264Y-59111499D01*
X196335261Y-59111511D01*
X196304499Y-59266159D01*
X196304114Y-59270068D01*
X196303341Y-59271981D01*
X196303311Y-59272133D01*
X196303282Y-59272127D01*
X196277949Y-59334853D01*
X196220911Y-59375208D01*
X196151111Y-59378320D01*
X196093031Y-59345586D01*
X196068118Y-59320673D01*
X196068110Y-59320667D01*
X195975941Y-59266159D01*
X195926646Y-59237006D01*
X195926645Y-59237005D01*
X195926644Y-59237005D01*
X195926641Y-59237004D01*
X195768821Y-59191152D01*
X195768815Y-59191151D01*
X195731949Y-59188250D01*
X195731942Y-59188250D01*
X195300554Y-59188250D01*
X195300546Y-59188250D01*
X195263680Y-59191151D01*
X195263674Y-59191152D01*
X195105854Y-59237004D01*
X195105851Y-59237005D01*
X194964385Y-59320667D01*
X194964377Y-59320673D01*
X194848171Y-59436879D01*
X194848165Y-59436887D01*
X194764503Y-59578353D01*
X194764502Y-59578356D01*
X194718650Y-59736176D01*
X194718649Y-59736182D01*
X194715748Y-59773048D01*
X194715748Y-60929451D01*
X194718649Y-60966317D01*
X194718650Y-60966323D01*
X194764502Y-61124143D01*
X194764503Y-61124146D01*
X194852138Y-61272330D01*
X194850319Y-61273405D01*
X194871867Y-61328282D01*
X194858189Y-61396800D01*
X194809639Y-61447046D01*
X194748353Y-61463250D01*
X194383508Y-61463250D01*
X194316469Y-61443565D01*
X194270714Y-61390761D01*
X194260770Y-61321603D01*
X194281435Y-61272892D01*
X194279962Y-61272021D01*
X194367532Y-61123946D01*
X194367533Y-61123943D01*
X194413349Y-60966245D01*
X194413350Y-60966239D01*
X194416249Y-60929399D01*
X194416250Y-60929384D01*
X194416250Y-60601250D01*
X193130000Y-60601250D01*
X193130000Y-60676000D01*
X193110315Y-60743039D01*
X193057511Y-60788794D01*
X193006000Y-60800000D01*
X192149000Y-60800000D01*
X192081961Y-60780315D01*
X192036206Y-60727511D01*
X192025000Y-60676000D01*
X192025000Y-60424000D01*
X192044685Y-60356961D01*
X192097489Y-60311206D01*
X192149000Y-60300000D01*
X192686250Y-60300000D01*
X192686250Y-60225250D01*
X192705935Y-60158211D01*
X192758739Y-60112456D01*
X192810250Y-60101250D01*
X194416250Y-60101250D01*
X194416250Y-59773115D01*
X194416249Y-59773100D01*
X194413350Y-59736260D01*
X194413349Y-59736254D01*
X194367533Y-59578556D01*
X194367532Y-59578553D01*
X194283935Y-59437197D01*
X194283928Y-59437188D01*
X194167811Y-59321071D01*
X194167802Y-59321064D01*
X194026446Y-59237467D01*
X194026443Y-59237466D01*
X193899905Y-59200703D01*
X193841019Y-59163097D01*
X193811813Y-59099624D01*
X193810500Y-59081627D01*
X193810500Y-58931155D01*
X193810499Y-58931153D01*
X193800736Y-58882073D01*
X193779737Y-58776503D01*
X193761634Y-58732798D01*
X193719397Y-58630827D01*
X193719390Y-58630814D01*
X193631789Y-58499711D01*
X193631786Y-58499707D01*
X193520292Y-58388213D01*
X193520288Y-58388210D01*
X193389185Y-58300609D01*
X193389172Y-58300602D01*
X193243501Y-58240264D01*
X193243489Y-58240261D01*
X193088845Y-58209500D01*
X193088842Y-58209500D01*
X192931158Y-58209500D01*
X192832588Y-58229106D01*
X192762997Y-58222877D01*
X192731490Y-58204757D01*
X192728047Y-58202035D01*
X192728044Y-58202032D01*
X192728038Y-58202028D01*
X192583705Y-58113001D01*
X192583699Y-58112998D01*
X192583697Y-58112997D01*
X192583694Y-58112996D01*
X192422709Y-58059651D01*
X192323352Y-58049500D01*
X192323345Y-58049500D01*
X191940700Y-58049500D01*
X191873661Y-58029815D01*
X191827906Y-57977011D01*
X191816700Y-57925500D01*
X191816700Y-56709500D01*
X191836385Y-56642461D01*
X191889189Y-56596706D01*
X191940700Y-56585500D01*
X192171613Y-56585500D01*
X192171616Y-56585500D01*
X192242196Y-56579086D01*
X192404606Y-56528478D01*
X192550185Y-56440472D01*
X192670472Y-56320185D01*
X192758478Y-56174606D01*
X192809086Y-56012196D01*
X192815500Y-55941616D01*
X192815500Y-55278384D01*
X192809086Y-55207804D01*
X192758478Y-55045394D01*
X192670472Y-54899815D01*
X192670470Y-54899813D01*
X192670469Y-54899811D01*
X192550188Y-54779530D01*
X192516533Y-54759185D01*
X192404606Y-54691522D01*
X192242196Y-54640914D01*
X192217343Y-54638655D01*
X192181634Y-54635410D01*
X192116652Y-54609738D01*
X192105177Y-54599600D01*
X191478974Y-53973397D01*
X191445489Y-53912074D01*
X191450473Y-53842382D01*
X191492345Y-53786449D01*
X191523315Y-53769537D01*
X191592331Y-53743796D01*
X191707546Y-53657546D01*
X191793796Y-53542331D01*
X191810435Y-53497720D01*
X191824327Y-53460474D01*
X191834259Y-53433844D01*
X191844091Y-53407483D01*
X191850500Y-53347873D01*
X191850499Y-53237304D01*
X191870183Y-53170268D01*
X191886818Y-53149626D01*
X192547861Y-52488584D01*
X192570667Y-52573694D01*
X192629910Y-52676306D01*
X192713694Y-52760090D01*
X192816306Y-52819333D01*
X192901414Y-52842137D01*
X192192485Y-53551065D01*
X192192485Y-53551066D01*
X192256243Y-53597388D01*
X192452589Y-53697432D01*
X192662164Y-53765526D01*
X192879819Y-53800000D01*
X193100181Y-53800000D01*
X193176929Y-53787844D01*
X195030000Y-53787844D01*
X195036401Y-53847372D01*
X195036403Y-53847379D01*
X195086645Y-53982086D01*
X195086649Y-53982093D01*
X195172809Y-54097187D01*
X195172812Y-54097190D01*
X195287906Y-54183350D01*
X195287913Y-54183354D01*
X195422620Y-54233596D01*
X195422627Y-54233598D01*
X195482155Y-54239999D01*
X195482172Y-54240000D01*
X195780000Y-54240000D01*
X195780000Y-53490000D01*
X195030000Y-53490000D01*
X195030000Y-53787844D01*
X193176929Y-53787844D01*
X193317835Y-53765526D01*
X193527410Y-53697432D01*
X193723760Y-53597386D01*
X193787513Y-53551066D01*
X193787514Y-53551066D01*
X193762767Y-53526319D01*
X193078585Y-52842138D01*
X193163694Y-52819333D01*
X193266306Y-52760090D01*
X193350090Y-52676306D01*
X193409333Y-52573694D01*
X193432138Y-52488585D01*
X194141066Y-53197514D01*
X194141066Y-53197513D01*
X194187386Y-53133760D01*
X194287432Y-52937410D01*
X194355526Y-52727835D01*
X194361178Y-52692155D01*
X195030000Y-52692155D01*
X195030000Y-52990000D01*
X195780000Y-52990000D01*
X195780000Y-52240000D01*
X195482155Y-52240000D01*
X195422627Y-52246401D01*
X195422620Y-52246403D01*
X195287913Y-52296645D01*
X195287906Y-52296649D01*
X195172812Y-52382809D01*
X195172809Y-52382812D01*
X195086649Y-52497906D01*
X195086645Y-52497913D01*
X195036403Y-52632620D01*
X195036401Y-52632627D01*
X195030000Y-52692155D01*
X194361178Y-52692155D01*
X194364774Y-52669453D01*
X194390000Y-52510181D01*
X194390000Y-52289818D01*
X194355526Y-52072164D01*
X194287432Y-51862589D01*
X194187388Y-51666243D01*
X194141066Y-51602485D01*
X194141065Y-51602485D01*
X193432137Y-52311413D01*
X193409333Y-52226306D01*
X193350090Y-52123694D01*
X193266306Y-52039910D01*
X193163694Y-51980667D01*
X193078583Y-51957861D01*
X193787513Y-51248932D01*
X193723756Y-51202611D01*
X193527410Y-51102567D01*
X193317835Y-51034473D01*
X193100181Y-51000000D01*
X192879819Y-51000000D01*
X192662164Y-51034473D01*
X192452589Y-51102567D01*
X192256233Y-51202616D01*
X192192485Y-51248931D01*
X192192485Y-51248932D01*
X192901414Y-51957861D01*
X192816306Y-51980667D01*
X192713694Y-52039910D01*
X192629910Y-52123694D01*
X192570667Y-52226306D01*
X192547861Y-52311414D01*
X191886818Y-51650371D01*
X191853333Y-51589048D01*
X191850499Y-51562690D01*
X191850499Y-51452129D01*
X191850498Y-51452123D01*
X191850497Y-51452116D01*
X191844091Y-51392517D01*
X191806669Y-51292184D01*
X191793797Y-51257671D01*
X191793793Y-51257664D01*
X191707547Y-51142455D01*
X191707544Y-51142452D01*
X191592335Y-51056206D01*
X191592328Y-51056202D01*
X191457482Y-51005908D01*
X191457483Y-51005908D01*
X191397883Y-50999501D01*
X191397881Y-50999500D01*
X191397873Y-50999500D01*
X191397864Y-50999500D01*
X189502129Y-50999500D01*
X189502123Y-50999501D01*
X189442516Y-51005908D01*
X189307671Y-51056202D01*
X189307664Y-51056206D01*
X189192455Y-51142452D01*
X189192452Y-51142455D01*
X189106206Y-51257664D01*
X189106202Y-51257671D01*
X189055908Y-51392517D01*
X189049501Y-51452116D01*
X189049501Y-51452123D01*
X189049500Y-51452135D01*
X189049500Y-53347870D01*
X189049501Y-53347876D01*
X189055908Y-53407483D01*
X189106202Y-53542328D01*
X189106206Y-53542335D01*
X189192452Y-53657544D01*
X189192455Y-53657547D01*
X189307664Y-53743793D01*
X189307671Y-53743797D01*
X189343910Y-53757313D01*
X189442517Y-53794091D01*
X189502127Y-53800500D01*
X189588174Y-53800499D01*
X189655212Y-53820183D01*
X189700968Y-53872986D01*
X189709791Y-53900308D01*
X189740261Y-54053489D01*
X189740264Y-54053501D01*
X189800602Y-54199172D01*
X189800609Y-54199185D01*
X189888210Y-54330288D01*
X189888213Y-54330292D01*
X189991777Y-54433856D01*
X190025262Y-54495179D01*
X190020278Y-54564871D01*
X189978406Y-54620804D01*
X189940986Y-54639923D01*
X189937806Y-54640913D01*
X189937804Y-54640914D01*
X189836583Y-54672454D01*
X189775393Y-54691522D01*
X189629811Y-54779530D01*
X189509530Y-54899811D01*
X189421522Y-55045393D01*
X189370913Y-55207807D01*
X189369338Y-55225146D01*
X189364500Y-55278384D01*
X189364500Y-55941616D01*
X189365432Y-55951870D01*
X189370913Y-56012192D01*
X189370913Y-56012194D01*
X189370914Y-56012196D01*
X189388694Y-56069255D01*
X189421522Y-56174606D01*
X189509530Y-56320188D01*
X189629811Y-56440469D01*
X189629813Y-56440470D01*
X189629815Y-56440472D01*
X189775394Y-56528478D01*
X189937804Y-56579086D01*
X190008384Y-56585500D01*
X190373561Y-56585500D01*
X190403001Y-56594144D01*
X190432988Y-56600668D01*
X190438003Y-56604422D01*
X190440600Y-56605185D01*
X190461242Y-56621819D01*
X190626981Y-56787558D01*
X190660466Y-56848881D01*
X190663300Y-56875239D01*
X190663300Y-61123360D01*
X190643615Y-61190399D01*
X190590811Y-61236154D01*
X190521653Y-61246098D01*
X190458097Y-61217073D01*
X190451619Y-61211041D01*
X189032259Y-59791681D01*
X188998774Y-59730358D01*
X189003758Y-59660666D01*
X189045630Y-59604733D01*
X189111094Y-59580316D01*
X189119940Y-59580000D01*
X189248492Y-59580000D01*
X189248495Y-59579999D01*
X189441681Y-59541572D01*
X189441693Y-59541569D01*
X189623676Y-59466190D01*
X189623680Y-59466187D01*
X189659019Y-59442573D01*
X189659020Y-59442572D01*
X188973223Y-58756777D01*
X188832765Y-58616319D01*
X188796445Y-58579999D01*
X189503553Y-58579999D01*
X189503553Y-58580000D01*
X190012572Y-59089020D01*
X190012573Y-59089019D01*
X190036187Y-59053680D01*
X190036190Y-59053676D01*
X190111569Y-58871693D01*
X190111572Y-58871681D01*
X190149999Y-58678495D01*
X190150000Y-58678492D01*
X190150000Y-58481508D01*
X190149999Y-58481504D01*
X190111572Y-58288318D01*
X190111569Y-58288306D01*
X190036192Y-58106328D01*
X190012572Y-58070979D01*
X189503553Y-58579999D01*
X188796445Y-58579999D01*
X188287426Y-58070978D01*
X188287426Y-58070979D01*
X188263813Y-58106318D01*
X188263809Y-58106325D01*
X188188429Y-58288310D01*
X188188427Y-58288318D01*
X188150000Y-58481504D01*
X188150000Y-58610060D01*
X188130315Y-58677099D01*
X188077511Y-58722854D01*
X188008353Y-58732798D01*
X187944797Y-58703773D01*
X187938319Y-58697741D01*
X186958004Y-57717426D01*
X188640978Y-57717426D01*
X189150000Y-58226446D01*
X189150001Y-58226446D01*
X189659020Y-57717426D01*
X189623675Y-57693809D01*
X189623673Y-57693808D01*
X189441693Y-57618430D01*
X189441681Y-57618427D01*
X189248495Y-57580000D01*
X189051504Y-57580000D01*
X188858318Y-57618427D01*
X188858310Y-57618429D01*
X188676325Y-57693809D01*
X188676318Y-57693813D01*
X188640979Y-57717426D01*
X188640978Y-57717426D01*
X186958004Y-57717426D01*
X185628670Y-56388092D01*
X185595185Y-56326769D01*
X185600169Y-56257077D01*
X185642041Y-56201144D01*
X185681756Y-56181334D01*
X185785198Y-56151281D01*
X185926552Y-56067685D01*
X185926561Y-56067678D01*
X186042678Y-55951561D01*
X186042685Y-55951552D01*
X186126282Y-55810196D01*
X186126283Y-55810193D01*
X186172099Y-55652495D01*
X186172100Y-55652489D01*
X186174999Y-55615649D01*
X186175000Y-55615634D01*
X186175000Y-55100000D01*
X185499000Y-55100000D01*
X185431961Y-55080315D01*
X185386206Y-55027511D01*
X185375000Y-54976000D01*
X185375000Y-54850000D01*
X185249000Y-54850000D01*
X185181961Y-54830315D01*
X185136206Y-54777511D01*
X185125000Y-54726000D01*
X185125000Y-54600000D01*
X185625000Y-54600000D01*
X186175000Y-54600000D01*
X186175000Y-54084365D01*
X186174999Y-54084350D01*
X186172100Y-54047510D01*
X186172099Y-54047504D01*
X186126283Y-53889806D01*
X186126282Y-53889803D01*
X186042685Y-53748447D01*
X186042678Y-53748438D01*
X185926561Y-53632321D01*
X185926552Y-53632314D01*
X185785196Y-53548717D01*
X185785193Y-53548716D01*
X185627494Y-53502900D01*
X185627497Y-53502900D01*
X185625000Y-53502703D01*
X185625000Y-54600000D01*
X185125000Y-54600000D01*
X185125000Y-53502703D01*
X185122503Y-53502900D01*
X184964806Y-53548716D01*
X184964803Y-53548717D01*
X184816729Y-53636288D01*
X184815544Y-53634285D01*
X184761355Y-53655551D01*
X184692840Y-53641860D01*
X184683211Y-53635671D01*
X184540148Y-53551065D01*
X184535398Y-53548256D01*
X184535397Y-53548255D01*
X184535396Y-53548255D01*
X184535393Y-53548254D01*
X184377573Y-53502402D01*
X184377567Y-53502401D01*
X184340701Y-53499500D01*
X184340694Y-53499500D01*
X183909306Y-53499500D01*
X183909298Y-53499500D01*
X183872432Y-53502401D01*
X183872426Y-53502402D01*
X183714606Y-53548254D01*
X183714603Y-53548255D01*
X183566420Y-53635890D01*
X183565254Y-53633919D01*
X183510942Y-53655232D01*
X183442427Y-53641540D01*
X183433595Y-53635864D01*
X183433580Y-53635890D01*
X183338229Y-53579500D01*
X183285398Y-53548256D01*
X183285397Y-53548255D01*
X183285396Y-53548255D01*
X183285393Y-53548254D01*
X183127573Y-53502402D01*
X183127567Y-53502401D01*
X183090701Y-53499500D01*
X183090694Y-53499500D01*
X182659306Y-53499500D01*
X182659298Y-53499500D01*
X182622432Y-53502401D01*
X182622426Y-53502402D01*
X182464606Y-53548254D01*
X182464603Y-53548255D01*
X182316420Y-53635890D01*
X182315254Y-53633919D01*
X182260942Y-53655232D01*
X182192427Y-53641540D01*
X182183595Y-53635864D01*
X182183580Y-53635890D01*
X182088229Y-53579500D01*
X182035398Y-53548256D01*
X182035397Y-53548255D01*
X182035396Y-53548255D01*
X182035393Y-53548254D01*
X181877573Y-53502402D01*
X181877567Y-53502401D01*
X181840701Y-53499500D01*
X181840694Y-53499500D01*
X181409306Y-53499500D01*
X181409298Y-53499500D01*
X181372432Y-53502401D01*
X181372426Y-53502402D01*
X181214606Y-53548254D01*
X181214605Y-53548254D01*
X181127444Y-53599800D01*
X181059719Y-53616981D01*
X181028339Y-53611731D01*
X181023495Y-53610262D01*
X180868845Y-53579500D01*
X180868842Y-53579500D01*
X180711158Y-53579500D01*
X180711155Y-53579500D01*
X180556510Y-53610261D01*
X180556503Y-53610263D01*
X180474548Y-53644208D01*
X180474468Y-53644242D01*
X180410821Y-53670606D01*
X180405314Y-53674285D01*
X180405306Y-53674289D01*
X180279711Y-53758210D01*
X180279707Y-53758213D01*
X180168213Y-53869707D01*
X180168210Y-53869711D01*
X180080609Y-54000814D01*
X180080602Y-54000827D01*
X180020264Y-54146498D01*
X180020261Y-54146510D01*
X179989500Y-54301153D01*
X179989500Y-54458846D01*
X180020261Y-54613489D01*
X180020264Y-54613501D01*
X180080602Y-54759172D01*
X180080609Y-54759185D01*
X180168210Y-54890288D01*
X180168213Y-54890292D01*
X180279707Y-55001786D01*
X180279711Y-55001789D01*
X180410814Y-55089390D01*
X180410827Y-55089397D01*
X180556498Y-55149735D01*
X180556503Y-55149737D01*
X180634366Y-55165225D01*
X180711146Y-55180498D01*
X180711149Y-55180498D01*
X180711158Y-55180500D01*
X180711166Y-55180500D01*
X180712646Y-55180646D01*
X180713381Y-55180942D01*
X180717132Y-55181689D01*
X180716990Y-55182400D01*
X180777435Y-55206803D01*
X180817798Y-55263835D01*
X180824500Y-55304050D01*
X180824500Y-55615701D01*
X180827401Y-55652567D01*
X180827402Y-55652573D01*
X180873254Y-55810393D01*
X180873255Y-55810396D01*
X180956917Y-55951862D01*
X180956923Y-55951870D01*
X181073129Y-56068076D01*
X181073133Y-56068079D01*
X181073135Y-56068081D01*
X181214602Y-56151744D01*
X181256224Y-56163836D01*
X181372426Y-56197597D01*
X181372429Y-56197597D01*
X181372431Y-56197598D01*
X181409306Y-56200500D01*
X181409314Y-56200500D01*
X181840686Y-56200500D01*
X181840694Y-56200500D01*
X181877569Y-56197598D01*
X181877571Y-56197597D01*
X181877573Y-56197597D01*
X181919191Y-56185505D01*
X182035398Y-56151744D01*
X182174880Y-56069255D01*
X182183580Y-56064110D01*
X182184747Y-56066083D01*
X182239035Y-56044769D01*
X182307553Y-56058448D01*
X182316404Y-56064136D01*
X182316420Y-56064110D01*
X182325120Y-56069255D01*
X182464602Y-56151744D01*
X182506224Y-56163836D01*
X182622426Y-56197597D01*
X182622429Y-56197597D01*
X182622431Y-56197598D01*
X182659306Y-56200500D01*
X182659314Y-56200500D01*
X183090686Y-56200500D01*
X183090694Y-56200500D01*
X183127569Y-56197598D01*
X183164435Y-56186887D01*
X183234301Y-56187084D01*
X183286712Y-56218281D01*
X188331250Y-61262819D01*
X188364735Y-61324142D01*
X188359751Y-61393834D01*
X188317879Y-61449767D01*
X188252415Y-61474184D01*
X188243569Y-61474500D01*
X187868384Y-61474500D01*
X187849145Y-61476248D01*
X187797807Y-61480913D01*
X187635393Y-61531522D01*
X187489811Y-61619530D01*
X187489810Y-61619531D01*
X187387681Y-61721661D01*
X187326358Y-61755146D01*
X187256666Y-61750162D01*
X187212319Y-61721661D01*
X187110188Y-61619530D01*
X187072846Y-61596956D01*
X186964606Y-61531522D01*
X186802196Y-61480914D01*
X186802194Y-61480913D01*
X186802192Y-61480913D01*
X186752778Y-61476423D01*
X186731616Y-61474500D01*
X186218384Y-61474500D01*
X186147804Y-61480914D01*
X186015275Y-61522210D01*
X185982682Y-61532367D01*
X185912822Y-61533517D01*
X185853430Y-61496716D01*
X185823362Y-61433647D01*
X185828086Y-61374981D01*
X185855349Y-61292708D01*
X185865500Y-61193345D01*
X185865499Y-60646656D01*
X185859741Y-60590292D01*
X185855349Y-60547292D01*
X185855348Y-60547289D01*
X185828019Y-60464815D01*
X185802003Y-60386303D01*
X185801999Y-60386297D01*
X185801998Y-60386294D01*
X185712970Y-60241959D01*
X185712967Y-60241955D01*
X185705536Y-60234524D01*
X185672051Y-60173201D01*
X185677035Y-60103509D01*
X185678656Y-60099390D01*
X185687310Y-60078497D01*
X185699737Y-60048497D01*
X185730500Y-59893842D01*
X185730500Y-59736158D01*
X185730500Y-59736155D01*
X185730499Y-59736153D01*
X185721260Y-59689704D01*
X185699737Y-59581503D01*
X185699245Y-59580316D01*
X185639397Y-59435827D01*
X185639390Y-59435814D01*
X185551789Y-59304711D01*
X185551786Y-59304707D01*
X185440292Y-59193213D01*
X185440288Y-59193210D01*
X185309185Y-59105609D01*
X185309172Y-59105602D01*
X185163501Y-59045264D01*
X185163489Y-59045261D01*
X185008845Y-59014500D01*
X185008842Y-59014500D01*
X184851158Y-59014500D01*
X184851155Y-59014500D01*
X184696510Y-59045261D01*
X184696498Y-59045264D01*
X184550827Y-59105602D01*
X184550814Y-59105609D01*
X184419711Y-59193210D01*
X184419707Y-59193213D01*
X184308213Y-59304707D01*
X184308210Y-59304711D01*
X184220609Y-59435814D01*
X184220601Y-59435829D01*
X184212987Y-59454212D01*
X184169145Y-59508615D01*
X184102851Y-59530679D01*
X184035152Y-59513399D01*
X183993826Y-59470186D01*
X183992779Y-59470886D01*
X183901789Y-59334711D01*
X183901786Y-59334707D01*
X183790292Y-59223213D01*
X183790288Y-59223210D01*
X183659185Y-59135609D01*
X183659172Y-59135602D01*
X183513501Y-59075264D01*
X183513489Y-59075261D01*
X183358845Y-59044500D01*
X183358842Y-59044500D01*
X183201158Y-59044500D01*
X183201155Y-59044500D01*
X183046510Y-59075261D01*
X183046498Y-59075264D01*
X182900827Y-59135602D01*
X182900814Y-59135609D01*
X182769711Y-59223210D01*
X182769707Y-59223213D01*
X182658213Y-59334707D01*
X182658210Y-59334711D01*
X182570609Y-59465814D01*
X182570602Y-59465827D01*
X182510264Y-59611498D01*
X182510261Y-59611510D01*
X182479500Y-59766153D01*
X182479500Y-59923846D01*
X182510260Y-60078488D01*
X182510261Y-60078489D01*
X182510263Y-60078497D01*
X182516700Y-60094038D01*
X182518057Y-60106664D01*
X182523883Y-60117948D01*
X182521720Y-60140737D01*
X182524168Y-60163505D01*
X182518326Y-60176510D01*
X182517283Y-60187505D01*
X182505056Y-60206054D01*
X182499654Y-60218081D01*
X182495067Y-60223919D01*
X182467032Y-60251956D01*
X182445033Y-60287621D01*
X182440693Y-60293147D01*
X182417732Y-60309517D01*
X182396765Y-60328376D01*
X182389660Y-60329531D01*
X182383802Y-60333709D01*
X182355637Y-60335067D01*
X182327803Y-60339596D01*
X182319742Y-60336798D01*
X182314014Y-60337075D01*
X182304150Y-60331388D01*
X182279027Y-60322670D01*
X182169605Y-60256522D01*
X182122857Y-60241955D01*
X182007195Y-60205914D01*
X182007193Y-60205913D01*
X182007191Y-60205913D01*
X181957777Y-60201423D01*
X181936615Y-60199500D01*
X181423383Y-60199500D01*
X181404144Y-60201248D01*
X181352806Y-60205913D01*
X181190392Y-60256522D01*
X181044810Y-60344530D01*
X180924529Y-60464811D01*
X180836521Y-60610393D01*
X180825220Y-60646662D01*
X180785913Y-60772804D01*
X180784648Y-60786725D01*
X180758976Y-60851707D01*
X180702247Y-60892494D01*
X180661157Y-60899500D01*
X180521155Y-60899500D01*
X180366510Y-60930261D01*
X180366498Y-60930264D01*
X180220827Y-60990602D01*
X180220814Y-60990609D01*
X180089711Y-61078210D01*
X180089707Y-61078213D01*
X179978213Y-61189707D01*
X179978210Y-61189711D01*
X179890609Y-61320814D01*
X179890602Y-61320827D01*
X179830264Y-61466498D01*
X179830261Y-61466510D01*
X179799500Y-61621153D01*
X179799500Y-61778846D01*
X179830261Y-61933489D01*
X179830264Y-61933501D01*
X179890602Y-62079172D01*
X179890609Y-62079185D01*
X179978210Y-62210288D01*
X179978213Y-62210292D01*
X180089707Y-62321786D01*
X180089711Y-62321789D01*
X180220814Y-62409390D01*
X180220827Y-62409397D01*
X180366498Y-62469735D01*
X180366503Y-62469737D01*
X180521153Y-62500499D01*
X180521156Y-62500500D01*
X180661157Y-62500500D01*
X180728196Y-62520185D01*
X180773951Y-62572989D01*
X180784647Y-62613274D01*
X180785913Y-62627196D01*
X180836521Y-62789606D01*
X180872344Y-62848865D01*
X180924529Y-62935188D01*
X181044810Y-63055469D01*
X181044812Y-63055470D01*
X181044814Y-63055472D01*
X181184040Y-63139638D01*
X181231228Y-63191165D01*
X181243066Y-63260025D01*
X181215797Y-63324353D01*
X181158078Y-63363727D01*
X181132495Y-63369112D01*
X181122392Y-63370144D01*
X180961518Y-63423452D01*
X180961507Y-63423457D01*
X180817271Y-63512424D01*
X180817267Y-63512427D01*
X180697427Y-63632267D01*
X180697424Y-63632271D01*
X180608457Y-63776507D01*
X180608453Y-63776516D01*
X180584172Y-63849792D01*
X180544399Y-63907236D01*
X180479883Y-63934059D01*
X180411107Y-63921744D01*
X180401369Y-63916326D01*
X180298699Y-63852998D01*
X180298694Y-63852996D01*
X180137709Y-63799651D01*
X180038352Y-63789500D01*
X180038345Y-63789500D01*
X179847264Y-63789500D01*
X179780225Y-63769815D01*
X179734470Y-63717011D01*
X179732714Y-63712978D01*
X179719394Y-63680821D01*
X179719390Y-63680814D01*
X179631789Y-63549711D01*
X179631786Y-63549707D01*
X179520292Y-63438213D01*
X179520288Y-63438210D01*
X179389185Y-63350609D01*
X179389172Y-63350602D01*
X179243501Y-63290264D01*
X179243489Y-63290261D01*
X179088845Y-63259500D01*
X179088842Y-63259500D01*
X178931158Y-63259500D01*
X178931155Y-63259500D01*
X178776510Y-63290261D01*
X178776498Y-63290264D01*
X178630827Y-63350602D01*
X178630814Y-63350609D01*
X178499711Y-63438210D01*
X178499707Y-63438213D01*
X178388213Y-63549707D01*
X178388210Y-63549711D01*
X178300609Y-63680814D01*
X178300604Y-63680824D01*
X178267240Y-63761372D01*
X178223399Y-63815776D01*
X178157104Y-63837840D01*
X178113675Y-63831625D01*
X178109335Y-63830187D01*
X178109334Y-63830186D01*
X177942797Y-63775001D01*
X177942795Y-63775000D01*
X177840010Y-63764500D01*
X175839998Y-63764500D01*
X175839981Y-63764501D01*
X175737203Y-63775000D01*
X175737200Y-63775001D01*
X175570668Y-63830185D01*
X175570663Y-63830187D01*
X175421342Y-63922289D01*
X175297289Y-64046342D01*
X175236239Y-64145321D01*
X175184291Y-64192045D01*
X175115328Y-64203268D01*
X175051246Y-64175424D01*
X175012390Y-64117355D01*
X175006700Y-64080224D01*
X175006700Y-63324500D01*
X175026385Y-63257461D01*
X175079189Y-63211706D01*
X175130700Y-63200500D01*
X175336614Y-63200500D01*
X175336617Y-63200500D01*
X175407197Y-63194086D01*
X175569607Y-63143478D01*
X175715186Y-63055472D01*
X175835473Y-62935185D01*
X175923479Y-62789606D01*
X175974087Y-62627196D01*
X175980501Y-62556616D01*
X175980501Y-60843384D01*
X175974087Y-60772804D01*
X175923479Y-60610394D01*
X175835473Y-60464815D01*
X175835471Y-60464813D01*
X175835470Y-60464811D01*
X175715189Y-60344530D01*
X175707027Y-60339596D01*
X175569607Y-60256522D01*
X175407197Y-60205914D01*
X175407196Y-60205913D01*
X175407190Y-60205912D01*
X175405331Y-60205543D01*
X175404340Y-60205024D01*
X175400933Y-60203963D01*
X175401126Y-60203343D01*
X175343420Y-60173158D01*
X175308846Y-60112442D01*
X175307906Y-60108117D01*
X175302014Y-60078497D01*
X175279737Y-59966503D01*
X175263388Y-59927032D01*
X175219397Y-59820827D01*
X175219390Y-59820814D01*
X175131789Y-59689711D01*
X175131786Y-59689707D01*
X175020292Y-59578213D01*
X175020288Y-59578210D01*
X174889185Y-59490609D01*
X174889172Y-59490602D01*
X174743501Y-59430264D01*
X174743489Y-59430261D01*
X174588845Y-59399500D01*
X174588842Y-59399500D01*
X174431158Y-59399500D01*
X174431155Y-59399500D01*
X174276510Y-59430261D01*
X174276498Y-59430264D01*
X174130827Y-59490602D01*
X174130814Y-59490609D01*
X173999711Y-59578210D01*
X173999707Y-59578213D01*
X173888217Y-59689704D01*
X173888214Y-59689707D01*
X173868378Y-59719393D01*
X173814764Y-59764197D01*
X173765277Y-59774500D01*
X173221662Y-59774500D01*
X173221644Y-59774501D01*
X173122292Y-59784650D01*
X173122289Y-59784651D01*
X172961305Y-59837996D01*
X172961294Y-59838001D01*
X172816959Y-59927029D01*
X172816955Y-59927032D01*
X172697032Y-60046955D01*
X172697029Y-60046959D01*
X172631239Y-60153621D01*
X172579291Y-60200346D01*
X172510328Y-60211567D01*
X172446246Y-60183724D01*
X172407391Y-60125655D01*
X172401701Y-60088524D01*
X172401701Y-57955763D01*
X172421386Y-57888724D01*
X172439671Y-57866461D01*
X172449668Y-57856830D01*
X172460186Y-57850472D01*
X172563178Y-57747479D01*
X172563970Y-57746717D01*
X172593939Y-57731071D01*
X172623641Y-57714853D01*
X172624841Y-57714938D01*
X172625908Y-57714382D01*
X172659601Y-57717424D01*
X172693333Y-57719837D01*
X172694480Y-57720574D01*
X172695494Y-57720666D01*
X172699626Y-57723881D01*
X172737681Y-57748338D01*
X172839812Y-57850469D01*
X172839814Y-57850470D01*
X172839816Y-57850472D01*
X172985395Y-57938478D01*
X173147805Y-57989086D01*
X173218385Y-57995500D01*
X173218388Y-57995500D01*
X173731614Y-57995500D01*
X173731617Y-57995500D01*
X173802197Y-57989086D01*
X173964607Y-57938478D01*
X174110186Y-57850472D01*
X174230473Y-57730185D01*
X174318479Y-57584606D01*
X174369087Y-57422196D01*
X174375501Y-57351616D01*
X174375501Y-56688384D01*
X174369087Y-56617804D01*
X174318479Y-56455394D01*
X174230473Y-56309815D01*
X174230472Y-56309814D01*
X174230471Y-56309812D01*
X174230031Y-56309251D01*
X174229837Y-56308764D01*
X174226592Y-56303396D01*
X174227484Y-56302856D01*
X174204186Y-56244337D01*
X174206679Y-56231533D01*
X174205001Y-56231533D01*
X174205001Y-53482702D01*
X174705001Y-53482702D01*
X174705001Y-56177294D01*
X174705002Y-56177294D01*
X174707487Y-56177099D01*
X174865199Y-56131280D01*
X175013272Y-56043711D01*
X175014460Y-56045720D01*
X175068603Y-56024451D01*
X175137122Y-56038118D01*
X175146744Y-56044300D01*
X175157928Y-56050914D01*
X175294603Y-56131743D01*
X175336225Y-56143835D01*
X175452427Y-56177596D01*
X175452430Y-56177596D01*
X175452432Y-56177597D01*
X175489307Y-56180499D01*
X175489315Y-56180499D01*
X175920687Y-56180499D01*
X175920695Y-56180499D01*
X175957570Y-56177597D01*
X175957572Y-56177596D01*
X175957574Y-56177596D01*
X176046552Y-56151745D01*
X176115399Y-56131743D01*
X176256866Y-56048080D01*
X176373082Y-55931864D01*
X176456745Y-55790397D01*
X176502599Y-55632568D01*
X176505501Y-55595693D01*
X176505501Y-54064305D01*
X176502599Y-54027430D01*
X176500149Y-54018998D01*
X176456746Y-53869605D01*
X176456745Y-53869602D01*
X176456745Y-53869601D01*
X176430390Y-53825037D01*
X176413207Y-53757313D01*
X176422560Y-53714465D01*
X176474738Y-53588497D01*
X176505501Y-53433842D01*
X176505501Y-53291229D01*
X176525186Y-53224190D01*
X176577990Y-53178435D01*
X176647148Y-53168491D01*
X176710704Y-53197516D01*
X176717182Y-53203548D01*
X176836345Y-53322711D01*
X176985667Y-53414813D01*
X177152204Y-53469998D01*
X177254992Y-53480499D01*
X177855009Y-53480498D01*
X177855017Y-53480497D01*
X177855020Y-53480497D01*
X177911303Y-53474747D01*
X177957798Y-53469998D01*
X178124335Y-53414813D01*
X178273657Y-53322711D01*
X178397713Y-53198655D01*
X178489815Y-53049333D01*
X178544729Y-52883611D01*
X178584500Y-52826168D01*
X178649016Y-52799345D01*
X178717792Y-52811660D01*
X178768992Y-52859202D01*
X178783687Y-52896659D01*
X178785001Y-52902799D01*
X178810562Y-52979936D01*
X178840186Y-53069334D01*
X178932288Y-53218656D01*
X179056344Y-53342712D01*
X179205666Y-53434814D01*
X179372203Y-53489999D01*
X179474991Y-53500500D01*
X180075008Y-53500499D01*
X180075016Y-53500498D01*
X180075019Y-53500498D01*
X180138052Y-53494059D01*
X180177797Y-53489999D01*
X180344334Y-53434814D01*
X180493656Y-53342712D01*
X180617712Y-53218656D01*
X180709814Y-53069334D01*
X180764999Y-52902797D01*
X180775500Y-52800009D01*
X180775499Y-50499992D01*
X180775498Y-50499983D01*
X186224500Y-50499983D01*
X186224500Y-52800001D01*
X186224501Y-52800018D01*
X186235000Y-52902796D01*
X186235001Y-52902799D01*
X186260562Y-52979936D01*
X186290186Y-53069334D01*
X186382288Y-53218656D01*
X186506344Y-53342712D01*
X186655666Y-53434814D01*
X186822203Y-53489999D01*
X186924991Y-53500500D01*
X187525008Y-53500499D01*
X187525016Y-53500498D01*
X187525019Y-53500498D01*
X187588052Y-53494059D01*
X187627797Y-53489999D01*
X187794334Y-53434814D01*
X187943656Y-53342712D01*
X188067712Y-53218656D01*
X188159814Y-53069334D01*
X188214999Y-52902797D01*
X188225500Y-52800009D01*
X188225499Y-50499992D01*
X188223456Y-50479997D01*
X188214999Y-50397203D01*
X188214998Y-50397200D01*
X188208370Y-50377199D01*
X188159814Y-50230666D01*
X188067712Y-50081344D01*
X187943656Y-49957288D01*
X187794334Y-49865186D01*
X187627797Y-49810001D01*
X187627795Y-49810000D01*
X187525010Y-49799500D01*
X186924998Y-49799500D01*
X186924980Y-49799501D01*
X186822203Y-49810000D01*
X186822200Y-49810001D01*
X186655668Y-49865185D01*
X186655663Y-49865187D01*
X186506342Y-49957289D01*
X186382289Y-50081342D01*
X186290187Y-50230663D01*
X186290186Y-50230666D01*
X186235001Y-50397203D01*
X186235001Y-50397204D01*
X186235000Y-50397204D01*
X186224500Y-50499983D01*
X180775498Y-50499983D01*
X180773456Y-50479997D01*
X180764999Y-50397203D01*
X180764998Y-50397200D01*
X180758370Y-50377199D01*
X180709814Y-50230666D01*
X180617712Y-50081344D01*
X180493656Y-49957288D01*
X180344334Y-49865186D01*
X180177797Y-49810001D01*
X180177795Y-49810000D01*
X180075010Y-49799500D01*
X179474998Y-49799500D01*
X179474980Y-49799501D01*
X179372203Y-49810000D01*
X179372200Y-49810001D01*
X179205668Y-49865185D01*
X179205663Y-49865187D01*
X179056342Y-49957289D01*
X178932289Y-50081342D01*
X178840187Y-50230663D01*
X178840185Y-50230668D01*
X178785272Y-50396385D01*
X178745499Y-50453830D01*
X178680983Y-50480653D01*
X178612207Y-50468338D01*
X178561008Y-50420795D01*
X178546312Y-50383331D01*
X178545000Y-50377202D01*
X178496443Y-50230668D01*
X178489815Y-50210665D01*
X178397713Y-50061343D01*
X178273657Y-49937287D01*
X178156762Y-49865186D01*
X178124337Y-49845186D01*
X178124332Y-49845184D01*
X178122863Y-49844697D01*
X177957798Y-49790000D01*
X177957796Y-49789999D01*
X177855011Y-49779499D01*
X177254999Y-49779499D01*
X177254981Y-49779500D01*
X177152204Y-49789999D01*
X177152201Y-49790000D01*
X176985669Y-49845184D01*
X176985664Y-49845186D01*
X176836343Y-49937288D01*
X176712290Y-50061341D01*
X176620188Y-50210662D01*
X176620186Y-50210667D01*
X176592350Y-50294669D01*
X176565002Y-50377202D01*
X176565002Y-50377203D01*
X176565001Y-50377203D01*
X176554501Y-50479982D01*
X176554501Y-52776732D01*
X176534816Y-52843771D01*
X176482012Y-52889526D01*
X176412854Y-52899470D01*
X176349298Y-52870445D01*
X176330709Y-52849373D01*
X176330654Y-52849419D01*
X176329377Y-52847864D01*
X176327393Y-52845614D01*
X176326787Y-52844707D01*
X176215293Y-52733213D01*
X176215289Y-52733210D01*
X176084186Y-52645609D01*
X176084173Y-52645602D01*
X175938502Y-52585264D01*
X175938490Y-52585261D01*
X175783846Y-52554500D01*
X175783843Y-52554500D01*
X175626159Y-52554500D01*
X175626156Y-52554500D01*
X175471511Y-52585261D01*
X175471499Y-52585264D01*
X175325828Y-52645602D01*
X175325815Y-52645609D01*
X175194712Y-52733210D01*
X175194708Y-52733213D01*
X175083214Y-52844707D01*
X175083211Y-52844711D01*
X174995610Y-52975814D01*
X174995603Y-52975827D01*
X174935265Y-53121498D01*
X174935262Y-53121510D01*
X174904501Y-53276153D01*
X174904501Y-53374982D01*
X174884816Y-53442021D01*
X174832012Y-53487776D01*
X174762854Y-53497720D01*
X174745908Y-53494059D01*
X174707495Y-53482899D01*
X174705001Y-53482702D01*
X174205001Y-53482702D01*
X174202504Y-53482899D01*
X174044807Y-53528715D01*
X174044804Y-53528716D01*
X173896730Y-53616287D01*
X173895545Y-53614284D01*
X173841356Y-53635550D01*
X173772841Y-53621859D01*
X173772806Y-53621841D01*
X173760149Y-53615201D01*
X173756866Y-53611918D01*
X173615399Y-53528255D01*
X173568364Y-53514589D01*
X173557325Y-53508798D01*
X173545778Y-53497630D01*
X173527250Y-53486672D01*
X173329504Y-53288926D01*
X173329503Y-53288925D01*
X173329502Y-53288924D01*
X173248785Y-53242322D01*
X173248783Y-53242320D01*
X173217380Y-53224190D01*
X173197999Y-53213000D01*
X173051325Y-53173699D01*
X172899477Y-53173699D01*
X172899476Y-53173699D01*
X171567687Y-53173699D01*
X171567685Y-53173700D01*
X171421011Y-53213001D01*
X171421010Y-53213001D01*
X171421008Y-53213002D01*
X171421007Y-53213002D01*
X171289510Y-53288922D01*
X171289504Y-53288927D01*
X169953528Y-54624903D01*
X169953523Y-54624909D01*
X169877603Y-54756406D01*
X169877603Y-54756407D01*
X169877602Y-54756409D01*
X169877602Y-54756410D01*
X169871948Y-54777511D01*
X169838301Y-54903084D01*
X169838301Y-54984236D01*
X169818616Y-55051275D01*
X169800330Y-55073539D01*
X169790331Y-55083171D01*
X169779816Y-55089528D01*
X169676875Y-55192468D01*
X169676030Y-55193283D01*
X169646028Y-55208945D01*
X169616359Y-55225146D01*
X169615159Y-55225060D01*
X169614093Y-55225617D01*
X169580401Y-55222574D01*
X169546667Y-55220162D01*
X169545519Y-55219424D01*
X169544506Y-55219333D01*
X169540373Y-55216116D01*
X169502320Y-55191661D01*
X169400189Y-55089530D01*
X169399957Y-55089390D01*
X169254607Y-55001522D01*
X169092197Y-54950914D01*
X169092195Y-54950913D01*
X169092193Y-54950913D01*
X169042779Y-54946423D01*
X169021617Y-54944500D01*
X168508385Y-54944500D01*
X168489146Y-54946248D01*
X168437808Y-54950913D01*
X168275394Y-55001522D01*
X168129812Y-55089530D01*
X168009531Y-55209811D01*
X167921523Y-55355393D01*
X167870914Y-55517807D01*
X167865783Y-55574275D01*
X167864501Y-55588384D01*
X167864501Y-56251616D01*
X167870915Y-56322196D01*
X167891449Y-56388092D01*
X167901457Y-56420211D01*
X167902607Y-56490071D01*
X167865806Y-56549463D01*
X167802736Y-56579531D01*
X167744068Y-56574806D01*
X167664307Y-56548376D01*
X167592710Y-56524651D01*
X167493347Y-56514500D01*
X166946663Y-56514500D01*
X166946645Y-56514501D01*
X166847293Y-56524650D01*
X166847290Y-56524651D01*
X166686306Y-56577996D01*
X166686295Y-56578001D01*
X166541960Y-56667029D01*
X166541954Y-56667034D01*
X166523936Y-56685051D01*
X166462612Y-56718533D01*
X166412068Y-56718983D01*
X166263846Y-56689500D01*
X166263842Y-56689500D01*
X166106158Y-56689500D01*
X166106155Y-56689500D01*
X165951510Y-56720261D01*
X165951498Y-56720264D01*
X165805827Y-56780602D01*
X165805814Y-56780609D01*
X165674711Y-56868210D01*
X165674707Y-56868213D01*
X165563213Y-56979707D01*
X165563210Y-56979711D01*
X165475609Y-57110814D01*
X165475602Y-57110827D01*
X165415264Y-57256498D01*
X165415261Y-57256510D01*
X165384500Y-57411153D01*
X165384500Y-57568846D01*
X165415261Y-57723489D01*
X165415264Y-57723501D01*
X165475602Y-57869172D01*
X165475609Y-57869185D01*
X165563210Y-58000288D01*
X165563213Y-58000292D01*
X165674707Y-58111786D01*
X165674711Y-58111789D01*
X165805814Y-58199390D01*
X165805827Y-58199397D01*
X165951498Y-58259735D01*
X165951503Y-58259737D01*
X166106153Y-58290499D01*
X166106156Y-58290500D01*
X166106158Y-58290500D01*
X166263844Y-58290500D01*
X166412068Y-58261016D01*
X166481660Y-58267243D01*
X166523941Y-58294952D01*
X166541956Y-58312967D01*
X166541960Y-58312970D01*
X166686295Y-58401998D01*
X166686298Y-58401999D01*
X166686304Y-58402003D01*
X166847293Y-58455349D01*
X166946656Y-58465500D01*
X167493345Y-58465499D01*
X167493353Y-58465498D01*
X167493356Y-58465498D01*
X167547761Y-58459940D01*
X167592709Y-58455349D01*
X167753698Y-58402003D01*
X167898045Y-58312968D01*
X167907320Y-58303693D01*
X167968643Y-58270208D01*
X168038335Y-58275192D01*
X168082682Y-58303693D01*
X168091956Y-58312967D01*
X168091960Y-58312970D01*
X168236295Y-58401998D01*
X168236298Y-58401999D01*
X168236304Y-58402003D01*
X168397293Y-58455349D01*
X168496656Y-58465500D01*
X168878561Y-58465499D01*
X168945600Y-58485183D01*
X168966242Y-58501818D01*
X168988126Y-58523702D01*
X169095499Y-58631075D01*
X169227003Y-58706999D01*
X169227004Y-58706999D01*
X169227005Y-58707000D01*
X169252593Y-58713856D01*
X169312254Y-58750220D01*
X169342784Y-58813066D01*
X169344501Y-58833631D01*
X169344501Y-59313337D01*
X169344502Y-59313355D01*
X169354651Y-59412707D01*
X169354652Y-59412710D01*
X169407997Y-59573694D01*
X169408002Y-59573705D01*
X169497030Y-59718040D01*
X169497033Y-59718044D01*
X169499872Y-59720883D01*
X169501197Y-59723310D01*
X169501511Y-59723707D01*
X169501443Y-59723760D01*
X169533357Y-59782206D01*
X169531021Y-59840444D01*
X169531451Y-59840530D01*
X169530908Y-59843257D01*
X169530857Y-59844542D01*
X169530263Y-59846498D01*
X169499500Y-60001155D01*
X169499500Y-60158846D01*
X169530261Y-60313489D01*
X169530264Y-60313501D01*
X169590602Y-60459172D01*
X169590609Y-60459185D01*
X169678210Y-60590288D01*
X169678213Y-60590292D01*
X169789707Y-60701786D01*
X169789711Y-60701789D01*
X169920814Y-60789390D01*
X169920827Y-60789397D01*
X170051165Y-60843384D01*
X170066503Y-60849737D01*
X170221153Y-60880499D01*
X170221156Y-60880500D01*
X170221158Y-60880500D01*
X170378844Y-60880500D01*
X170378845Y-60880499D01*
X170533497Y-60849737D01*
X170679179Y-60789394D01*
X170679184Y-60789390D01*
X170679187Y-60789389D01*
X170749609Y-60742334D01*
X170816286Y-60721455D01*
X170883667Y-60739939D01*
X170930357Y-60791917D01*
X170942501Y-60845435D01*
X170942501Y-62135744D01*
X170942501Y-62287592D01*
X170975138Y-62409397D01*
X170981803Y-62434268D01*
X170981803Y-62434269D01*
X171057723Y-62565766D01*
X171057725Y-62565768D01*
X171057726Y-62565770D01*
X172148787Y-63656831D01*
X173205381Y-64713424D01*
X173238866Y-64774747D01*
X173241700Y-64801105D01*
X173241700Y-70350500D01*
X173222015Y-70417539D01*
X173169211Y-70463294D01*
X173117700Y-70474500D01*
X172818384Y-70474500D01*
X172799145Y-70476248D01*
X172747807Y-70480913D01*
X172585393Y-70531522D01*
X172439811Y-70619530D01*
X172439810Y-70619531D01*
X172337681Y-70721661D01*
X172276358Y-70755146D01*
X172206666Y-70750162D01*
X172162319Y-70721661D01*
X172060188Y-70619530D01*
X171914606Y-70531522D01*
X171752196Y-70480914D01*
X171752194Y-70480913D01*
X171752192Y-70480913D01*
X171702778Y-70476423D01*
X171681616Y-70474500D01*
X171168384Y-70474500D01*
X171149145Y-70476248D01*
X171097807Y-70480913D01*
X170935393Y-70531522D01*
X170789811Y-70619530D01*
X170669530Y-70739811D01*
X170581522Y-70885393D01*
X170530913Y-71047807D01*
X170524500Y-71118386D01*
X170524500Y-71474300D01*
X170521949Y-71482985D01*
X170523238Y-71491947D01*
X170512259Y-71515987D01*
X170504815Y-71541339D01*
X170497974Y-71547266D01*
X170494213Y-71555503D01*
X170471978Y-71569792D01*
X170452011Y-71587094D01*
X170441496Y-71589381D01*
X170435435Y-71593277D01*
X170400500Y-71598300D01*
X170173659Y-71598300D01*
X170106620Y-71578615D01*
X170060865Y-71525811D01*
X170050921Y-71456653D01*
X170066927Y-71411179D01*
X170072277Y-71402133D01*
X170111744Y-71335398D01*
X170157598Y-71177569D01*
X170160500Y-71140694D01*
X170160500Y-70709306D01*
X170157598Y-70672431D01*
X170154506Y-70661789D01*
X170111745Y-70514606D01*
X170111744Y-70514603D01*
X170111744Y-70514602D01*
X170028081Y-70373135D01*
X170024110Y-70366420D01*
X170025954Y-70365329D01*
X170004449Y-70310541D01*
X170018135Y-70242025D01*
X170023748Y-70233292D01*
X170023712Y-70233271D01*
X170111281Y-70085198D01*
X170157100Y-69927486D01*
X170157295Y-69925001D01*
X170157295Y-69925000D01*
X167462705Y-69925000D01*
X167462704Y-69925001D01*
X167462899Y-69927486D01*
X167508718Y-70085198D01*
X167596288Y-70233271D01*
X167594285Y-70234455D01*
X167615551Y-70288645D01*
X167601860Y-70357160D01*
X167595671Y-70366788D01*
X167508255Y-70514603D01*
X167508254Y-70514606D01*
X167462402Y-70672426D01*
X167462401Y-70672432D01*
X167459500Y-70709298D01*
X167459500Y-71140701D01*
X167462401Y-71177563D01*
X167462403Y-71177572D01*
X167473113Y-71214438D01*
X167473074Y-71227729D01*
X167477720Y-71240184D01*
X167472976Y-71261992D01*
X167472912Y-71284307D01*
X167465363Y-71296987D01*
X167462869Y-71308457D01*
X167441718Y-71336712D01*
X167376298Y-71402133D01*
X167268922Y-71509509D01*
X167193002Y-71641006D01*
X167193002Y-71641007D01*
X167193001Y-71641009D01*
X167193001Y-71641010D01*
X167153700Y-71787684D01*
X167153700Y-72410468D01*
X167153700Y-72562316D01*
X167187422Y-72688170D01*
X167193002Y-72708992D01*
X167193002Y-72708993D01*
X167268922Y-72840490D01*
X167268924Y-72840492D01*
X167268925Y-72840494D01*
X167777533Y-73349102D01*
X167884906Y-73456475D01*
X167884907Y-73456476D01*
X167884909Y-73456477D01*
X167950658Y-73494437D01*
X168016410Y-73532399D01*
X168163084Y-73571700D01*
X170554237Y-73571700D01*
X170621276Y-73591385D01*
X170643540Y-73609671D01*
X170653169Y-73619667D01*
X170659528Y-73630185D01*
X170762468Y-73733125D01*
X170763283Y-73733971D01*
X170778939Y-73763962D01*
X170795146Y-73793642D01*
X170795060Y-73794842D01*
X170795617Y-73795909D01*
X170792576Y-73829576D01*
X170790162Y-73863334D01*
X170789423Y-73864483D01*
X170789332Y-73865495D01*
X170786121Y-73869620D01*
X170761661Y-73907681D01*
X170659531Y-74009810D01*
X170659530Y-74009811D01*
X170571522Y-74155393D01*
X170520913Y-74317807D01*
X170518426Y-74345183D01*
X170514500Y-74388384D01*
X170514500Y-74901616D01*
X170520914Y-74972196D01*
X170534252Y-75014999D01*
X170549333Y-75063398D01*
X170550483Y-75133258D01*
X170513682Y-75192650D01*
X170466621Y-75219044D01*
X170455610Y-75222351D01*
X170422517Y-75225909D01*
X170334555Y-75258716D01*
X170330674Y-75259882D01*
X170299622Y-75260075D01*
X170268641Y-75262291D01*
X170261895Y-75260310D01*
X170260806Y-75260317D01*
X170259846Y-75259708D01*
X170251667Y-75257307D01*
X170167482Y-75225908D01*
X170167483Y-75225908D01*
X170107883Y-75219501D01*
X170107881Y-75219500D01*
X170107873Y-75219500D01*
X170107864Y-75219500D01*
X169212129Y-75219500D01*
X169212123Y-75219501D01*
X169152516Y-75225908D01*
X169017671Y-75276202D01*
X169017664Y-75276206D01*
X168942839Y-75332220D01*
X168877375Y-75356637D01*
X168844341Y-75354571D01*
X168818843Y-75349500D01*
X168818842Y-75349500D01*
X168661158Y-75349500D01*
X168661155Y-75349500D01*
X168506510Y-75380261D01*
X168506498Y-75380264D01*
X168360827Y-75440602D01*
X168360814Y-75440609D01*
X168229711Y-75528210D01*
X168229707Y-75528213D01*
X168118213Y-75639707D01*
X168118210Y-75639711D01*
X168030609Y-75770814D01*
X168030602Y-75770827D01*
X167970264Y-75916498D01*
X167970261Y-75916510D01*
X167939500Y-76071153D01*
X167939500Y-76228846D01*
X167970261Y-76383489D01*
X167970264Y-76383501D01*
X168030602Y-76529172D01*
X168030609Y-76529185D01*
X168118210Y-76660288D01*
X168118213Y-76660292D01*
X168229707Y-76771786D01*
X168229711Y-76771789D01*
X168360814Y-76859390D01*
X168360827Y-76859397D01*
X168506498Y-76919735D01*
X168506503Y-76919737D01*
X168659691Y-76950208D01*
X168721602Y-76982592D01*
X168756176Y-77043308D01*
X168759500Y-77071825D01*
X168759500Y-77767870D01*
X168759501Y-77767876D01*
X168765908Y-77827483D01*
X168816202Y-77962328D01*
X168816206Y-77962335D01*
X168902452Y-78077544D01*
X168902455Y-78077547D01*
X169017664Y-78163793D01*
X169017671Y-78163797D01*
X169152517Y-78214091D01*
X169152516Y-78214091D01*
X169159444Y-78214835D01*
X169212127Y-78220500D01*
X170107872Y-78220499D01*
X170167483Y-78214091D01*
X170251668Y-78182691D01*
X170321356Y-78177708D01*
X170338329Y-78182691D01*
X170422517Y-78214091D01*
X170482127Y-78220500D01*
X171377872Y-78220499D01*
X171437483Y-78214091D01*
X171521668Y-78182691D01*
X171591356Y-78177708D01*
X171608329Y-78182691D01*
X171692517Y-78214091D01*
X171752127Y-78220500D01*
X172647872Y-78220499D01*
X172707483Y-78214091D01*
X172842331Y-78163796D01*
X172957546Y-78077546D01*
X173043796Y-77962331D01*
X173094091Y-77827483D01*
X173100500Y-77767873D01*
X173100499Y-77230098D01*
X173109144Y-77200654D01*
X173115666Y-77170674D01*
X173119419Y-77165659D01*
X173120183Y-77163060D01*
X173136816Y-77142419D01*
X173137813Y-77141422D01*
X173190520Y-77088716D01*
X173190521Y-77088714D01*
X173224662Y-77054572D01*
X173285983Y-77021089D01*
X173288150Y-77020638D01*
X173346085Y-77009113D01*
X173443497Y-76989737D01*
X173589179Y-76929394D01*
X173720289Y-76841789D01*
X173831789Y-76730289D01*
X173919394Y-76599179D01*
X173979737Y-76453497D01*
X174010500Y-76298842D01*
X174010500Y-76141158D01*
X174010500Y-76141155D01*
X174010499Y-76141153D01*
X173994812Y-76062292D01*
X173979737Y-75986503D01*
X173977163Y-75980288D01*
X173919397Y-75840827D01*
X173919390Y-75840814D01*
X173831789Y-75709711D01*
X173831786Y-75709707D01*
X173720290Y-75598211D01*
X173705050Y-75588028D01*
X173660246Y-75534415D01*
X173651540Y-75465089D01*
X173681696Y-75402063D01*
X173690793Y-75392937D01*
X173699196Y-75385341D01*
X173703044Y-75382968D01*
X173714539Y-75371472D01*
X173716850Y-75369384D01*
X173745624Y-75355506D01*
X173773642Y-75340208D01*
X173776868Y-75340438D01*
X173779783Y-75339033D01*
X173811483Y-75342914D01*
X173843334Y-75345192D01*
X173846451Y-75347195D01*
X173849135Y-75347524D01*
X173856570Y-75353699D01*
X173887681Y-75373693D01*
X173896955Y-75382967D01*
X173896959Y-75382970D01*
X174041294Y-75471998D01*
X174041297Y-75471999D01*
X174041303Y-75472003D01*
X174190004Y-75521277D01*
X174247449Y-75561049D01*
X174272617Y-75614791D01*
X174290261Y-75703491D01*
X174290264Y-75703501D01*
X174350602Y-75849172D01*
X174350609Y-75849185D01*
X174438210Y-75980288D01*
X174438213Y-75980292D01*
X174549707Y-76091786D01*
X174549711Y-76091789D01*
X174680814Y-76179390D01*
X174680827Y-76179397D01*
X174802235Y-76229685D01*
X174826503Y-76239737D01*
X174981153Y-76270499D01*
X174981156Y-76270500D01*
X174981158Y-76270500D01*
X175138844Y-76270500D01*
X175138845Y-76270499D01*
X175293497Y-76239737D01*
X175439179Y-76179394D01*
X175570289Y-76091789D01*
X175681789Y-75980289D01*
X175769394Y-75849179D01*
X175772854Y-75840827D01*
X175794647Y-75788213D01*
X175829737Y-75703497D01*
X175860500Y-75548842D01*
X175860500Y-75391158D01*
X175860500Y-75391155D01*
X175860499Y-75391153D01*
X175839363Y-75284891D01*
X175845590Y-75215299D01*
X175888453Y-75160122D01*
X175954343Y-75136878D01*
X175960980Y-75136700D01*
X176941466Y-75136700D01*
X177008505Y-75156385D01*
X177054260Y-75209189D01*
X177064204Y-75278347D01*
X177035179Y-75341903D01*
X177015778Y-75359966D01*
X177012452Y-75362455D01*
X176926206Y-75477664D01*
X176926202Y-75477671D01*
X176875908Y-75612517D01*
X176869501Y-75672116D01*
X176869500Y-75672135D01*
X176869500Y-77767870D01*
X176869501Y-77767876D01*
X176875908Y-77827483D01*
X176926202Y-77962328D01*
X176926206Y-77962335D01*
X177012452Y-78077544D01*
X177012455Y-78077547D01*
X177127664Y-78163793D01*
X177127671Y-78163797D01*
X177262517Y-78214091D01*
X177262516Y-78214091D01*
X177269444Y-78214835D01*
X177322127Y-78220500D01*
X178217872Y-78220499D01*
X178277483Y-78214091D01*
X178361668Y-78182691D01*
X178431356Y-78177708D01*
X178448329Y-78182691D01*
X178532517Y-78214091D01*
X178592127Y-78220500D01*
X179487872Y-78220499D01*
X179547483Y-78214091D01*
X179631668Y-78182691D01*
X179701356Y-78177708D01*
X179718329Y-78182691D01*
X179802517Y-78214091D01*
X179862127Y-78220500D01*
X180757872Y-78220499D01*
X180817483Y-78214091D01*
X180901668Y-78182691D01*
X180971356Y-78177708D01*
X180988329Y-78182691D01*
X181072517Y-78214091D01*
X181132127Y-78220500D01*
X182027872Y-78220499D01*
X182087483Y-78214091D01*
X182171668Y-78182691D01*
X182198023Y-78180806D01*
X182223844Y-78175190D01*
X182236888Y-78178027D01*
X182241356Y-78177708D01*
X182258332Y-78182692D01*
X182280205Y-78190850D01*
X182336138Y-78232721D01*
X182344259Y-78245032D01*
X182346507Y-78248926D01*
X182369480Y-78288716D01*
X182369482Y-78288718D01*
X182488349Y-78407585D01*
X182488355Y-78407590D01*
X183570139Y-79489374D01*
X183570149Y-79489385D01*
X183574479Y-79493715D01*
X183574480Y-79493716D01*
X183686284Y-79605520D01*
X183686286Y-79605521D01*
X183686290Y-79605524D01*
X183787485Y-79663948D01*
X183823216Y-79684577D01*
X183914495Y-79709035D01*
X183975942Y-79725500D01*
X183975943Y-79725500D01*
X188923285Y-79725500D01*
X188932836Y-79728304D01*
X188942708Y-79727031D01*
X188965801Y-79737984D01*
X188990324Y-79745185D01*
X188998524Y-79753505D01*
X189005836Y-79756973D01*
X189026671Y-79782061D01*
X189028560Y-79783978D01*
X189028986Y-79784663D01*
X189059528Y-79835185D01*
X189061917Y-79837574D01*
X189067454Y-79846470D01*
X189075089Y-79873940D01*
X189085639Y-79900433D01*
X189084327Y-79907172D01*
X189086166Y-79913788D01*
X189077736Y-79941031D01*
X189072289Y-79969016D01*
X189066122Y-79978563D01*
X189065513Y-79980535D01*
X189064060Y-79981757D01*
X189059451Y-79988895D01*
X189057033Y-79991953D01*
X188968001Y-80136294D01*
X188967996Y-80136305D01*
X188914651Y-80297290D01*
X188904500Y-80396647D01*
X188904500Y-80993337D01*
X188904501Y-80993355D01*
X188914650Y-81092707D01*
X188914651Y-81092710D01*
X188967996Y-81253694D01*
X188968001Y-81253705D01*
X189057029Y-81398040D01*
X189057032Y-81398044D01*
X189176955Y-81517967D01*
X189176959Y-81517970D01*
X189321294Y-81606998D01*
X189321297Y-81606999D01*
X189321303Y-81607003D01*
X189482292Y-81660349D01*
X189581655Y-81670500D01*
X190128344Y-81670499D01*
X190128352Y-81670498D01*
X190128355Y-81670498D01*
X190182760Y-81664940D01*
X190227708Y-81660349D01*
X190388697Y-81607003D01*
X190533044Y-81517968D01*
X190542319Y-81508693D01*
X190603642Y-81475208D01*
X190673334Y-81480192D01*
X190717681Y-81508693D01*
X190726955Y-81517967D01*
X190726959Y-81517970D01*
X190871294Y-81606998D01*
X190871297Y-81606999D01*
X190871303Y-81607003D01*
X191032292Y-81660349D01*
X191131655Y-81670500D01*
X191678344Y-81670499D01*
X191678352Y-81670498D01*
X191678355Y-81670498D01*
X191732760Y-81664940D01*
X191777708Y-81660349D01*
X191938697Y-81607003D01*
X192083044Y-81517968D01*
X192105228Y-81495783D01*
X192166548Y-81462297D01*
X192217100Y-81461845D01*
X192281713Y-81474697D01*
X192361155Y-81490500D01*
X192361158Y-81490500D01*
X192518844Y-81490500D01*
X192518845Y-81490499D01*
X192673497Y-81459737D01*
X192819179Y-81399394D01*
X192950289Y-81311789D01*
X193061789Y-81200289D01*
X193149394Y-81069179D01*
X193209737Y-80923497D01*
X193240500Y-80768842D01*
X193240500Y-80611158D01*
X193240500Y-80611155D01*
X193240499Y-80611153D01*
X193224538Y-80530913D01*
X193209737Y-80456503D01*
X193209735Y-80456498D01*
X193149397Y-80310827D01*
X193149390Y-80310814D01*
X193061789Y-80179711D01*
X193061786Y-80179707D01*
X192950292Y-80068213D01*
X192950288Y-80068210D01*
X192819185Y-79980609D01*
X192819172Y-79980602D01*
X192673501Y-79920264D01*
X192673489Y-79920261D01*
X192518845Y-79889500D01*
X192518842Y-79889500D01*
X192406910Y-79889500D01*
X192339871Y-79869815D01*
X192294116Y-79817011D01*
X192284172Y-79747853D01*
X192300793Y-79701350D01*
X192308019Y-79689396D01*
X192358590Y-79527106D01*
X192365000Y-79456572D01*
X192365000Y-79375000D01*
X191589000Y-79375000D01*
X191521961Y-79355315D01*
X191476206Y-79302511D01*
X191465000Y-79251000D01*
X191465000Y-79125000D01*
X191339000Y-79125000D01*
X191271961Y-79105315D01*
X191226206Y-79052511D01*
X191215000Y-79001000D01*
X191215000Y-78875000D01*
X191715000Y-78875000D01*
X192364999Y-78875000D01*
X192364999Y-78793417D01*
X192358591Y-78722897D01*
X192358590Y-78722892D01*
X192308018Y-78560603D01*
X192220072Y-78415122D01*
X192099877Y-78294927D01*
X191954395Y-78206980D01*
X191954396Y-78206980D01*
X191792105Y-78156409D01*
X191792106Y-78156409D01*
X191721572Y-78150000D01*
X191715000Y-78150000D01*
X191715000Y-78875000D01*
X191215000Y-78875000D01*
X191215000Y-78150000D01*
X191214999Y-78149999D01*
X191208436Y-78150000D01*
X191208417Y-78150001D01*
X191137897Y-78156408D01*
X191137892Y-78156409D01*
X190975603Y-78206981D01*
X190830122Y-78294927D01*
X190830121Y-78294928D01*
X190728035Y-78397015D01*
X190666712Y-78430500D01*
X190597020Y-78425516D01*
X190552673Y-78397015D01*
X190450188Y-78294530D01*
X190304606Y-78206522D01*
X190228131Y-78182692D01*
X190142196Y-78155914D01*
X190142194Y-78155913D01*
X190142192Y-78155913D01*
X190092778Y-78151423D01*
X190071616Y-78149500D01*
X189558384Y-78149500D01*
X189539145Y-78151248D01*
X189487807Y-78155913D01*
X189325393Y-78206522D01*
X189179811Y-78294530D01*
X189059530Y-78414811D01*
X189029402Y-78464650D01*
X188977874Y-78511838D01*
X188923285Y-78524500D01*
X184355097Y-78524500D01*
X184325656Y-78515855D01*
X184295670Y-78509332D01*
X184290654Y-78505577D01*
X184288058Y-78504815D01*
X184267416Y-78488181D01*
X184211415Y-78432180D01*
X184177930Y-78370857D01*
X184182914Y-78301165D01*
X184224786Y-78245232D01*
X184290250Y-78220815D01*
X184299096Y-78220499D01*
X184567871Y-78220499D01*
X184567872Y-78220499D01*
X184627483Y-78214091D01*
X184711668Y-78182691D01*
X184781356Y-78177708D01*
X184798329Y-78182691D01*
X184882517Y-78214091D01*
X184942127Y-78220500D01*
X185837872Y-78220499D01*
X185897483Y-78214091D01*
X185981668Y-78182691D01*
X186051356Y-78177708D01*
X186068329Y-78182691D01*
X186152517Y-78214091D01*
X186212127Y-78220500D01*
X187107872Y-78220499D01*
X187167483Y-78214091D01*
X187302331Y-78163796D01*
X187417546Y-78077546D01*
X187503796Y-77962331D01*
X187554091Y-77827483D01*
X187560500Y-77767873D01*
X187560499Y-77260097D01*
X187569143Y-77230655D01*
X187575666Y-77200672D01*
X187579420Y-77195656D01*
X187580183Y-77193059D01*
X187596808Y-77172427D01*
X187680520Y-77088716D01*
X187680521Y-77088714D01*
X187714662Y-77054572D01*
X187775983Y-77021089D01*
X187778150Y-77020638D01*
X187836085Y-77009113D01*
X187933497Y-76989737D01*
X188079179Y-76929394D01*
X188210289Y-76841789D01*
X188321789Y-76730289D01*
X188330948Y-76716582D01*
X188940001Y-76716582D01*
X188946408Y-76787102D01*
X188946409Y-76787107D01*
X188996981Y-76949396D01*
X189084927Y-77094877D01*
X189205122Y-77215072D01*
X189350604Y-77303019D01*
X189350603Y-77303019D01*
X189512894Y-77353590D01*
X189512892Y-77353590D01*
X189583418Y-77359999D01*
X190165000Y-77359999D01*
X190246581Y-77359999D01*
X190317102Y-77353591D01*
X190317107Y-77353590D01*
X190479396Y-77303018D01*
X190624875Y-77215073D01*
X190628053Y-77212584D01*
X190630809Y-77211486D01*
X190631293Y-77211194D01*
X190631341Y-77211274D01*
X190692965Y-77186734D01*
X190761548Y-77200082D01*
X190792208Y-77222513D01*
X190852267Y-77282572D01*
X190852271Y-77282575D01*
X190996507Y-77371542D01*
X190996518Y-77371547D01*
X191157393Y-77424855D01*
X191256683Y-77434999D01*
X191280000Y-77434998D01*
X191280000Y-76710000D01*
X190165000Y-76710000D01*
X190165000Y-77359999D01*
X189583418Y-77359999D01*
X189664999Y-77359998D01*
X189665000Y-77359998D01*
X189665000Y-76710000D01*
X188940001Y-76710000D01*
X188940001Y-76716582D01*
X188330948Y-76716582D01*
X188409394Y-76599179D01*
X188469737Y-76453497D01*
X188500500Y-76298842D01*
X188500500Y-76141158D01*
X188500500Y-76141155D01*
X188500499Y-76141153D01*
X188484812Y-76062292D01*
X188469737Y-75986503D01*
X188467163Y-75980288D01*
X188409397Y-75840827D01*
X188409390Y-75840814D01*
X188321789Y-75709711D01*
X188321786Y-75709707D01*
X188210292Y-75598213D01*
X188210288Y-75598210D01*
X188079185Y-75510609D01*
X188079172Y-75510602D01*
X187933501Y-75450264D01*
X187933489Y-75450261D01*
X187778845Y-75419500D01*
X187778842Y-75419500D01*
X187621158Y-75419500D01*
X187557737Y-75432115D01*
X187488146Y-75425886D01*
X187456490Y-75407648D01*
X187443906Y-75397667D01*
X187417546Y-75362454D01*
X187302331Y-75276204D01*
X187280508Y-75268064D01*
X187265149Y-75255882D01*
X187255846Y-75242702D01*
X187242935Y-75233036D01*
X187236114Y-75214746D01*
X187224858Y-75198799D01*
X187224157Y-75182684D01*
X187218521Y-75167570D01*
X187222671Y-75148495D01*
X187221824Y-75128995D01*
X187229947Y-75115059D01*
X187233377Y-75099298D01*
X187254521Y-75071054D01*
X187798975Y-74526602D01*
X187874899Y-74395098D01*
X187874899Y-74395097D01*
X187878963Y-74388059D01*
X187881434Y-74389485D01*
X187916575Y-74345837D01*
X187982859Y-74323742D01*
X187999946Y-74324303D01*
X188011655Y-74325500D01*
X188321718Y-74325499D01*
X188388757Y-74345183D01*
X188409399Y-74361818D01*
X188903181Y-74855600D01*
X188936666Y-74916923D01*
X188939500Y-74943281D01*
X188939500Y-75066613D01*
X188945913Y-75137192D01*
X188945913Y-75137194D01*
X188945914Y-75137196D01*
X188996522Y-75299606D01*
X189081757Y-75440602D01*
X189084530Y-75445188D01*
X189187015Y-75547673D01*
X189220500Y-75608996D01*
X189215516Y-75678688D01*
X189187015Y-75723035D01*
X189084928Y-75825121D01*
X189084927Y-75825122D01*
X188996980Y-75970604D01*
X188946409Y-76132893D01*
X188940000Y-76203427D01*
X188940000Y-76210000D01*
X191406000Y-76210000D01*
X191473039Y-76229685D01*
X191518794Y-76282489D01*
X191530000Y-76334000D01*
X191530000Y-76460000D01*
X191656000Y-76460000D01*
X191723039Y-76479685D01*
X191768794Y-76532489D01*
X191780000Y-76584000D01*
X191780000Y-77434999D01*
X191803308Y-77434999D01*
X191803322Y-77434998D01*
X191902607Y-77424855D01*
X192063481Y-77371547D01*
X192063492Y-77371542D01*
X192207731Y-77282573D01*
X192216959Y-77273345D01*
X192278279Y-77239856D01*
X192347971Y-77244835D01*
X192392327Y-77273339D01*
X192401955Y-77282967D01*
X192401959Y-77282970D01*
X192546294Y-77371998D01*
X192546297Y-77371999D01*
X192546303Y-77372003D01*
X192707292Y-77425349D01*
X192806655Y-77435500D01*
X193353344Y-77435499D01*
X193353352Y-77435498D01*
X193353355Y-77435498D01*
X193407760Y-77429940D01*
X193452708Y-77425349D01*
X193613697Y-77372003D01*
X193758044Y-77282968D01*
X193825233Y-77215778D01*
X193886552Y-77182296D01*
X193937100Y-77181845D01*
X193993477Y-77193059D01*
X194081155Y-77210500D01*
X194081158Y-77210500D01*
X194238844Y-77210500D01*
X194238845Y-77210499D01*
X194393497Y-77179737D01*
X194539179Y-77119394D01*
X194670289Y-77031789D01*
X194781789Y-76920289D01*
X194869394Y-76789179D01*
X194929737Y-76643497D01*
X194960500Y-76488842D01*
X194960500Y-76331158D01*
X194960500Y-76331155D01*
X194960499Y-76331153D01*
X194942315Y-76239737D01*
X194929737Y-76176503D01*
X194915097Y-76141158D01*
X194869397Y-76030827D01*
X194869390Y-76030814D01*
X194781789Y-75899711D01*
X194781786Y-75899707D01*
X194670292Y-75788213D01*
X194670288Y-75788210D01*
X194565330Y-75718079D01*
X194520525Y-75664467D01*
X194511818Y-75595142D01*
X194541973Y-75532114D01*
X194565331Y-75511875D01*
X194616530Y-75477664D01*
X194640289Y-75461789D01*
X194751789Y-75350289D01*
X194839394Y-75219179D01*
X194899737Y-75073497D01*
X194930500Y-74918842D01*
X194930500Y-74761158D01*
X194930500Y-74761155D01*
X194930499Y-74761153D01*
X194899738Y-74606510D01*
X194899737Y-74606503D01*
X194894697Y-74594336D01*
X194839397Y-74460827D01*
X194839390Y-74460814D01*
X194751789Y-74329711D01*
X194751786Y-74329707D01*
X194640292Y-74218213D01*
X194640288Y-74218210D01*
X194509185Y-74130609D01*
X194509172Y-74130602D01*
X194363501Y-74070264D01*
X194363489Y-74070261D01*
X194208845Y-74039500D01*
X194208842Y-74039500D01*
X194051158Y-74039500D01*
X194051155Y-74039500D01*
X194045093Y-74040097D01*
X194044841Y-74037543D01*
X193986358Y-74032255D01*
X193931221Y-73989341D01*
X193908037Y-73923430D01*
X193924167Y-73855448D01*
X193962972Y-73813807D01*
X194047782Y-73757139D01*
X194187139Y-73617782D01*
X194296632Y-73453914D01*
X194372051Y-73271835D01*
X194394313Y-73159917D01*
X194410500Y-73078543D01*
X194410500Y-72881456D01*
X194372052Y-72688170D01*
X194372051Y-72688169D01*
X194372051Y-72688165D01*
X194319923Y-72562315D01*
X194296635Y-72506092D01*
X194296628Y-72506079D01*
X194187139Y-72342218D01*
X194187136Y-72342214D01*
X194047785Y-72202863D01*
X194047781Y-72202860D01*
X193883920Y-72093371D01*
X193883907Y-72093364D01*
X193701839Y-72017950D01*
X193701829Y-72017947D01*
X193508543Y-71979500D01*
X193508541Y-71979500D01*
X193311459Y-71979500D01*
X193311457Y-71979500D01*
X193118170Y-72017947D01*
X193118160Y-72017950D01*
X192936092Y-72093364D01*
X192936079Y-72093371D01*
X192772218Y-72202860D01*
X192772213Y-72202864D01*
X192735746Y-72239331D01*
X192674423Y-72272816D01*
X192604731Y-72267830D01*
X192548798Y-72225958D01*
X192524382Y-72160494D01*
X192524708Y-72139045D01*
X192534999Y-72038319D01*
X192535000Y-72038309D01*
X192535000Y-72015000D01*
X191684000Y-72015000D01*
X191616961Y-71995315D01*
X191571206Y-71942511D01*
X191560000Y-71891000D01*
X191560000Y-71639000D01*
X191579685Y-71571961D01*
X191632489Y-71526206D01*
X191684000Y-71515000D01*
X192534999Y-71515000D01*
X192534999Y-71491692D01*
X192534998Y-71491677D01*
X192524855Y-71392392D01*
X192471547Y-71231518D01*
X192471542Y-71231507D01*
X192382575Y-71087271D01*
X192297320Y-71002015D01*
X192263836Y-70940691D01*
X192268820Y-70871000D01*
X192310692Y-70815066D01*
X192337540Y-70799777D01*
X192459179Y-70749394D01*
X192590289Y-70661789D01*
X192701789Y-70550289D01*
X192789394Y-70419179D01*
X192849737Y-70273497D01*
X192880500Y-70118842D01*
X192880500Y-69967263D01*
X192900185Y-69900224D01*
X192952989Y-69854469D01*
X192957020Y-69852714D01*
X192989179Y-69839394D01*
X193120289Y-69751789D01*
X193152992Y-69719086D01*
X193236097Y-69635982D01*
X193237634Y-69637519D01*
X193287267Y-69603699D01*
X193357112Y-69601817D01*
X193413076Y-69634011D01*
X196446981Y-72667916D01*
X196480466Y-72729239D01*
X196483300Y-72755597D01*
X196483300Y-80498897D01*
X196480383Y-80508827D01*
X196481643Y-80519104D01*
X196470706Y-80541785D01*
X196463615Y-80565936D01*
X196454987Y-80574385D01*
X196451297Y-80582039D01*
X196425120Y-80603635D01*
X196424146Y-80604590D01*
X196423806Y-80604798D01*
X196349815Y-80649528D01*
X196348089Y-80651253D01*
X196339846Y-80656311D01*
X196312692Y-80663671D01*
X196286551Y-80674079D01*
X196279420Y-80672690D01*
X196272410Y-80674591D01*
X196245585Y-80666102D01*
X196217970Y-80660725D01*
X196207663Y-80654101D01*
X196205797Y-80653511D01*
X196204812Y-80652326D01*
X196200187Y-80649530D01*
X196200185Y-80649528D01*
X196054606Y-80561522D01*
X195892196Y-80510914D01*
X195892194Y-80510913D01*
X195892192Y-80510913D01*
X195842778Y-80506423D01*
X195821616Y-80504500D01*
X195158384Y-80504500D01*
X195139145Y-80506248D01*
X195087807Y-80510913D01*
X194925393Y-80561522D01*
X194806288Y-80633524D01*
X194738733Y-80651360D01*
X194694687Y-80641969D01*
X194678497Y-80635263D01*
X194678489Y-80635261D01*
X194523845Y-80604500D01*
X194523842Y-80604500D01*
X194366158Y-80604500D01*
X194366155Y-80604500D01*
X194211510Y-80635261D01*
X194211498Y-80635264D01*
X194065827Y-80695602D01*
X194065814Y-80695609D01*
X193934711Y-80783210D01*
X193934707Y-80783213D01*
X193823213Y-80894707D01*
X193823210Y-80894711D01*
X193735609Y-81025814D01*
X193735602Y-81025827D01*
X193675264Y-81171498D01*
X193675261Y-81171510D01*
X193644500Y-81326153D01*
X193644500Y-81483846D01*
X193675261Y-81638489D01*
X193675264Y-81638501D01*
X193735602Y-81784172D01*
X193735609Y-81784185D01*
X193823210Y-81915288D01*
X193823213Y-81915292D01*
X193934707Y-82026786D01*
X193934711Y-82026789D01*
X194065814Y-82114390D01*
X194065827Y-82114397D01*
X194177064Y-82160472D01*
X194211503Y-82174737D01*
X194330173Y-82198342D01*
X194366153Y-82205499D01*
X194366156Y-82205500D01*
X194366158Y-82205500D01*
X194523843Y-82205500D01*
X194559828Y-82198342D01*
X194629419Y-82204569D01*
X194684597Y-82247431D01*
X194707842Y-82313321D01*
X194691775Y-82381318D01*
X194671704Y-82407638D01*
X194659529Y-82419812D01*
X194571522Y-82565393D01*
X194520913Y-82727807D01*
X194514500Y-82798386D01*
X194514500Y-83311613D01*
X194520913Y-83382192D01*
X194520913Y-83382194D01*
X194520914Y-83382196D01*
X194571522Y-83544606D01*
X194659528Y-83690185D01*
X194779815Y-83810472D01*
X194779817Y-83810473D01*
X194779819Y-83810475D01*
X194779820Y-83810476D01*
X194855173Y-83856028D01*
X194902361Y-83907555D01*
X194910155Y-83933353D01*
X194911197Y-83933074D01*
X194913300Y-83940922D01*
X194913300Y-83940924D01*
X194943501Y-84053637D01*
X194952601Y-84087598D01*
X194952602Y-84087601D01*
X195028522Y-84219098D01*
X195028527Y-84219104D01*
X195872242Y-85062819D01*
X195905727Y-85124142D01*
X195900743Y-85193834D01*
X195858871Y-85249767D01*
X195793407Y-85274184D01*
X195784561Y-85274500D01*
X195122130Y-85274500D01*
X195122119Y-85274501D01*
X195083253Y-85278679D01*
X195067529Y-85279364D01*
X195062111Y-85279255D01*
X195017873Y-85274500D01*
X194823698Y-85274500D01*
X194822445Y-85274475D01*
X194790244Y-85264318D01*
X194757879Y-85254815D01*
X194757038Y-85253845D01*
X194755811Y-85253458D01*
X194734195Y-85227482D01*
X194712124Y-85202011D01*
X194711569Y-85200292D01*
X194711119Y-85199752D01*
X194710948Y-85198371D01*
X194703301Y-85174691D01*
X194695895Y-85137465D01*
X194689737Y-85106503D01*
X194671643Y-85062819D01*
X194629397Y-84960827D01*
X194629390Y-84960814D01*
X194541789Y-84829711D01*
X194541786Y-84829707D01*
X194430292Y-84718213D01*
X194430288Y-84718210D01*
X194299185Y-84630609D01*
X194299172Y-84630602D01*
X194153501Y-84570264D01*
X194153489Y-84570261D01*
X193998845Y-84539500D01*
X193998842Y-84539500D01*
X193841158Y-84539500D01*
X193841155Y-84539500D01*
X193686510Y-84570261D01*
X193686498Y-84570264D01*
X193540827Y-84630602D01*
X193540814Y-84630609D01*
X193409711Y-84718210D01*
X193409707Y-84718213D01*
X193298213Y-84829707D01*
X193298210Y-84829711D01*
X193210609Y-84960814D01*
X193210602Y-84960827D01*
X193150264Y-85106498D01*
X193150261Y-85106510D01*
X193119500Y-85261153D01*
X193119500Y-85418843D01*
X193122740Y-85435134D01*
X193116511Y-85504725D01*
X193073646Y-85559902D01*
X193070013Y-85562424D01*
X192912218Y-85667860D01*
X192912214Y-85667863D01*
X192772863Y-85807214D01*
X192772860Y-85807218D01*
X192663371Y-85971079D01*
X192663364Y-85971092D01*
X192587950Y-86153160D01*
X192587947Y-86153170D01*
X192549500Y-86346456D01*
X192549500Y-86346459D01*
X192549500Y-87643541D01*
X192549500Y-87643543D01*
X192549499Y-87643543D01*
X192587947Y-87836829D01*
X192587950Y-87836839D01*
X192663364Y-88018907D01*
X192663371Y-88018920D01*
X192772860Y-88182781D01*
X192772863Y-88182785D01*
X192912214Y-88322136D01*
X192912218Y-88322139D01*
X193076079Y-88431628D01*
X193076092Y-88431635D01*
X193192879Y-88480009D01*
X193258165Y-88507051D01*
X193258169Y-88507051D01*
X193258170Y-88507052D01*
X193451456Y-88545500D01*
X193451459Y-88545500D01*
X193648543Y-88545500D01*
X193778582Y-88519632D01*
X193841835Y-88507051D01*
X194023914Y-88431632D01*
X194187782Y-88322139D01*
X194327139Y-88182782D01*
X194436632Y-88018914D01*
X194512051Y-87836835D01*
X194535846Y-87717211D01*
X194550500Y-87643543D01*
X194550500Y-87639499D01*
X194553050Y-87630813D01*
X194551762Y-87621852D01*
X194562740Y-87597811D01*
X194570185Y-87572460D01*
X194577025Y-87566532D01*
X194580787Y-87558296D01*
X194603021Y-87544006D01*
X194622989Y-87526705D01*
X194633503Y-87524417D01*
X194639565Y-87520522D01*
X194674500Y-87515499D01*
X194718500Y-87515499D01*
X194785539Y-87535184D01*
X194831294Y-87587988D01*
X194842500Y-87639499D01*
X194842500Y-88141807D01*
X194858070Y-88220081D01*
X194866614Y-88263035D01*
X194900062Y-88343784D01*
X194913917Y-88377233D01*
X194962644Y-88450158D01*
X194972583Y-88465033D01*
X194982589Y-88480009D01*
X194982591Y-88480011D01*
X196792589Y-90290008D01*
X196843844Y-90341263D01*
X196879994Y-90377413D01*
X196879996Y-90377414D01*
X196982756Y-90446076D01*
X196982758Y-90446077D01*
X196982767Y-90446083D01*
X197005324Y-90455426D01*
X197030071Y-90465677D01*
X197066089Y-90480596D01*
X197096966Y-90493386D01*
X197218192Y-90517499D01*
X197218196Y-90517500D01*
X197218197Y-90517500D01*
X198921804Y-90517500D01*
X198921805Y-90517499D01*
X199043035Y-90493386D01*
X199123784Y-90459937D01*
X199157233Y-90446083D01*
X199260008Y-90377411D01*
X199347411Y-90290008D01*
X200757411Y-88880008D01*
X200777937Y-88849289D01*
X200826083Y-88777233D01*
X200873385Y-88663035D01*
X200888856Y-88585261D01*
X200897500Y-88541805D01*
X200897500Y-87639499D01*
X200900050Y-87630813D01*
X200898762Y-87621852D01*
X200909740Y-87597811D01*
X200917185Y-87572460D01*
X200924025Y-87566532D01*
X200927787Y-87558296D01*
X200950021Y-87544006D01*
X200969989Y-87526705D01*
X200980503Y-87524417D01*
X200986565Y-87520522D01*
X201021500Y-87515499D01*
X201065500Y-87515499D01*
X201132539Y-87535184D01*
X201178294Y-87587988D01*
X201189500Y-87639499D01*
X201189500Y-87643541D01*
X201189500Y-87643543D01*
X201189499Y-87643543D01*
X201227947Y-87836829D01*
X201227950Y-87836839D01*
X201303364Y-88018907D01*
X201303371Y-88018920D01*
X201412860Y-88182781D01*
X201412863Y-88182785D01*
X201552214Y-88322136D01*
X201552218Y-88322139D01*
X201716079Y-88431628D01*
X201716092Y-88431635D01*
X201832879Y-88480009D01*
X201898165Y-88507051D01*
X201898169Y-88507051D01*
X201898170Y-88507052D01*
X202091456Y-88545500D01*
X202091459Y-88545500D01*
X202288543Y-88545500D01*
X202418582Y-88519632D01*
X202481835Y-88507051D01*
X202663914Y-88431632D01*
X202827782Y-88322139D01*
X202967139Y-88182782D01*
X203076632Y-88018914D01*
X203152051Y-87836835D01*
X203175846Y-87717211D01*
X203190500Y-87643543D01*
X203190500Y-86346456D01*
X203152052Y-86153170D01*
X203152051Y-86153169D01*
X203152051Y-86153165D01*
X203152049Y-86153160D01*
X203076635Y-85971092D01*
X203076628Y-85971079D01*
X202967139Y-85807218D01*
X202967136Y-85807214D01*
X202827784Y-85667862D01*
X202788917Y-85641892D01*
X202696465Y-85580118D01*
X202651661Y-85526507D01*
X202642954Y-85457183D01*
X202643733Y-85452857D01*
X202650500Y-85418842D01*
X202650500Y-85261158D01*
X202650500Y-85261155D01*
X202650499Y-85261153D01*
X202643801Y-85227482D01*
X202619737Y-85106503D01*
X202601643Y-85062819D01*
X202559397Y-84960827D01*
X202559390Y-84960814D01*
X202471789Y-84829711D01*
X202471786Y-84829707D01*
X202360292Y-84718213D01*
X202360288Y-84718210D01*
X202229185Y-84630609D01*
X202229173Y-84630602D01*
X202166320Y-84604569D01*
X202111916Y-84560729D01*
X202089851Y-84494435D01*
X202107130Y-84426735D01*
X202126085Y-84402332D01*
X202257811Y-84270608D01*
X202292226Y-84219102D01*
X202326483Y-84167833D01*
X202359717Y-84087598D01*
X202373786Y-84053634D01*
X202397900Y-83932403D01*
X202397900Y-83808797D01*
X202397900Y-79788197D01*
X202397900Y-79308597D01*
X202397900Y-74614558D01*
X202417585Y-74547519D01*
X202470389Y-74501764D01*
X202521485Y-74490559D01*
X209375087Y-74467656D01*
X209442190Y-74487116D01*
X209488122Y-74539767D01*
X209499500Y-74591655D01*
X209499500Y-93375500D01*
X209479815Y-93442539D01*
X209427011Y-93488294D01*
X209375500Y-93499500D01*
X163624500Y-93499500D01*
X163557461Y-93479815D01*
X163511706Y-93427011D01*
X163500500Y-93375500D01*
X163500500Y-90893713D01*
X164399500Y-90893713D01*
X164399500Y-91106286D01*
X164429859Y-91297968D01*
X164432754Y-91316243D01*
X164494578Y-91506518D01*
X164498444Y-91518414D01*
X164594951Y-91707820D01*
X164719890Y-91879786D01*
X164870213Y-92030109D01*
X165042179Y-92155048D01*
X165042181Y-92155049D01*
X165042184Y-92155051D01*
X165231588Y-92251557D01*
X165433757Y-92317246D01*
X165643713Y-92350500D01*
X165643714Y-92350500D01*
X165856286Y-92350500D01*
X165856287Y-92350500D01*
X166066243Y-92317246D01*
X166078320Y-92313322D01*
X189045001Y-92313322D01*
X189055144Y-92412607D01*
X189108452Y-92573481D01*
X189108457Y-92573492D01*
X189197424Y-92717728D01*
X189197427Y-92717732D01*
X189317267Y-92837572D01*
X189317271Y-92837575D01*
X189461507Y-92926542D01*
X189461518Y-92926547D01*
X189622393Y-92979855D01*
X189721683Y-92989999D01*
X190270000Y-92989999D01*
X190318308Y-92989999D01*
X190318322Y-92989998D01*
X190417607Y-92979855D01*
X190578481Y-92926547D01*
X190578492Y-92926542D01*
X190722728Y-92837575D01*
X190722732Y-92837572D01*
X190732319Y-92827986D01*
X190793642Y-92794501D01*
X190863334Y-92799485D01*
X190907681Y-92827986D01*
X190927267Y-92847572D01*
X190927271Y-92847575D01*
X191071507Y-92936542D01*
X191071518Y-92936547D01*
X191232393Y-92989855D01*
X191331683Y-92999999D01*
X191379999Y-92999998D01*
X191380000Y-92999998D01*
X191380000Y-92300000D01*
X190586362Y-92300000D01*
X190552306Y-92290000D01*
X190270000Y-92290000D01*
X190270000Y-92989999D01*
X189721683Y-92989999D01*
X189769999Y-92989998D01*
X189770000Y-92989998D01*
X189770000Y-92290000D01*
X189045001Y-92290000D01*
X189045001Y-92313322D01*
X166078320Y-92313322D01*
X166268412Y-92251557D01*
X166457816Y-92155051D01*
X166507562Y-92118909D01*
X166629786Y-92030109D01*
X166629788Y-92030106D01*
X166629792Y-92030104D01*
X166780104Y-91879792D01*
X166780106Y-91879788D01*
X166780109Y-91879786D01*
X166905048Y-91707820D01*
X166905047Y-91707820D01*
X166905051Y-91707816D01*
X167001557Y-91518412D01*
X167067246Y-91316243D01*
X167100500Y-91106287D01*
X167100500Y-90893713D01*
X167067246Y-90683757D01*
X167001557Y-90481588D01*
X166905051Y-90292184D01*
X166905049Y-90292181D01*
X166905048Y-90292179D01*
X166780109Y-90120213D01*
X166629786Y-89969890D01*
X166457819Y-89844951D01*
X166457818Y-89844950D01*
X166457816Y-89844949D01*
X166268412Y-89748443D01*
X166066243Y-89682754D01*
X166066241Y-89682753D01*
X166066240Y-89682753D01*
X165999201Y-89672135D01*
X168759500Y-89672135D01*
X168759500Y-91767870D01*
X168759501Y-91767876D01*
X168765908Y-91827483D01*
X168816202Y-91962328D01*
X168816206Y-91962335D01*
X168902452Y-92077544D01*
X168902455Y-92077547D01*
X169017664Y-92163793D01*
X169017671Y-92163797D01*
X169152517Y-92214091D01*
X169152516Y-92214091D01*
X169159444Y-92214835D01*
X169212127Y-92220500D01*
X170107872Y-92220499D01*
X170167483Y-92214091D01*
X170251668Y-92182691D01*
X170321356Y-92177708D01*
X170338329Y-92182691D01*
X170422517Y-92214091D01*
X170482127Y-92220500D01*
X171377872Y-92220499D01*
X171437483Y-92214091D01*
X171521668Y-92182691D01*
X171591356Y-92177708D01*
X171608329Y-92182691D01*
X171692517Y-92214091D01*
X171752127Y-92220500D01*
X172647872Y-92220499D01*
X172707483Y-92214091D01*
X172842331Y-92163796D01*
X172900167Y-92120500D01*
X172946550Y-92085778D01*
X173012014Y-92061360D01*
X173045053Y-92063427D01*
X173181155Y-92090500D01*
X173181158Y-92090500D01*
X173338844Y-92090500D01*
X173338845Y-92090499D01*
X173493497Y-92059737D01*
X173639179Y-91999394D01*
X173770289Y-91911789D01*
X173881789Y-91800289D01*
X173969394Y-91669179D01*
X174029737Y-91523497D01*
X174060500Y-91368842D01*
X174060500Y-91241153D01*
X175969500Y-91241153D01*
X175969500Y-91398846D01*
X176000261Y-91553489D01*
X176000264Y-91553501D01*
X176060602Y-91699172D01*
X176060609Y-91699185D01*
X176148210Y-91830288D01*
X176148213Y-91830292D01*
X176259707Y-91941786D01*
X176259711Y-91941789D01*
X176390814Y-92029390D01*
X176390827Y-92029397D01*
X176520250Y-92083005D01*
X176536503Y-92089737D01*
X176683160Y-92118909D01*
X176691153Y-92120499D01*
X176691156Y-92120500D01*
X176691158Y-92120500D01*
X176848844Y-92120500D01*
X176937901Y-92102785D01*
X176969205Y-92096558D01*
X177038797Y-92102785D01*
X177067705Y-92118907D01*
X177127665Y-92163793D01*
X177127668Y-92163795D01*
X177127671Y-92163797D01*
X177262517Y-92214091D01*
X177262516Y-92214091D01*
X177269444Y-92214835D01*
X177322127Y-92220500D01*
X178217872Y-92220499D01*
X178277483Y-92214091D01*
X178361668Y-92182691D01*
X178431356Y-92177708D01*
X178448329Y-92182691D01*
X178532517Y-92214091D01*
X178592127Y-92220500D01*
X179487872Y-92220499D01*
X179547483Y-92214091D01*
X179631668Y-92182691D01*
X179701356Y-92177708D01*
X179718329Y-92182691D01*
X179802517Y-92214091D01*
X179862127Y-92220500D01*
X180757872Y-92220499D01*
X180817483Y-92214091D01*
X180901668Y-92182691D01*
X180971356Y-92177708D01*
X180988329Y-92182691D01*
X181072517Y-92214091D01*
X181132127Y-92220500D01*
X182027872Y-92220499D01*
X182087483Y-92214091D01*
X182171668Y-92182691D01*
X182241356Y-92177708D01*
X182258329Y-92182691D01*
X182342517Y-92214091D01*
X182402127Y-92220500D01*
X183297872Y-92220499D01*
X183357483Y-92214091D01*
X183442382Y-92182425D01*
X183512070Y-92177440D01*
X183529047Y-92182425D01*
X183612623Y-92213598D01*
X183672155Y-92219999D01*
X183672172Y-92220000D01*
X183870000Y-92220000D01*
X183870000Y-89220000D01*
X184370000Y-89220000D01*
X184370000Y-92220000D01*
X184567828Y-92220000D01*
X184567844Y-92219999D01*
X184627374Y-92213598D01*
X184627377Y-92213597D01*
X184710950Y-92182426D01*
X184780641Y-92177441D01*
X184797608Y-92182422D01*
X184882517Y-92214091D01*
X184942127Y-92220500D01*
X185837872Y-92220499D01*
X185897483Y-92214091D01*
X185981668Y-92182691D01*
X186051356Y-92177708D01*
X186068329Y-92182691D01*
X186152517Y-92214091D01*
X186212127Y-92220500D01*
X187107872Y-92220499D01*
X187167483Y-92214091D01*
X187302331Y-92163796D01*
X187393954Y-92095206D01*
X187459417Y-92070789D01*
X187492457Y-92072856D01*
X187581155Y-92090500D01*
X187581158Y-92090500D01*
X187738844Y-92090500D01*
X187738845Y-92090499D01*
X187893497Y-92059737D01*
X188039179Y-91999394D01*
X188170289Y-91911789D01*
X188281789Y-91800289D01*
X188369394Y-91669179D01*
X188429737Y-91523497D01*
X188460500Y-91368842D01*
X188460500Y-91211158D01*
X188460500Y-91211155D01*
X188460499Y-91211153D01*
X188451923Y-91168040D01*
X188429737Y-91056503D01*
X188416152Y-91023705D01*
X188369397Y-90910827D01*
X188369390Y-90910814D01*
X188281789Y-90779711D01*
X188281786Y-90779707D01*
X188170292Y-90668213D01*
X188170288Y-90668210D01*
X188039185Y-90580609D01*
X188039172Y-90580602D01*
X187893501Y-90520264D01*
X187893491Y-90520261D01*
X187738151Y-90489362D01*
X187721394Y-90480596D01*
X187702916Y-90476577D01*
X187677877Y-90457832D01*
X187676241Y-90456977D01*
X187674662Y-90455426D01*
X187596818Y-90377582D01*
X187563333Y-90316259D01*
X187560499Y-90289901D01*
X187560499Y-90216647D01*
X189044500Y-90216647D01*
X189044500Y-90763337D01*
X189044501Y-90763355D01*
X189054650Y-90862707D01*
X189054651Y-90862710D01*
X189107996Y-91023694D01*
X189108001Y-91023705D01*
X189197029Y-91168040D01*
X189197032Y-91168044D01*
X189206660Y-91177672D01*
X189240145Y-91238995D01*
X189235161Y-91308687D01*
X189206663Y-91353031D01*
X189197428Y-91362265D01*
X189197424Y-91362271D01*
X189108457Y-91506507D01*
X189108452Y-91506518D01*
X189055144Y-91667393D01*
X189045000Y-91766677D01*
X189045000Y-91790000D01*
X191063638Y-91790000D01*
X191097694Y-91800000D01*
X191506000Y-91800000D01*
X191573039Y-91819685D01*
X191618794Y-91872489D01*
X191630000Y-91924000D01*
X191630000Y-92050000D01*
X191756000Y-92050000D01*
X191823039Y-92069685D01*
X191868794Y-92122489D01*
X191880000Y-92174000D01*
X191880000Y-92999999D01*
X191928308Y-92999999D01*
X191928322Y-92999998D01*
X192027607Y-92989855D01*
X192188481Y-92936547D01*
X192188492Y-92936542D01*
X192332728Y-92847575D01*
X192332732Y-92847572D01*
X192452572Y-92727732D01*
X192452575Y-92727728D01*
X192541542Y-92583492D01*
X192541547Y-92583481D01*
X192594856Y-92422606D01*
X192602430Y-92348470D01*
X192628826Y-92283778D01*
X192686007Y-92243626D01*
X192755818Y-92240763D01*
X192813469Y-92273391D01*
X192912214Y-92372136D01*
X192912218Y-92372139D01*
X193076079Y-92481628D01*
X193076092Y-92481635D01*
X193258160Y-92557049D01*
X193258165Y-92557051D01*
X193258169Y-92557051D01*
X193258170Y-92557052D01*
X193451456Y-92595500D01*
X193451459Y-92595500D01*
X193648543Y-92595500D01*
X193778582Y-92569632D01*
X193841835Y-92557051D01*
X194023914Y-92481632D01*
X194187782Y-92372139D01*
X194327139Y-92232782D01*
X194436632Y-92068914D01*
X194512051Y-91886835D01*
X194529266Y-91800289D01*
X194550500Y-91693543D01*
X201189499Y-91693543D01*
X201227947Y-91886829D01*
X201227950Y-91886839D01*
X201303364Y-92068907D01*
X201303371Y-92068920D01*
X201412860Y-92232781D01*
X201412863Y-92232785D01*
X201552214Y-92372136D01*
X201552218Y-92372139D01*
X201716079Y-92481628D01*
X201716092Y-92481635D01*
X201898160Y-92557049D01*
X201898165Y-92557051D01*
X201898169Y-92557051D01*
X201898170Y-92557052D01*
X202091456Y-92595500D01*
X202091459Y-92595500D01*
X202288543Y-92595500D01*
X202418582Y-92569632D01*
X202481835Y-92557051D01*
X202663914Y-92481632D01*
X202827782Y-92372139D01*
X202967139Y-92232782D01*
X203076632Y-92068914D01*
X203152051Y-91886835D01*
X203169266Y-91800289D01*
X203190500Y-91693543D01*
X203190500Y-90893713D01*
X205399500Y-90893713D01*
X205399500Y-91106286D01*
X205429859Y-91297968D01*
X205432754Y-91316243D01*
X205494578Y-91506518D01*
X205498444Y-91518414D01*
X205594951Y-91707820D01*
X205719890Y-91879786D01*
X205870213Y-92030109D01*
X206042179Y-92155048D01*
X206042181Y-92155049D01*
X206042184Y-92155051D01*
X206231588Y-92251557D01*
X206433757Y-92317246D01*
X206643713Y-92350500D01*
X206643714Y-92350500D01*
X206856286Y-92350500D01*
X206856287Y-92350500D01*
X207066243Y-92317246D01*
X207268412Y-92251557D01*
X207457816Y-92155051D01*
X207507562Y-92118909D01*
X207629786Y-92030109D01*
X207629788Y-92030106D01*
X207629792Y-92030104D01*
X207780104Y-91879792D01*
X207780106Y-91879788D01*
X207780109Y-91879786D01*
X207905048Y-91707820D01*
X207905047Y-91707820D01*
X207905051Y-91707816D01*
X208001557Y-91518412D01*
X208067246Y-91316243D01*
X208100500Y-91106287D01*
X208100500Y-90893713D01*
X208067246Y-90683757D01*
X208001557Y-90481588D01*
X207905051Y-90292184D01*
X207905049Y-90292181D01*
X207905048Y-90292179D01*
X207780109Y-90120213D01*
X207629786Y-89969890D01*
X207457820Y-89844951D01*
X207268414Y-89748444D01*
X207268413Y-89748443D01*
X207268412Y-89748443D01*
X207066243Y-89682754D01*
X207066241Y-89682753D01*
X207066240Y-89682753D01*
X206904957Y-89657208D01*
X206856287Y-89649500D01*
X206643713Y-89649500D01*
X206595042Y-89657208D01*
X206433760Y-89682753D01*
X206231585Y-89748444D01*
X206042179Y-89844951D01*
X205870213Y-89969890D01*
X205719890Y-90120213D01*
X205594951Y-90292179D01*
X205498444Y-90481585D01*
X205432753Y-90683760D01*
X205399500Y-90893713D01*
X203190500Y-90893713D01*
X203190500Y-90696456D01*
X203152052Y-90503170D01*
X203152051Y-90503169D01*
X203152051Y-90503165D01*
X203148001Y-90493387D01*
X203076635Y-90321092D01*
X203076628Y-90321079D01*
X202967139Y-90157218D01*
X202967136Y-90157214D01*
X202827785Y-90017863D01*
X202827781Y-90017860D01*
X202663920Y-89908371D01*
X202663907Y-89908364D01*
X202481839Y-89832950D01*
X202481829Y-89832947D01*
X202288543Y-89794500D01*
X202288541Y-89794500D01*
X202091459Y-89794500D01*
X202091457Y-89794500D01*
X201898170Y-89832947D01*
X201898160Y-89832950D01*
X201716092Y-89908364D01*
X201716079Y-89908371D01*
X201552218Y-90017860D01*
X201552214Y-90017863D01*
X201412863Y-90157214D01*
X201412860Y-90157218D01*
X201303371Y-90321079D01*
X201303364Y-90321092D01*
X201227950Y-90503160D01*
X201227947Y-90503170D01*
X201189500Y-90696456D01*
X201189500Y-90696459D01*
X201189500Y-91693541D01*
X201189500Y-91693543D01*
X201189499Y-91693543D01*
X194550500Y-91693543D01*
X194550500Y-90696456D01*
X194512052Y-90503170D01*
X194512051Y-90503169D01*
X194512051Y-90503165D01*
X194508001Y-90493387D01*
X194436635Y-90321092D01*
X194436628Y-90321079D01*
X194327139Y-90157218D01*
X194327136Y-90157214D01*
X194187785Y-90017863D01*
X194187781Y-90017860D01*
X194023920Y-89908371D01*
X194023907Y-89908364D01*
X193841839Y-89832950D01*
X193841829Y-89832947D01*
X193648543Y-89794500D01*
X193648541Y-89794500D01*
X193451459Y-89794500D01*
X193451457Y-89794500D01*
X193258170Y-89832947D01*
X193258160Y-89832950D01*
X193076092Y-89908364D01*
X193076079Y-89908371D01*
X192912218Y-90017860D01*
X192789131Y-90140947D01*
X192727808Y-90174431D01*
X192658116Y-90169447D01*
X192602183Y-90127575D01*
X192583744Y-90092269D01*
X192559087Y-90017860D01*
X192542003Y-89966303D01*
X192541999Y-89966297D01*
X192541998Y-89966294D01*
X192452970Y-89821959D01*
X192452967Y-89821955D01*
X192419678Y-89788666D01*
X192386193Y-89727343D01*
X192391177Y-89657651D01*
X192392798Y-89653532D01*
X192409787Y-89612517D01*
X192419737Y-89588497D01*
X192450500Y-89433842D01*
X192450500Y-89276158D01*
X192450500Y-89276155D01*
X192450499Y-89276153D01*
X192440505Y-89225909D01*
X192419737Y-89121503D01*
X192417714Y-89116620D01*
X192359397Y-88975827D01*
X192359390Y-88975814D01*
X192271789Y-88844711D01*
X192271786Y-88844707D01*
X192160292Y-88733213D01*
X192160288Y-88733210D01*
X192029185Y-88645609D01*
X192029172Y-88645602D01*
X191883501Y-88585264D01*
X191883489Y-88585261D01*
X191728845Y-88554500D01*
X191728842Y-88554500D01*
X191571158Y-88554500D01*
X191571155Y-88554500D01*
X191416510Y-88585261D01*
X191416498Y-88585264D01*
X191270827Y-88645602D01*
X191270814Y-88645609D01*
X191139711Y-88733210D01*
X191139707Y-88733213D01*
X191028213Y-88844707D01*
X191028210Y-88844711D01*
X190948275Y-88964342D01*
X190894662Y-89009147D01*
X190825337Y-89017854D01*
X190762310Y-88987699D01*
X190730612Y-88942903D01*
X190719397Y-88915826D01*
X190719390Y-88915814D01*
X190631789Y-88784711D01*
X190631786Y-88784707D01*
X190520292Y-88673213D01*
X190520288Y-88673210D01*
X190389185Y-88585609D01*
X190389172Y-88585602D01*
X190243501Y-88525264D01*
X190243489Y-88525261D01*
X190088845Y-88494500D01*
X190088842Y-88494500D01*
X189931158Y-88494500D01*
X189931155Y-88494500D01*
X189776510Y-88525261D01*
X189776498Y-88525264D01*
X189630827Y-88585602D01*
X189630814Y-88585609D01*
X189499711Y-88673210D01*
X189499707Y-88673213D01*
X189388213Y-88784707D01*
X189388210Y-88784711D01*
X189300609Y-88915814D01*
X189300602Y-88915827D01*
X189240264Y-89061498D01*
X189240261Y-89061510D01*
X189209500Y-89216153D01*
X189209500Y-89373846D01*
X189240261Y-89528489D01*
X189240263Y-89528497D01*
X189265116Y-89588497D01*
X189278917Y-89621817D01*
X189286385Y-89691287D01*
X189255109Y-89753766D01*
X189252038Y-89756949D01*
X189197029Y-89811959D01*
X189108001Y-89956294D01*
X189107996Y-89956305D01*
X189054651Y-90117290D01*
X189044500Y-90216647D01*
X187560499Y-90216647D01*
X187560499Y-89672129D01*
X187560498Y-89672123D01*
X187560497Y-89672116D01*
X187554091Y-89612517D01*
X187503796Y-89477669D01*
X187503795Y-89477668D01*
X187503793Y-89477664D01*
X187417547Y-89362455D01*
X187417544Y-89362452D01*
X187302335Y-89276206D01*
X187302328Y-89276202D01*
X187167482Y-89225908D01*
X187167483Y-89225908D01*
X187107883Y-89219501D01*
X187107881Y-89219500D01*
X187107873Y-89219500D01*
X187107864Y-89219500D01*
X186212129Y-89219500D01*
X186212123Y-89219501D01*
X186152516Y-89225908D01*
X186068332Y-89257307D01*
X185998641Y-89262291D01*
X185981667Y-89257307D01*
X185897482Y-89225908D01*
X185897483Y-89225908D01*
X185837883Y-89219501D01*
X185837881Y-89219500D01*
X185837873Y-89219500D01*
X185837864Y-89219500D01*
X184942129Y-89219500D01*
X184942123Y-89219501D01*
X184882514Y-89225909D01*
X184797617Y-89257573D01*
X184727925Y-89262557D01*
X184710953Y-89257573D01*
X184627382Y-89226403D01*
X184627372Y-89226401D01*
X184567844Y-89220000D01*
X184370000Y-89220000D01*
X183870000Y-89220000D01*
X183672155Y-89220000D01*
X183612627Y-89226401D01*
X183612616Y-89226404D01*
X183529046Y-89257573D01*
X183459354Y-89262557D01*
X183442382Y-89257573D01*
X183357485Y-89225909D01*
X183357483Y-89225908D01*
X183297883Y-89219501D01*
X183297881Y-89219500D01*
X183297873Y-89219500D01*
X183297864Y-89219500D01*
X182402129Y-89219500D01*
X182402123Y-89219501D01*
X182342516Y-89225908D01*
X182324032Y-89232803D01*
X182254340Y-89237787D01*
X182193018Y-89204301D01*
X182159533Y-89142978D01*
X182156700Y-89116621D01*
X182156700Y-81644078D01*
X182156700Y-81644076D01*
X182117399Y-81497402D01*
X182109572Y-81483846D01*
X182041477Y-81365901D01*
X182041472Y-81365895D01*
X181559099Y-80883522D01*
X181525614Y-80822199D01*
X181530598Y-80752507D01*
X181543678Y-80726950D01*
X181564624Y-80695602D01*
X181585129Y-80664914D01*
X181588693Y-80656311D01*
X181598802Y-80631901D01*
X181645472Y-80519232D01*
X181676235Y-80364577D01*
X181676235Y-80206893D01*
X181676235Y-80206890D01*
X181676234Y-80206888D01*
X181667182Y-80161381D01*
X181645472Y-80052238D01*
X181636141Y-80029711D01*
X181585132Y-79906562D01*
X181585125Y-79906549D01*
X181497524Y-79775446D01*
X181497521Y-79775442D01*
X181386027Y-79663948D01*
X181386023Y-79663945D01*
X181254920Y-79576344D01*
X181254907Y-79576337D01*
X181109236Y-79515999D01*
X181109224Y-79515996D01*
X180954580Y-79485235D01*
X180954577Y-79485235D01*
X180796893Y-79485235D01*
X180796890Y-79485235D01*
X180642245Y-79515996D01*
X180642233Y-79515999D01*
X180496562Y-79576337D01*
X180496549Y-79576344D01*
X180365446Y-79663945D01*
X180365442Y-79663948D01*
X180253948Y-79775442D01*
X180253945Y-79775446D01*
X180166344Y-79906549D01*
X180166337Y-79906562D01*
X180105999Y-80052233D01*
X180105996Y-80052245D01*
X180075235Y-80206888D01*
X180075235Y-80364581D01*
X180105996Y-80519224D01*
X180105999Y-80519236D01*
X180166337Y-80664907D01*
X180166344Y-80664919D01*
X180191505Y-80702575D01*
X180212383Y-80769252D01*
X180193899Y-80836632D01*
X180141920Y-80883323D01*
X180112596Y-80893083D01*
X180076507Y-80900261D01*
X180076498Y-80900264D01*
X179930827Y-80960602D01*
X179930814Y-80960609D01*
X179799711Y-81048210D01*
X179799707Y-81048213D01*
X179688213Y-81159707D01*
X179688210Y-81159711D01*
X179600609Y-81290814D01*
X179600602Y-81290827D01*
X179540264Y-81436498D01*
X179540261Y-81436510D01*
X179509500Y-81591153D01*
X179509500Y-81748846D01*
X179540261Y-81903489D01*
X179540264Y-81903501D01*
X179600602Y-82049172D01*
X179600609Y-82049185D01*
X179674970Y-82160472D01*
X179688211Y-82180289D01*
X179696979Y-82189057D01*
X179730465Y-82250377D01*
X179733300Y-82276740D01*
X179733300Y-89116620D01*
X179713615Y-89183659D01*
X179660811Y-89229414D01*
X179591653Y-89239358D01*
X179565970Y-89232803D01*
X179547484Y-89225909D01*
X179547483Y-89225908D01*
X179487883Y-89219501D01*
X179487881Y-89219500D01*
X179487873Y-89219500D01*
X179487864Y-89219500D01*
X178592129Y-89219500D01*
X178592123Y-89219501D01*
X178532516Y-89225908D01*
X178448332Y-89257307D01*
X178378641Y-89262291D01*
X178361667Y-89257307D01*
X178277482Y-89225908D01*
X178277483Y-89225908D01*
X178217883Y-89219501D01*
X178217881Y-89219500D01*
X178217873Y-89219500D01*
X178217864Y-89219500D01*
X177322129Y-89219500D01*
X177322123Y-89219501D01*
X177262516Y-89225908D01*
X177127671Y-89276202D01*
X177127664Y-89276206D01*
X177012455Y-89362452D01*
X177012452Y-89362455D01*
X176926206Y-89477664D01*
X176926202Y-89477671D01*
X176875908Y-89612517D01*
X176871499Y-89653532D01*
X176869501Y-89672123D01*
X176869500Y-89672135D01*
X176869500Y-90319901D01*
X176860855Y-90349341D01*
X176854332Y-90379328D01*
X176850577Y-90384343D01*
X176849815Y-90386940D01*
X176833181Y-90407582D01*
X176755337Y-90485426D01*
X176694014Y-90518911D01*
X176691848Y-90519362D01*
X176536508Y-90550261D01*
X176536498Y-90550264D01*
X176390827Y-90610602D01*
X176390814Y-90610609D01*
X176259711Y-90698210D01*
X176259707Y-90698213D01*
X176148213Y-90809707D01*
X176148210Y-90809711D01*
X176060609Y-90940814D01*
X176060602Y-90940827D01*
X176000264Y-91086498D01*
X176000261Y-91086510D01*
X175969500Y-91241153D01*
X174060500Y-91241153D01*
X174060500Y-91211158D01*
X174060500Y-91211155D01*
X174060499Y-91211153D01*
X174051923Y-91168040D01*
X174029737Y-91056503D01*
X174016152Y-91023705D01*
X173969397Y-90910827D01*
X173969390Y-90910814D01*
X173881789Y-90779711D01*
X173881786Y-90779707D01*
X173770292Y-90668213D01*
X173770288Y-90668210D01*
X173639185Y-90580609D01*
X173639172Y-90580602D01*
X173493501Y-90520264D01*
X173493491Y-90520261D01*
X173338151Y-90489362D01*
X173321394Y-90480596D01*
X173302916Y-90476577D01*
X173277877Y-90457832D01*
X173276241Y-90456977D01*
X173274662Y-90455426D01*
X173136818Y-90317582D01*
X173103333Y-90256259D01*
X173100499Y-90229901D01*
X173100499Y-89672129D01*
X173100498Y-89672123D01*
X173100497Y-89672116D01*
X173094091Y-89612517D01*
X173043796Y-89477669D01*
X173043795Y-89477668D01*
X173043793Y-89477664D01*
X172957547Y-89362455D01*
X172957544Y-89362452D01*
X172842335Y-89276206D01*
X172842328Y-89276202D01*
X172707482Y-89225908D01*
X172707483Y-89225908D01*
X172647883Y-89219501D01*
X172647881Y-89219500D01*
X172647873Y-89219500D01*
X172647864Y-89219500D01*
X171752129Y-89219500D01*
X171752123Y-89219501D01*
X171692516Y-89225908D01*
X171608332Y-89257307D01*
X171538641Y-89262291D01*
X171521667Y-89257307D01*
X171437482Y-89225908D01*
X171437483Y-89225908D01*
X171377883Y-89219501D01*
X171377881Y-89219500D01*
X171377873Y-89219500D01*
X171377864Y-89219500D01*
X170482129Y-89219500D01*
X170482123Y-89219501D01*
X170422516Y-89225908D01*
X170338332Y-89257307D01*
X170268641Y-89262291D01*
X170251667Y-89257307D01*
X170167482Y-89225908D01*
X170167483Y-89225908D01*
X170107883Y-89219501D01*
X170107881Y-89219500D01*
X170107873Y-89219500D01*
X170107864Y-89219500D01*
X169212129Y-89219500D01*
X169212123Y-89219501D01*
X169152516Y-89225908D01*
X169017671Y-89276202D01*
X169017664Y-89276206D01*
X168902455Y-89362452D01*
X168902452Y-89362455D01*
X168816206Y-89477664D01*
X168816202Y-89477671D01*
X168765908Y-89612517D01*
X168761499Y-89653532D01*
X168759501Y-89672123D01*
X168759500Y-89672135D01*
X165999201Y-89672135D01*
X165904957Y-89657208D01*
X165856287Y-89649500D01*
X165643713Y-89649500D01*
X165595042Y-89657208D01*
X165433760Y-89682753D01*
X165231585Y-89748444D01*
X165042179Y-89844951D01*
X164870213Y-89969890D01*
X164719890Y-90120213D01*
X164594951Y-90292179D01*
X164498444Y-90481585D01*
X164432753Y-90683760D01*
X164399500Y-90893713D01*
X163500500Y-90893713D01*
X163500500Y-73724983D01*
X163759500Y-73724983D01*
X163759500Y-74325001D01*
X163759501Y-74325019D01*
X163770000Y-74427796D01*
X163770001Y-74427799D01*
X163811916Y-74554289D01*
X163825186Y-74594334D01*
X163917288Y-74743656D01*
X164041344Y-74867712D01*
X164190666Y-74959814D01*
X164357203Y-75014999D01*
X164459991Y-75025500D01*
X166760008Y-75025499D01*
X166862797Y-75014999D01*
X167029334Y-74959814D01*
X167178656Y-74867712D01*
X167302712Y-74743656D01*
X167394814Y-74594334D01*
X167449999Y-74427797D01*
X167460500Y-74325009D01*
X167460499Y-73724992D01*
X167449999Y-73622203D01*
X167394814Y-73455666D01*
X167302712Y-73306344D01*
X167178656Y-73182288D01*
X167029334Y-73090186D01*
X166862797Y-73035001D01*
X166862795Y-73035000D01*
X166760010Y-73024500D01*
X164459998Y-73024500D01*
X164459981Y-73024501D01*
X164357203Y-73035000D01*
X164357200Y-73035001D01*
X164190668Y-73090185D01*
X164190663Y-73090187D01*
X164041342Y-73182289D01*
X163917289Y-73306342D01*
X163825187Y-73455663D01*
X163825185Y-73455668D01*
X163818283Y-73476498D01*
X163770001Y-73622203D01*
X163770001Y-73622204D01*
X163770000Y-73622204D01*
X163759500Y-73724983D01*
X163500500Y-73724983D01*
X163500500Y-68451153D01*
X166619500Y-68451153D01*
X166619500Y-68608846D01*
X166650261Y-68763489D01*
X166650264Y-68763501D01*
X166710602Y-68909172D01*
X166710609Y-68909185D01*
X166798210Y-69040288D01*
X166798213Y-69040292D01*
X166909707Y-69151786D01*
X166909711Y-69151789D01*
X167040814Y-69239390D01*
X167040827Y-69239397D01*
X167186498Y-69299735D01*
X167186503Y-69299737D01*
X167341158Y-69330500D01*
X167341163Y-69330500D01*
X167347218Y-69331097D01*
X167346959Y-69333718D01*
X167403039Y-69350185D01*
X167448794Y-69402989D01*
X167450315Y-69411597D01*
X167462705Y-69425000D01*
X170157295Y-69425000D01*
X170157295Y-69424998D01*
X170157100Y-69422513D01*
X170111281Y-69264801D01*
X170023712Y-69116729D01*
X170025715Y-69115544D01*
X170004448Y-69061359D01*
X170018136Y-68992843D01*
X170024323Y-68983219D01*
X170028081Y-68976865D01*
X170111744Y-68835398D01*
X170152711Y-68694391D01*
X170157597Y-68677573D01*
X170157598Y-68677567D01*
X170157642Y-68677011D01*
X170160500Y-68640694D01*
X170160500Y-68209306D01*
X170157598Y-68172431D01*
X170155436Y-68164991D01*
X170111745Y-68014606D01*
X170111744Y-68014603D01*
X170111744Y-68014602D01*
X170028081Y-67873135D01*
X170028079Y-67873133D01*
X170028076Y-67873129D01*
X169911870Y-67756923D01*
X169911862Y-67756917D01*
X169811357Y-67697479D01*
X169770398Y-67673256D01*
X169770397Y-67673255D01*
X169770396Y-67673255D01*
X169770393Y-67673254D01*
X169612573Y-67627402D01*
X169612567Y-67627401D01*
X169575701Y-67624500D01*
X169575694Y-67624500D01*
X168044306Y-67624500D01*
X168044298Y-67624500D01*
X168007432Y-67627401D01*
X168007426Y-67627402D01*
X167849606Y-67673254D01*
X167849605Y-67673254D01*
X167730961Y-67743419D01*
X167663237Y-67760600D01*
X167643650Y-67758303D01*
X167498846Y-67729500D01*
X167498842Y-67729500D01*
X167341158Y-67729500D01*
X167341155Y-67729500D01*
X167186510Y-67760261D01*
X167186498Y-67760264D01*
X167040827Y-67820602D01*
X167040814Y-67820609D01*
X166909711Y-67908210D01*
X166909707Y-67908213D01*
X166798213Y-68019707D01*
X166798210Y-68019711D01*
X166710609Y-68150814D01*
X166710602Y-68150827D01*
X166650264Y-68296498D01*
X166650261Y-68296510D01*
X166619500Y-68451153D01*
X163500500Y-68451153D01*
X163500500Y-66274983D01*
X163759500Y-66274983D01*
X163759500Y-66875001D01*
X163759501Y-66875019D01*
X163770000Y-66977796D01*
X163770001Y-66977799D01*
X163825185Y-67144331D01*
X163825187Y-67144336D01*
X163849241Y-67183334D01*
X163917288Y-67293656D01*
X164041344Y-67417712D01*
X164190666Y-67509814D01*
X164357203Y-67564999D01*
X164459991Y-67575500D01*
X166760008Y-67575499D01*
X166862797Y-67564999D01*
X167029334Y-67509814D01*
X167178656Y-67417712D01*
X167302712Y-67293656D01*
X167394814Y-67144334D01*
X167449999Y-66977797D01*
X167460500Y-66875009D01*
X167460499Y-66274992D01*
X167449999Y-66172203D01*
X167394814Y-66005666D01*
X167302712Y-65856344D01*
X167178656Y-65732288D01*
X167029334Y-65640186D01*
X166862797Y-65585001D01*
X166862795Y-65585000D01*
X166760010Y-65574500D01*
X164459998Y-65574500D01*
X164459981Y-65574501D01*
X164357203Y-65585000D01*
X164357200Y-65585001D01*
X164190668Y-65640185D01*
X164190663Y-65640187D01*
X164041342Y-65732289D01*
X163917289Y-65856342D01*
X163825187Y-66005663D01*
X163825186Y-66005666D01*
X163770001Y-66172203D01*
X163770001Y-66172204D01*
X163770000Y-66172204D01*
X163759500Y-66274983D01*
X163500500Y-66274983D01*
X163500500Y-51893713D01*
X164399500Y-51893713D01*
X164399500Y-52106286D01*
X164429650Y-52296649D01*
X164432754Y-52316243D01*
X164491782Y-52497913D01*
X164498444Y-52518414D01*
X164594951Y-52707820D01*
X164719890Y-52879786D01*
X164870213Y-53030109D01*
X165042179Y-53155048D01*
X165042181Y-53155049D01*
X165042184Y-53155051D01*
X165231588Y-53251557D01*
X165433757Y-53317246D01*
X165643713Y-53350500D01*
X165643714Y-53350500D01*
X165856286Y-53350500D01*
X165856287Y-53350500D01*
X166066243Y-53317246D01*
X166268412Y-53251557D01*
X166457816Y-53155051D01*
X166503998Y-53121498D01*
X166629786Y-53030109D01*
X166629788Y-53030106D01*
X166629792Y-53030104D01*
X166780104Y-52879792D01*
X166780106Y-52879788D01*
X166780109Y-52879786D01*
X166905048Y-52707820D01*
X166905047Y-52707820D01*
X166905051Y-52707816D01*
X167001557Y-52518412D01*
X167067246Y-52316243D01*
X167100500Y-52106287D01*
X167100500Y-51893713D01*
X167067246Y-51683757D01*
X167001557Y-51481588D01*
X166905051Y-51292184D01*
X166905049Y-51292181D01*
X166905048Y-51292179D01*
X166780109Y-51120213D01*
X166629786Y-50969890D01*
X166457820Y-50844951D01*
X166268414Y-50748444D01*
X166268413Y-50748443D01*
X166268412Y-50748443D01*
X166066243Y-50682754D01*
X166066241Y-50682753D01*
X166066240Y-50682753D01*
X165904957Y-50657208D01*
X165856287Y-50649500D01*
X165643713Y-50649500D01*
X165595042Y-50657208D01*
X165433760Y-50682753D01*
X165231585Y-50748444D01*
X165042179Y-50844951D01*
X164870213Y-50969890D01*
X164719890Y-51120213D01*
X164594951Y-51292179D01*
X164498444Y-51481585D01*
X164432753Y-51683760D01*
X164399500Y-51893713D01*
X163500500Y-51893713D01*
X163500500Y-50479982D01*
X169104501Y-50479982D01*
X169104501Y-52780000D01*
X169104502Y-52780017D01*
X169115001Y-52882795D01*
X169115002Y-52882798D01*
X169170186Y-53049330D01*
X169170188Y-53049335D01*
X169182525Y-53069336D01*
X169262289Y-53198655D01*
X169386345Y-53322711D01*
X169535667Y-53414813D01*
X169702204Y-53469998D01*
X169804992Y-53480499D01*
X170405009Y-53480498D01*
X170405017Y-53480497D01*
X170405020Y-53480497D01*
X170461303Y-53474747D01*
X170507798Y-53469998D01*
X170674335Y-53414813D01*
X170823657Y-53322711D01*
X170947713Y-53198655D01*
X171039815Y-53049333D01*
X171095000Y-52882796D01*
X171105501Y-52780008D01*
X171105500Y-50479991D01*
X171095000Y-50377202D01*
X171039815Y-50210665D01*
X170947713Y-50061343D01*
X170823657Y-49937287D01*
X170706762Y-49865186D01*
X170674337Y-49845186D01*
X170674332Y-49845184D01*
X170672863Y-49844697D01*
X170507798Y-49790000D01*
X170507796Y-49789999D01*
X170405011Y-49779499D01*
X169804999Y-49779499D01*
X169804981Y-49779500D01*
X169702204Y-49789999D01*
X169702201Y-49790000D01*
X169535669Y-49845184D01*
X169535664Y-49845186D01*
X169386343Y-49937288D01*
X169262290Y-50061341D01*
X169170188Y-50210662D01*
X169170186Y-50210667D01*
X169142350Y-50294669D01*
X169115002Y-50377202D01*
X169115002Y-50377203D01*
X169115001Y-50377203D01*
X169104501Y-50479982D01*
X163500500Y-50479982D01*
X163500500Y-49624500D01*
X163520185Y-49557461D01*
X163572989Y-49511706D01*
X163624500Y-49500500D01*
X197778753Y-49500500D01*
X197845792Y-49520185D01*
G37*
%TD.AperFunction*%
%TA.AperFunction,Conductor*%
G36*
X191616016Y-65103202D02*
G01*
X191739540Y-65136300D01*
X191841000Y-65136300D01*
X191908039Y-65155985D01*
X191953794Y-65208789D01*
X191964916Y-65259916D01*
X191965000Y-65260000D01*
X192791000Y-65260000D01*
X192858039Y-65279685D01*
X192903794Y-65332489D01*
X192915000Y-65384000D01*
X192915000Y-65636000D01*
X192895315Y-65703039D01*
X192842511Y-65748794D01*
X192791000Y-65760000D01*
X191965001Y-65760000D01*
X191963097Y-65761903D01*
X191945316Y-65822459D01*
X191892512Y-65868214D01*
X191823354Y-65878158D01*
X191759798Y-65849133D01*
X191753320Y-65843101D01*
X191346900Y-65436681D01*
X191313415Y-65375358D01*
X191318399Y-65305666D01*
X191360271Y-65249733D01*
X191425735Y-65225316D01*
X191434581Y-65225000D01*
X191459126Y-65225000D01*
X191464079Y-65219352D01*
X191471754Y-65170131D01*
X191518133Y-65117874D01*
X191585401Y-65098987D01*
X191616016Y-65103202D01*
G37*
%TD.AperFunction*%
%TD*%
%TA.AperFunction,Conductor*%
%TO.N,VBUS*%
G36*
X209442539Y-49520185D02*
G01*
X209488294Y-49572989D01*
X209499500Y-49624500D01*
X209499500Y-73838152D01*
X209479815Y-73905191D01*
X209427011Y-73950946D01*
X209375914Y-73962151D01*
X198176256Y-73999578D01*
X198109152Y-73980118D01*
X198063220Y-73927467D01*
X198051855Y-73873759D01*
X198096328Y-70848392D01*
X198116995Y-70781656D01*
X198170466Y-70736682D01*
X198239763Y-70727756D01*
X198302885Y-70757712D01*
X198307995Y-70762540D01*
X198679557Y-71134102D01*
X198786930Y-71241475D01*
X198918434Y-71317399D01*
X199065108Y-71356700D01*
X202530500Y-71356700D01*
X202597539Y-71376385D01*
X202643294Y-71429189D01*
X202654500Y-71480700D01*
X202654500Y-71761613D01*
X202660913Y-71832192D01*
X202711522Y-71994606D01*
X202799530Y-72140188D01*
X202819299Y-72159957D01*
X202852784Y-72221280D01*
X202853235Y-72271829D01*
X202829500Y-72391153D01*
X202829500Y-72548846D01*
X202860261Y-72703489D01*
X202860264Y-72703501D01*
X202920602Y-72849172D01*
X202920609Y-72849185D01*
X203008210Y-72980288D01*
X203008213Y-72980292D01*
X203119707Y-73091786D01*
X203119711Y-73091789D01*
X203250814Y-73179390D01*
X203250827Y-73179397D01*
X203396498Y-73239735D01*
X203396503Y-73239737D01*
X203551153Y-73270499D01*
X203551156Y-73270500D01*
X203551158Y-73270500D01*
X203708844Y-73270500D01*
X203708845Y-73270499D01*
X203863497Y-73239737D01*
X204009179Y-73179394D01*
X204140289Y-73091789D01*
X204251789Y-72980289D01*
X204339394Y-72849179D01*
X204341898Y-72845432D01*
X204395510Y-72800627D01*
X204464835Y-72791920D01*
X204527863Y-72822074D01*
X204548102Y-72845432D01*
X204638210Y-72980288D01*
X204638213Y-72980292D01*
X204749707Y-73091786D01*
X204749711Y-73091789D01*
X204880814Y-73179390D01*
X204880827Y-73179397D01*
X205026498Y-73239735D01*
X205026503Y-73239737D01*
X205181153Y-73270499D01*
X205181156Y-73270500D01*
X205181158Y-73270500D01*
X205338844Y-73270500D01*
X205338845Y-73270499D01*
X205493497Y-73239737D01*
X205639179Y-73179394D01*
X205770289Y-73091789D01*
X205881789Y-72980289D01*
X205969394Y-72849179D01*
X206029737Y-72703497D01*
X206060500Y-72548842D01*
X206060500Y-72391158D01*
X206060500Y-72391155D01*
X206029764Y-72236639D01*
X206035991Y-72167047D01*
X206047408Y-72147098D01*
X206046591Y-72146604D01*
X206050470Y-72140186D01*
X206050472Y-72140185D01*
X206138478Y-71994606D01*
X206189086Y-71832196D01*
X206195500Y-71761616D01*
X206195500Y-71480700D01*
X206215185Y-71413661D01*
X206267989Y-71367906D01*
X206319500Y-71356700D01*
X206528388Y-71356700D01*
X206528390Y-71356700D01*
X206675064Y-71317399D01*
X206806568Y-71241475D01*
X208281475Y-69766568D01*
X208357399Y-69635064D01*
X208396700Y-69488390D01*
X208396700Y-69336542D01*
X208396700Y-65714076D01*
X208357399Y-65567402D01*
X208354185Y-65561836D01*
X208281477Y-65435901D01*
X208281472Y-65435895D01*
X207444482Y-64598905D01*
X207443651Y-64598066D01*
X207433982Y-64588211D01*
X207431074Y-64583174D01*
X207323701Y-64475801D01*
X207263881Y-64415981D01*
X207230396Y-64354658D01*
X207228623Y-64312114D01*
X207240500Y-64221901D01*
X207240499Y-64031740D01*
X207247954Y-63994270D01*
X207246617Y-63993865D01*
X207248381Y-63988044D01*
X207248386Y-63988034D01*
X207272500Y-63866803D01*
X207272500Y-63743197D01*
X207272500Y-63068197D01*
X207272500Y-62612965D01*
X207281850Y-62581120D01*
X207290279Y-62548988D01*
X207291789Y-62547272D01*
X207292185Y-62545926D01*
X207312606Y-62521653D01*
X207320046Y-62514816D01*
X207323044Y-62512968D01*
X207334185Y-62501826D01*
X207336106Y-62500062D01*
X207365201Y-62485737D01*
X207393642Y-62470208D01*
X207396351Y-62470401D01*
X207398791Y-62469201D01*
X207431003Y-62472879D01*
X207463334Y-62475192D01*
X207465945Y-62476870D01*
X207468209Y-62477129D01*
X207475077Y-62482739D01*
X207507681Y-62503693D01*
X207516955Y-62512967D01*
X207516959Y-62512970D01*
X207661294Y-62601998D01*
X207661297Y-62601999D01*
X207661303Y-62602003D01*
X207822292Y-62655349D01*
X207921655Y-62665500D01*
X208468344Y-62665499D01*
X208468352Y-62665498D01*
X208468355Y-62665498D01*
X208522760Y-62659940D01*
X208567708Y-62655349D01*
X208728697Y-62602003D01*
X208873044Y-62512968D01*
X208992968Y-62393044D01*
X209082003Y-62248697D01*
X209135349Y-62087708D01*
X209145500Y-61988345D01*
X209145499Y-61391656D01*
X209143960Y-61376594D01*
X209135349Y-61292292D01*
X209135348Y-61292289D01*
X209133716Y-61287363D01*
X209082003Y-61131303D01*
X209059802Y-61095310D01*
X209041361Y-61027918D01*
X209043723Y-61006021D01*
X209047698Y-60986040D01*
X209047698Y-60828356D01*
X209047698Y-60828353D01*
X209047697Y-60828351D01*
X209037006Y-60774606D01*
X209016935Y-60673701D01*
X208962224Y-60541616D01*
X208956595Y-60528025D01*
X208956588Y-60528012D01*
X208868987Y-60396909D01*
X208868984Y-60396905D01*
X208757490Y-60285411D01*
X208757486Y-60285408D01*
X208697609Y-60245399D01*
X208652804Y-60191786D01*
X208642500Y-60142297D01*
X208642500Y-57488196D01*
X208642499Y-57488192D01*
X208618387Y-57366972D01*
X208618386Y-57366965D01*
X208573412Y-57258392D01*
X208571764Y-57253786D01*
X208502414Y-57149996D01*
X208502413Y-57149994D01*
X208502411Y-57149992D01*
X208415008Y-57062589D01*
X206341819Y-54989400D01*
X206308334Y-54928077D01*
X206305500Y-54901719D01*
X206305500Y-54274313D01*
X206305499Y-54274298D01*
X206302839Y-54240500D01*
X206302598Y-54237431D01*
X206256744Y-54079602D01*
X206173081Y-53938135D01*
X206173079Y-53938133D01*
X206173076Y-53938129D01*
X206056870Y-53821923D01*
X206056862Y-53821917D01*
X205978681Y-53775681D01*
X205915398Y-53738256D01*
X205915397Y-53738255D01*
X205915396Y-53738255D01*
X205915393Y-53738254D01*
X205757573Y-53692402D01*
X205757567Y-53692401D01*
X205720701Y-53689500D01*
X205720694Y-53689500D01*
X205289306Y-53689500D01*
X205289298Y-53689500D01*
X205252430Y-53692401D01*
X205246780Y-53693434D01*
X205177295Y-53686115D01*
X205122797Y-53642392D01*
X205100589Y-53576146D01*
X205100500Y-53571452D01*
X205100500Y-53481155D01*
X205100499Y-53481153D01*
X205093703Y-53446988D01*
X205069737Y-53326503D01*
X205069735Y-53326498D01*
X205009397Y-53180827D01*
X205009390Y-53180814D01*
X204921789Y-53049711D01*
X204921786Y-53049707D01*
X204810292Y-52938213D01*
X204810288Y-52938210D01*
X204679185Y-52850609D01*
X204679172Y-52850602D01*
X204533501Y-52790264D01*
X204533489Y-52790261D01*
X204378845Y-52759500D01*
X204378842Y-52759500D01*
X204221158Y-52759500D01*
X204221155Y-52759500D01*
X204066510Y-52790261D01*
X204066498Y-52790264D01*
X203920827Y-52850602D01*
X203920814Y-52850609D01*
X203789711Y-52938210D01*
X203789707Y-52938213D01*
X203678213Y-53049707D01*
X203626240Y-53127490D01*
X203572627Y-53172294D01*
X203503302Y-53181001D01*
X203440275Y-53150846D01*
X203403556Y-53091403D01*
X203399780Y-53045995D01*
X203405499Y-52990015D01*
X203405500Y-52990009D01*
X203405499Y-50689992D01*
X203405498Y-50689983D01*
X206354500Y-50689983D01*
X206354500Y-52990001D01*
X206354501Y-52990018D01*
X206365000Y-53092796D01*
X206365001Y-53092799D01*
X206394167Y-53180814D01*
X206420186Y-53259334D01*
X206512288Y-53408656D01*
X206636344Y-53532712D01*
X206785666Y-53624814D01*
X206952203Y-53679999D01*
X207054991Y-53690500D01*
X207655008Y-53690499D01*
X207655016Y-53690498D01*
X207655019Y-53690498D01*
X207711302Y-53684748D01*
X207757797Y-53679999D01*
X207924334Y-53624814D01*
X208073656Y-53532712D01*
X208197712Y-53408656D01*
X208289814Y-53259334D01*
X208344999Y-53092797D01*
X208355500Y-52990009D01*
X208355499Y-50689992D01*
X208344999Y-50587203D01*
X208289814Y-50420666D01*
X208197712Y-50271344D01*
X208073656Y-50147288D01*
X207924334Y-50055186D01*
X207757797Y-50000001D01*
X207757795Y-50000000D01*
X207655010Y-49989500D01*
X207054998Y-49989500D01*
X207054980Y-49989501D01*
X206952203Y-50000000D01*
X206952200Y-50000001D01*
X206785668Y-50055185D01*
X206785663Y-50055187D01*
X206636342Y-50147289D01*
X206512289Y-50271342D01*
X206420187Y-50420663D01*
X206420186Y-50420666D01*
X206365001Y-50587203D01*
X206365001Y-50587204D01*
X206365000Y-50587204D01*
X206354500Y-50689983D01*
X203405498Y-50689983D01*
X203394999Y-50587203D01*
X203339814Y-50420666D01*
X203247712Y-50271344D01*
X203123656Y-50147288D01*
X202974334Y-50055186D01*
X202807797Y-50000001D01*
X202807795Y-50000000D01*
X202705010Y-49989500D01*
X202104998Y-49989500D01*
X202104980Y-49989501D01*
X202002203Y-50000000D01*
X202002200Y-50000001D01*
X201835668Y-50055185D01*
X201835663Y-50055187D01*
X201686342Y-50147289D01*
X201562289Y-50271342D01*
X201470187Y-50420663D01*
X201470186Y-50420666D01*
X201415001Y-50587203D01*
X201415001Y-50587204D01*
X201415000Y-50587204D01*
X201404500Y-50689983D01*
X201404500Y-52990001D01*
X201404501Y-52990018D01*
X201415000Y-53092796D01*
X201415001Y-53092799D01*
X201444167Y-53180814D01*
X201470186Y-53259334D01*
X201562288Y-53408656D01*
X201686344Y-53532712D01*
X201835666Y-53624814D01*
X202002203Y-53679999D01*
X202104991Y-53690500D01*
X202705008Y-53690499D01*
X202705016Y-53690498D01*
X202705019Y-53690498D01*
X202761302Y-53684748D01*
X202807797Y-53679999D01*
X202974334Y-53624814D01*
X203123656Y-53532712D01*
X203247712Y-53408656D01*
X203279140Y-53357701D01*
X203331086Y-53310978D01*
X203400048Y-53299755D01*
X203464130Y-53327598D01*
X203502987Y-53385666D01*
X203506296Y-53446988D01*
X203499500Y-53481156D01*
X203499500Y-53638846D01*
X203530260Y-53793488D01*
X203530261Y-53793489D01*
X203530263Y-53793497D01*
X203565123Y-53877656D01*
X203572591Y-53947126D01*
X203557294Y-53988228D01*
X203503254Y-54079605D01*
X203503254Y-54079606D01*
X203457402Y-54237426D01*
X203457401Y-54237432D01*
X203454500Y-54274298D01*
X203454500Y-55805701D01*
X203457401Y-55842567D01*
X203457402Y-55842573D01*
X203503254Y-56000393D01*
X203503255Y-56000396D01*
X203586917Y-56141862D01*
X203586923Y-56141870D01*
X203703129Y-56258076D01*
X203703133Y-56258079D01*
X203703135Y-56258081D01*
X203844602Y-56341744D01*
X203886224Y-56353836D01*
X204002426Y-56387597D01*
X204002429Y-56387597D01*
X204002431Y-56387598D01*
X204039306Y-56390500D01*
X204039314Y-56390500D01*
X204470686Y-56390500D01*
X204470694Y-56390500D01*
X204507569Y-56387598D01*
X204507571Y-56387597D01*
X204507573Y-56387597D01*
X204549191Y-56375505D01*
X204665398Y-56341744D01*
X204790048Y-56268026D01*
X204813580Y-56254110D01*
X204814747Y-56256083D01*
X204869035Y-56234769D01*
X204937553Y-56248448D01*
X204946404Y-56254136D01*
X204946420Y-56254110D01*
X204987034Y-56278128D01*
X205094602Y-56341744D01*
X205136224Y-56353836D01*
X205252426Y-56387597D01*
X205252429Y-56387597D01*
X205252431Y-56387598D01*
X205289306Y-56390500D01*
X205289314Y-56390500D01*
X205720686Y-56390500D01*
X205720694Y-56390500D01*
X205757569Y-56387598D01*
X205848021Y-56361319D01*
X205917887Y-56361518D01*
X205970295Y-56392714D01*
X207351181Y-57773600D01*
X207384666Y-57834923D01*
X207387500Y-57861281D01*
X207387500Y-60008718D01*
X207367815Y-60075757D01*
X207351181Y-60096399D01*
X206769398Y-60678181D01*
X206708075Y-60711666D01*
X206681717Y-60714500D01*
X206371663Y-60714500D01*
X206371644Y-60714501D01*
X206272292Y-60724650D01*
X206272289Y-60724651D01*
X206111305Y-60777996D01*
X206111294Y-60778001D01*
X205966959Y-60867029D01*
X205966955Y-60867032D01*
X205847032Y-60986955D01*
X205847029Y-60986959D01*
X205758001Y-61131294D01*
X205757996Y-61131305D01*
X205704651Y-61292290D01*
X205694500Y-61391647D01*
X205694500Y-61988337D01*
X205694501Y-61988355D01*
X205704650Y-62087707D01*
X205704652Y-62087714D01*
X205716105Y-62122277D01*
X205718506Y-62192106D01*
X205682774Y-62252147D01*
X205620254Y-62283339D01*
X205582214Y-62284219D01*
X205541371Y-62278842D01*
X205489401Y-62272000D01*
X205290596Y-62272000D01*
X205180529Y-62286489D01*
X205172681Y-62288593D01*
X205171856Y-62285515D01*
X205117229Y-62291342D01*
X205107355Y-62288489D01*
X205107197Y-62289082D01*
X205099346Y-62286978D01*
X205015000Y-62275873D01*
X205015000Y-62303994D01*
X205013922Y-62307664D01*
X205014779Y-62311393D01*
X205004155Y-62340925D01*
X204995315Y-62371033D01*
X204992048Y-62374582D01*
X204991129Y-62377139D01*
X204966466Y-62402385D01*
X204964466Y-62403919D01*
X204899292Y-62429100D01*
X204830850Y-62415048D01*
X204780870Y-62366223D01*
X204765000Y-62305528D01*
X204765000Y-62275873D01*
X204680658Y-62286978D01*
X204672806Y-62289082D01*
X204671937Y-62285841D01*
X204617923Y-62291622D01*
X204607345Y-62288513D01*
X204607193Y-62289083D01*
X204599340Y-62286979D01*
X204515000Y-62275874D01*
X204515000Y-62541041D01*
X204512379Y-62549966D01*
X204513666Y-62559179D01*
X204502692Y-62582955D01*
X204495315Y-62608080D01*
X204488285Y-62614171D01*
X204484387Y-62622618D01*
X204462298Y-62636689D01*
X204442511Y-62653835D01*
X204431740Y-62656155D01*
X204425459Y-62660157D01*
X204390504Y-62665040D01*
X204388504Y-62665032D01*
X204321544Y-62645079D01*
X204276000Y-62592093D01*
X204265000Y-62541033D01*
X204265000Y-62275874D01*
X204180653Y-62286979D01*
X204172803Y-62289083D01*
X204171936Y-62285848D01*
X204117875Y-62291612D01*
X204107347Y-62288519D01*
X204107197Y-62289082D01*
X204099346Y-62286978D01*
X204015000Y-62275873D01*
X204015000Y-62305528D01*
X204011003Y-62319138D01*
X204011850Y-62333301D01*
X204001354Y-62351998D01*
X203995315Y-62372567D01*
X203984595Y-62381855D01*
X203977650Y-62394229D01*
X203958711Y-62404284D01*
X203942511Y-62418322D01*
X203928469Y-62420340D01*
X203915939Y-62426994D01*
X203894574Y-62425214D01*
X203873353Y-62428266D01*
X203859087Y-62422259D01*
X203846311Y-62421195D01*
X203815534Y-62403919D01*
X203813534Y-62402385D01*
X203772319Y-62345966D01*
X203765000Y-62303994D01*
X203765000Y-62275873D01*
X203680658Y-62286978D01*
X203672806Y-62289082D01*
X203671917Y-62285764D01*
X203617804Y-62291209D01*
X203607444Y-62288130D01*
X203607320Y-62288594D01*
X203599472Y-62286491D01*
X203489401Y-62272000D01*
X203290596Y-62272000D01*
X203180536Y-62286488D01*
X203180527Y-62286491D01*
X203043574Y-62343219D01*
X203043571Y-62343220D01*
X203043571Y-62343221D01*
X202925964Y-62433464D01*
X202837320Y-62548988D01*
X202835719Y-62551074D01*
X202778991Y-62688027D01*
X202778990Y-62688029D01*
X202764501Y-62798089D01*
X202764500Y-62798105D01*
X202764500Y-62871718D01*
X202744815Y-62938757D01*
X202728181Y-62959399D01*
X202228900Y-63458681D01*
X202167577Y-63492166D01*
X202141219Y-63495000D01*
X201386281Y-63495000D01*
X201356840Y-63486355D01*
X201326854Y-63479832D01*
X201321838Y-63476077D01*
X201319242Y-63475315D01*
X201298600Y-63458681D01*
X201296818Y-63456899D01*
X201263333Y-63395576D01*
X201260499Y-63369218D01*
X201260499Y-63059162D01*
X201260498Y-63059144D01*
X201250349Y-62959792D01*
X201250348Y-62959789D01*
X201209163Y-62835500D01*
X201197003Y-62798803D01*
X201196999Y-62798797D01*
X201196998Y-62798794D01*
X201107970Y-62654459D01*
X201107967Y-62654455D01*
X201081874Y-62628362D01*
X201072293Y-62610817D01*
X201058670Y-62596184D01*
X201055890Y-62580777D01*
X201048389Y-62567039D01*
X201049815Y-62547098D01*
X201046266Y-62527425D01*
X201053151Y-62500447D01*
X201053373Y-62497347D01*
X201054958Y-62493316D01*
X201065723Y-62467328D01*
X201109562Y-62412930D01*
X201175857Y-62390866D01*
X201227733Y-62400226D01*
X201308058Y-62433497D01*
X201326503Y-62441137D01*
X201472652Y-62470208D01*
X201481153Y-62471899D01*
X201481156Y-62471900D01*
X201481158Y-62471900D01*
X201638844Y-62471900D01*
X201638845Y-62471899D01*
X201793497Y-62441137D01*
X201914863Y-62390866D01*
X201939172Y-62380797D01*
X201939172Y-62380796D01*
X201939179Y-62380794D01*
X202070289Y-62293189D01*
X202181789Y-62181689D01*
X202269394Y-62050579D01*
X202329737Y-61904897D01*
X202360500Y-61750242D01*
X202360500Y-61592558D01*
X202360500Y-61592555D01*
X202336631Y-61472562D01*
X202329737Y-61437903D01*
X202287858Y-61336798D01*
X202287854Y-61336786D01*
X202269397Y-61292227D01*
X202269390Y-61292214D01*
X202181789Y-61161111D01*
X202181786Y-61161107D01*
X202142951Y-61122272D01*
X202109466Y-61060949D01*
X202114450Y-60991257D01*
X202156322Y-60935324D01*
X202221786Y-60910907D01*
X202290059Y-60925759D01*
X202294759Y-60928461D01*
X202435394Y-61013478D01*
X202435396Y-61013478D01*
X202439650Y-61016050D01*
X202486838Y-61067578D01*
X202499500Y-61122167D01*
X202499500Y-61138846D01*
X202523367Y-61258835D01*
X202523369Y-61258842D01*
X202530263Y-61293497D01*
X202572138Y-61394593D01*
X202572142Y-61394604D01*
X202590604Y-61439175D01*
X202590609Y-61439185D01*
X202678210Y-61570288D01*
X202678213Y-61570292D01*
X202789707Y-61681786D01*
X202789711Y-61681789D01*
X202920814Y-61769390D01*
X202920827Y-61769397D01*
X203066498Y-61829735D01*
X203066503Y-61829737D01*
X203221153Y-61860499D01*
X203221156Y-61860500D01*
X203221158Y-61860500D01*
X203378844Y-61860500D01*
X203378845Y-61860499D01*
X203533497Y-61829737D01*
X203679179Y-61769394D01*
X203810289Y-61681789D01*
X203921789Y-61570289D01*
X204009394Y-61439179D01*
X204069737Y-61293497D01*
X204100500Y-61138842D01*
X204100500Y-60981158D01*
X204100500Y-60981155D01*
X204100499Y-60981153D01*
X204089423Y-60925471D01*
X204069737Y-60826503D01*
X204049647Y-60778001D01*
X204009397Y-60680827D01*
X204009389Y-60680812D01*
X203975786Y-60630523D01*
X203954907Y-60563846D01*
X203960500Y-60524747D01*
X203969086Y-60497196D01*
X203975500Y-60426616D01*
X203975500Y-59913384D01*
X203969086Y-59842804D01*
X203918478Y-59680394D01*
X203830472Y-59534815D01*
X203830470Y-59534813D01*
X203830469Y-59534811D01*
X203728339Y-59432681D01*
X203694854Y-59371358D01*
X203699838Y-59301666D01*
X203728339Y-59257319D01*
X203830468Y-59155189D01*
X203830469Y-59155188D01*
X203830472Y-59155185D01*
X203918478Y-59009606D01*
X203969086Y-58847196D01*
X203975500Y-58776616D01*
X203975500Y-58263384D01*
X203969086Y-58192804D01*
X203918478Y-58030394D01*
X203830472Y-57884815D01*
X203830470Y-57884813D01*
X203830469Y-57884811D01*
X203710188Y-57764530D01*
X203564606Y-57676522D01*
X203402196Y-57625914D01*
X203402194Y-57625913D01*
X203402192Y-57625913D01*
X203352778Y-57621423D01*
X203331616Y-57619500D01*
X202668384Y-57619500D01*
X202649145Y-57621248D01*
X202597807Y-57625913D01*
X202435393Y-57676522D01*
X202289811Y-57764530D01*
X202289810Y-57764531D01*
X202277681Y-57776661D01*
X202216358Y-57810146D01*
X202146666Y-57805162D01*
X202102319Y-57776661D01*
X202090188Y-57764530D01*
X201944606Y-57676522D01*
X201782196Y-57625914D01*
X201782194Y-57625913D01*
X201782192Y-57625913D01*
X201732778Y-57621423D01*
X201711616Y-57619500D01*
X201711613Y-57619500D01*
X201346439Y-57619500D01*
X201279400Y-57599815D01*
X201258758Y-57583181D01*
X200453019Y-56777442D01*
X200419534Y-56716119D01*
X200416700Y-56689761D01*
X200416700Y-54124231D01*
X200436385Y-54057192D01*
X200471812Y-54021127D01*
X200477782Y-54017139D01*
X200617139Y-53877782D01*
X200726632Y-53713914D01*
X200735543Y-53692402D01*
X200785641Y-53571452D01*
X200802051Y-53531835D01*
X200831126Y-53385666D01*
X200840500Y-53338543D01*
X200840500Y-53141456D01*
X200802052Y-52948170D01*
X200802051Y-52948169D01*
X200802051Y-52948165D01*
X200797928Y-52938210D01*
X200726635Y-52766092D01*
X200726628Y-52766079D01*
X200617139Y-52602218D01*
X200617136Y-52602214D01*
X200477785Y-52462863D01*
X200477781Y-52462860D01*
X200313920Y-52353371D01*
X200313907Y-52353364D01*
X200131839Y-52277950D01*
X200131829Y-52277947D01*
X199938543Y-52239500D01*
X199938541Y-52239500D01*
X199741459Y-52239500D01*
X199741457Y-52239500D01*
X199548170Y-52277947D01*
X199548160Y-52277950D01*
X199366089Y-52353366D01*
X199273890Y-52414971D01*
X199207213Y-52435848D01*
X199139833Y-52417363D01*
X199136110Y-52414971D01*
X199109740Y-52397352D01*
X199043914Y-52353368D01*
X199043911Y-52353366D01*
X199043910Y-52353366D01*
X198861839Y-52277950D01*
X198861829Y-52277947D01*
X198668543Y-52239500D01*
X198668541Y-52239500D01*
X198495717Y-52239500D01*
X198428678Y-52219815D01*
X198382923Y-52167011D01*
X198371730Y-52113677D01*
X198408348Y-49622677D01*
X198429016Y-49555934D01*
X198482487Y-49510961D01*
X198532335Y-49500500D01*
X209375500Y-49500500D01*
X209442539Y-49520185D01*
G37*
%TD.AperFunction*%
%TA.AperFunction,Conductor*%
G36*
X201503115Y-64769685D02*
G01*
X201548870Y-64822489D01*
X201558814Y-64891647D01*
X201555850Y-64906096D01*
X201553991Y-64913029D01*
X201539501Y-65023098D01*
X201539501Y-65221903D01*
X201553989Y-65331963D01*
X201556095Y-65339818D01*
X201553002Y-65340646D01*
X201558860Y-65395178D01*
X201555998Y-65405146D01*
X201556582Y-65405303D01*
X201554478Y-65413153D01*
X201543373Y-65497500D01*
X201571495Y-65497500D01*
X201575174Y-65498580D01*
X201578912Y-65497722D01*
X201608438Y-65508347D01*
X201638534Y-65517185D01*
X201642091Y-65520458D01*
X201644654Y-65521381D01*
X201669897Y-65546048D01*
X201670663Y-65547047D01*
X201695835Y-65612225D01*
X201681772Y-65680665D01*
X201670689Y-65697918D01*
X201669922Y-65698919D01*
X201648951Y-65714253D01*
X201632941Y-65730638D01*
X201623614Y-65732779D01*
X201613522Y-65740160D01*
X201571494Y-65747500D01*
X201543374Y-65747500D01*
X201554478Y-65831846D01*
X201556582Y-65839697D01*
X201553313Y-65840572D01*
X201558648Y-65895012D01*
X201555650Y-65905054D01*
X201556095Y-65905173D01*
X201553991Y-65913024D01*
X201539500Y-66023098D01*
X201539500Y-66221903D01*
X201553988Y-66331963D01*
X201553991Y-66331972D01*
X201590318Y-66419674D01*
X201610721Y-66468929D01*
X201700964Y-66586536D01*
X201818571Y-66676779D01*
X201818573Y-66676779D01*
X201825019Y-66681726D01*
X201823289Y-66683980D01*
X201862008Y-66724575D01*
X201875800Y-66781411D01*
X201875800Y-68274761D01*
X201867155Y-68304201D01*
X201860632Y-68334188D01*
X201856877Y-68339203D01*
X201856115Y-68341800D01*
X201839481Y-68362442D01*
X201683742Y-68518181D01*
X201622419Y-68551666D01*
X201596061Y-68554500D01*
X201568384Y-68554500D01*
X201497804Y-68560914D01*
X201456900Y-68573660D01*
X201342487Y-68609311D01*
X201272627Y-68610461D01*
X201213235Y-68573660D01*
X201183167Y-68510590D01*
X201187892Y-68451920D01*
X201239856Y-68295105D01*
X201249999Y-68195822D01*
X201250000Y-68195809D01*
X201250000Y-68172500D01*
X199300001Y-68172500D01*
X199300001Y-68195822D01*
X199310144Y-68295107D01*
X199363452Y-68455981D01*
X199363457Y-68455992D01*
X199452424Y-68600228D01*
X199452427Y-68600232D01*
X199458087Y-68605892D01*
X199491572Y-68667215D01*
X199486588Y-68736907D01*
X199458088Y-68781253D01*
X199419531Y-68819809D01*
X199419530Y-68819811D01*
X199331522Y-68965393D01*
X199321957Y-68996089D01*
X199280914Y-69127804D01*
X199280914Y-69127806D01*
X199274651Y-69196723D01*
X199248980Y-69261705D01*
X199192251Y-69302494D01*
X199151160Y-69309500D01*
X199141155Y-69309500D01*
X198986510Y-69340261D01*
X198986498Y-69340264D01*
X198840827Y-69400602D01*
X198835446Y-69403479D01*
X198834860Y-69402384D01*
X198774383Y-69421315D01*
X198707005Y-69402825D01*
X198660319Y-69350842D01*
X198649149Y-69281871D01*
X198653794Y-69260451D01*
X198689086Y-69147195D01*
X198695500Y-69076615D01*
X198695500Y-68563383D01*
X198689086Y-68492803D01*
X198638478Y-68330393D01*
X198550472Y-68184814D01*
X198550470Y-68184812D01*
X198550469Y-68184810D01*
X198448339Y-68082680D01*
X198414854Y-68021357D01*
X198419838Y-67951665D01*
X198448339Y-67907318D01*
X198550468Y-67805188D01*
X198550469Y-67805187D01*
X198550472Y-67805184D01*
X198638478Y-67659605D01*
X198689086Y-67497195D01*
X198695500Y-67426615D01*
X198695500Y-67294054D01*
X198715185Y-67227015D01*
X198767989Y-67181260D01*
X198837147Y-67171316D01*
X198888389Y-67190951D01*
X198990821Y-67259394D01*
X198990823Y-67259395D01*
X198990827Y-67259397D01*
X199136498Y-67319735D01*
X199136503Y-67319737D01*
X199136507Y-67319737D01*
X199136508Y-67319738D01*
X199233291Y-67338990D01*
X199295202Y-67371375D01*
X199329776Y-67432091D01*
X199326805Y-67499609D01*
X199310145Y-67549887D01*
X199310144Y-67549891D01*
X199300000Y-67649177D01*
X199300000Y-67672500D01*
X201249999Y-67672500D01*
X201249999Y-67649192D01*
X201249998Y-67649177D01*
X201239855Y-67549892D01*
X201186547Y-67389018D01*
X201186542Y-67389007D01*
X201097575Y-67244771D01*
X201097572Y-67244767D01*
X201088339Y-67235534D01*
X201054854Y-67174211D01*
X201059838Y-67104519D01*
X201088343Y-67060168D01*
X201097968Y-67050544D01*
X201187003Y-66906197D01*
X201240349Y-66745208D01*
X201250500Y-66645845D01*
X201250499Y-66099156D01*
X201240349Y-65999792D01*
X201187003Y-65838803D01*
X201101529Y-65700229D01*
X201083089Y-65632839D01*
X201104011Y-65566176D01*
X201107171Y-65561836D01*
X201132694Y-65520458D01*
X201197003Y-65416197D01*
X201250349Y-65255208D01*
X201260500Y-65155845D01*
X201260499Y-64873998D01*
X201280183Y-64806961D01*
X201332987Y-64761206D01*
X201384499Y-64750000D01*
X201436076Y-64750000D01*
X201503115Y-64769685D01*
G37*
%TD.AperFunction*%
%TD*%
M02*
