M48
; DRILL file {KiCad 9.0.7} date 2026-03-20T14:05:47+0100
; FORMAT={-:-/ absolute / metric / decimal}
; #@! TF.CreationDate,2026-03-20T14:05:47+01:00
; #@! TF.GenerationSoftware,Kicad,Pcbnew,9.0.7
; #@! TF.FileFunction,Plated,1,2,PTH
FMAT,2
METRIC
; #@! TA.AperFunction,Plated,PTH,ViaDrill
T1C0.300
; #@! TA.AperFunction,Plated,PTH,ComponentDrill
T2C0.600
; #@! TA.AperFunction,Plated,PTH,ComponentDrill
T3C0.650
; #@! TA.AperFunction,Plated,PTH,ComponentDrill
T4C0.900
%
G90
G05
T1
X166.185Y-57.49
X167.42Y-68.53
X168.74Y-76.15
X170.3Y-60.08
X173.21Y-76.22
X173.26Y-91.29
X174.51Y-60.2
X175.06Y-75.47
X175.705Y-53.355
X176.01Y-73.71
X176.77Y-91.32
X178.87Y-70.2
X179.01Y-64.06
X180.31Y-81.67
X180.6Y-61.7
X180.78Y-65.24
X180.79Y-54.38
X180.848Y-74.458
X180.876Y-80.286
X182.68Y-73.393
X182.84Y-75.17
X183.28Y-59.845
X184.81Y-67.61
X184.88Y-74.22
X184.93Y-59.815
X185.85Y-74.33
X185.91Y-66.43
X185.94Y-68.74
X187.07Y-65.31
X187.097Y-67.59
X187.1Y-69.89
X187.66Y-91.29
X187.7Y-76.22
X188.36Y-66.34
X188.41Y-68.91
X189.05Y-72.1
X189.1Y-62.44
X189.39Y-67.59
X190.01Y-89.295
X190.14Y-72.33
X190.51Y-53.82
X190.895Y-72.527
X191.65Y-89.355
X192.08Y-70.04
X192.44Y-80.69
X192.61Y-69.13
X193.01Y-59.01
X193.09Y-64.03
X193.59Y-67.02
X193.92Y-85.34
X194.13Y-74.84
X194.16Y-76.41
X194.445Y-81.405
X195.05Y-67.68
X195.226Y-63.774
X195.56Y-65.59
X196.605Y-69.685
X197.019Y-88.339
X197.105Y-59.345
X198.349Y-88.529
X199.0Y-65.17
X199.22Y-70.11
X199.37Y-66.55
X200.2Y-80.54
X200.31Y-62.2
X201.56Y-61.671
X201.85Y-85.34
X203.3Y-61.06
X203.63Y-72.47
X203.645Y-65.877
X203.655Y-64.388
X204.3Y-53.56
X204.39Y-65.123
X205.135Y-64.388
X205.145Y-65.877
X205.26Y-72.47
X205.84Y-68.671
X206.333Y-67.54
X206.482Y-68.277
X208.247Y-60.907
T3
X196.03Y-53.24
X197.3Y-53.24
X198.57Y-53.24
X199.84Y-53.24
T4
X190.45Y-52.4
X192.99Y-52.4
T2
X193.55Y-86.445G85X193.55Y-87.545
G05
X193.55Y-90.795G85X193.55Y-91.595
G05
X202.19Y-86.445G85X202.19Y-87.545
G05
X202.19Y-90.795G85X202.19Y-91.595
G05
M30
